<?xml version="1.0" encoding="utf-8"?>
<!-- Generator: Adobe Illustrator 27.5.0, SVG Export Plug-In . SVG Version: 6.00 Build 0)  -->
<svg version="1.1" id="Layer_1" xmlns="http://www.w3.org/2000/svg" xmlns:xlink="http://www.w3.org/1999/xlink" x="0px" y="0px"
	 viewBox="0 0 899.999 900" style="enable-background:new 0 0 899.999 900;display:none;" xml:space="preserve">
<g style="display:inline;">
	<g>
		
			<line style="fill:none;stroke:#6C6075;stroke-width:7.8341;stroke-linecap:round;stroke-linejoin:round;stroke-miterlimit:10;" x1="189.325" y1="435.03" x2="189.325" y2="447.74"/>
		
			<polyline style="fill:none;stroke:#B0D2DD;stroke-width:7.8341;stroke-linecap:round;stroke-linejoin:round;stroke-miterlimit:10;" points="
			126.602,307.739 197.629,435.03 182.315,434.721 108.51,301.846 		"/>
		<path style="fill:#574D5E;" d="M218.954,451.728c0.996,0,1.812-0.815,1.812-1.812v-12.026c0-0.996-0.815-1.812-1.812-1.812
			l-8.127,0c-0.996,0-1.812,0.815-1.812,1.812v12.026c0,0.996,0.815,1.812,1.812,1.812H218.954z"/>
		<path style="fill:#EA4444;" d="M241.498,465.149h-95.227c0,0-1.182-8.992,4.265-15.004c2.734-3.021,7.132-5.283,14.182-5.283
			h58.333c6.793,0,11.11,2.261,13.843,5.283C242.341,456.146,241.498,465.149,241.498,465.149z"/>
		<path style="fill:#AF3C3C;" d="M192.502,449.291h-41.108c-6.41,5.967-5.122,15.855-5.122,15.855h41.108
			C187.379,465.143,186.094,455.257,192.502,449.291z"/>
		<g>
			
				<line style="fill:none;stroke:#6C6075;stroke-width:7.8341;stroke-linecap:round;stroke-linejoin:round;stroke-miterlimit:10;" x1="269.77" y1="187.539" x2="249.55" y2="196.493"/>
			
				<line style="fill:none;stroke:#B0D2DD;stroke-width:7.8341;stroke-linecap:round;stroke-linejoin:round;stroke-miterlimit:10;" x1="249.801" y1="198.798" x2="124.79" y2="307.739"/>
			
				<line style="fill:none;stroke:#C2E9F2;stroke-width:7.8341;stroke-linecap:round;stroke-linejoin:round;stroke-miterlimit:10;" x1="238.528" y1="190.794" x2="108.51" y2="301.846"/>
			
				<path style="fill:#433B49;stroke:#6C6075;stroke-width:6.341;stroke-linecap:round;stroke-linejoin:round;stroke-miterlimit:10;" d="
				M107.387,307.482c1.251,6.349,7.531,10.463,14.036,9.182c6.494-1.28,10.751-7.47,9.5-13.819
				c-1.251-6.351-7.539-10.467-14.034-9.187C110.385,294.939,106.136,301.131,107.387,307.482z"/>
			
				<path style="fill:#433B49;stroke:#6C6075;stroke-width:6.341;stroke-linecap:round;stroke-linejoin:round;stroke-miterlimit:10;" d="
				M227.352,202.396c1.252,6.353,7.538,10.465,14.038,9.185c6.494-1.279,10.752-7.469,9.5-13.822
				c-1.251-6.351-7.54-10.466-14.033-9.187C230.356,189.852,226.1,196.045,227.352,202.396z"/>
		</g>
		<g>
			<path style="fill:#C63C3C;" d="M269.168,194.811l-2.952,48.432c-0.121,1.989,1.298,3.021,3.153,2.294l58.335-22.883
				c1.855-0.728,2.152-2.404,0.66-3.725l-37.049-32.805"/>
			<path style="fill:#EA4444;" d="M263.272,181.15c-2.574-6.133,0.366-13.075,6.555-15.505c6.193-2.43,13.298,0.574,15.863,6.707
				l5.796,13.822l-22.42,8.798L263.272,181.15z"/>
		</g>
		
			<line style="fill:none;stroke:#FFFFFF;stroke-width:4.7645;stroke-linecap:round;stroke-miterlimit:10;" x1="304.261" y1="210.383" x2="287.759" y2="192.741"/>
		
			<line style="fill:none;stroke:#FFFFFF;stroke-width:4.7645;stroke-linecap:round;stroke-miterlimit:10;" x1="314.378" y1="221.2" x2="309.395" y2="215.872"/>
		
			<line style="fill:none;stroke:#8C2828;stroke-width:4.7645;stroke-linecap:round;stroke-miterlimit:10;" x1="268.293" y1="245.959" x2="328.972" y2="222.156"/>
	</g>
	<g>
		<path style="fill:#FFFFFF;" d="M215.598,460.008c-0.374-2.918-1.265-6.58-3.294-10.003h10.751
			c4.547-0.001,7.821,1.167,10.01,3.569c1.712,1.878,2.555,4.319,2.965,6.433L215.598,460.008z"/>
	</g>
</g>
<rect x="213.404" y="360.444" transform="matrix(0.9772 -0.2122 0.2122 0.9772 -75.0314 57.6013)" style="display:inline;fill:#B8CC27;" width="35" height="36"/>
<rect x="201.404" y="317.444" transform="matrix(0.9987 0.0507 -0.0507 0.9987 17.2816 -10.663)" style="display:inline;fill:#FFE32A;" width="35" height="36"/>
<rect x="457.404" y="354.444" transform="matrix(0.9987 0.0507 -0.0507 0.9987 19.4857 -23.5895)" style="display:inline;fill:#EF4D4D;" width="35" height="36"/>
<g style="display:inline;">
	<polygon style="fill:#E0B196;" points="361.083,718.725 405.495,718.725 408.161,646.253 363.75,646.253 	"/>
	<rect x="352.964" y="633.592" style="fill:#FFC41F;" width="47.9" height="66.683"/>
	<polygon style="fill:#E58A28;" points="343.726,700.275 391.626,693.328 391.626,633.592 343.726,633.592 	"/>
	<rect x="335.005" y="640.539" style="fill:#347799;" width="47.9" height="59.736"/>
	<rect x="325.768" y="640.539" style="fill:#20496B;" width="47.9" height="59.736"/>
	<rect x="353.864" y="652.043" style="fill:#E07D46;" width="53.689" height="59.736"/>
	<rect x="405.495" y="646.253" style="fill:#FFE9CF;" width="11.122" height="72.472"/>
</g>
<g style="display:inline;opacity:0.7;">
	<path style="fill:#8A829E;" d="M798.776,754.112c0-3.022-2.883-5.495-6.407-5.495H119.601c-3.524,0-6.407,2.472-6.407,5.495
		c0,3.022,2.883,5.494,6.407,5.494h672.768C795.893,759.606,798.776,757.133,798.776,754.112z"/>
</g>
<g style="display:inline;">
	<g>
		
			<path style="fill:none;stroke:#918073;stroke-width:9.8071;stroke-linecap:round;stroke-linejoin:round;stroke-miterlimit:10;" d="
			M451.625,546.779c0,0,0,7.709,0,17.131s8.665,17.131,19.255,17.131l39.083,0c10.591,0,17.931-8.563,16.313-19.029l-4.386-28.368
			c-1.618-10.466-5.554-19.029-8.747-19.029c-3.193,0-5.805,0-5.805,0"/>
	</g>
	<g>
		
			<path style="fill:none;stroke:#214775;stroke-width:19.6141;stroke-linecap:round;stroke-linejoin:round;stroke-miterlimit:10;" d="
			M521.288,514.615H470.88c-10.59,0-19.255,5.71-19.255,12.689c0,6.979,0,12.689,0,12.689"/>
	</g>
	<path style="fill:#56698F;" d="M553.616,739.971c0,6.66-5.399,12.059-12.059,12.059c-6.66,0-12.059-5.399-12.059-12.059"/>
	<path style="fill:#56698F;" d="M635.754,739.971c0,6.66-5.399,12.059-12.059,12.059s-12.059-5.399-12.059-12.059"/>
	<path style="fill:#56698F;" d="M701.475,739.971c0,6.66-5.399,12.059-12.059,12.059c-6.66,0-12.059-5.399-12.059-12.059"/>
	<rect x="570.598" y="613.756" style="fill:#B7BEBC;" width="21.723" height="79.391"/>
	<polygon style="fill:#7F8A99;" points="570.598,614.033 570.598,644.545 592.321,637.881 592.321,614.033 	"/>
	<polygon style="fill:#B7BEBC;" points="557.297,706.316 557.297,713.005 605.622,713.005 605.622,701.128 	"/>
	<g>
		<path style="fill:#3E4C60;" d="M609.617,600.284c0-6.489-5.31-11.799-11.799-11.799h-32.717c-6.489,0-11.799,5.31-11.799,11.799
			v13.921c0,6.489,5.31,11.799,11.799,11.799h32.717c6.49,0,11.799-5.31,11.799-11.799V600.284z"/>
	</g>
	<g>
		<path style="fill:#3E4C60;" d="M649.514,594.141c0-6.489-5.31-11.799-11.799-11.799H525.204c-6.489,0-11.799,5.31-11.799,11.799
			v8.093c0,6.489,5.31,11.799,11.799,11.799h112.511c6.489,0,11.799-5.31,11.799-11.799V594.141z"/>
	</g>
	<g>
		<path style="fill:#7AAEED;" d="M705.114,588.721c0.676,6.454-4.081,11.735-10.57,11.735H553.673
			c-6.489,0-12.352-5.281-13.028-11.735l-10.844-103.58c-0.676-6.454,0.032-16.892,1.573-23.196l34.299-140.309
			c1.541-6.304,7.974-12.663,14.294-14.132l78.559-18.258c6.321-1.469,16.802-2.671,23.292-2.671h12.725
			c6.49,0,11.422,5.296,10.961,11.769L693.88,461.637c-0.461,6.473-0.285,17.05,0.391,23.504L705.114,588.721z"/>
	</g>
	<g>
		<path style="fill:#2E5389;" d="M685.578,588.721c0.676,6.454-4.081,11.735-10.57,11.735h-138.21
			c-6.49,0-12.352-5.281-13.028-11.735l-10.844-103.58c-0.676-6.454,0.044-16.889,1.601-23.19l40.485-163.921
			c1.556-6.3,8.139-11.455,14.628-11.455h87.094c6.49,0,11.94,5.308,12.113,11.795l4.346,163.241
			c0.173,6.487,0.867,17.076,1.542,23.53L685.578,588.721z"/>
	</g>
	<path style="fill:#214775;" d="M628.785,519.487c1.337,13.596,1.337,23.18,24.518,23.18c23.18,0,34.771,0,34.771,0l-1.783,20.506
		l-53.939,6.687l-22.735-14.711l8.024-29.867L628.785,519.487z"/>
	<g>
		<path style="fill:#4977A5;" d="M686.806,581.577c0,10.383-8.495,18.878-18.878,18.878H453.593
			c-10.383,0-18.878-8.495-18.878-18.878v-5.273c0-10.383,8.495-18.878,18.878-18.878h214.336c10.383,0,18.878,8.495,18.878,18.878
			V581.577z"/>
	</g>
	<path style="fill:#2E5389;" d="M595.645,557.349c-17.175,0-29.561,34.191-29.561,34.191c11.128,0-84.042,0-84.042,0l1.534-34.191
		H595.645z"/>
	<g>
		<path style="fill:#CCB396;" d="M594.439,582.757c0,9.734,7.964,17.698,17.698,17.698h63.621c9.734,0,18.121-7.953,18.637-17.674
			l0.408-7.683c0.516-9.72-7.026-17.673-16.76-17.673h-65.907c-9.734,0-17.698,7.964-17.698,17.698V582.757z"/>
	</g>
	<g>
		<path style="fill:#6589BD;" d="M529.73,473.006c-6.486,0.22-10.683-4.793-9.328-11.139l34.973-163.754
			c1.355-6.346,7.774-11.539,14.263-11.539h105.368c6.49,0,11.422,5.296,10.961,11.769L674.72,456.348
			c-0.461,6.473-6.144,11.949-12.63,12.169L529.73,473.006z"/>
	</g>
	
		<polyline style="fill:none;stroke:#B7BEBC;stroke-width:11.799;stroke-linecap:round;stroke-linejoin:round;stroke-miterlimit:10;" points="
		475.053,716.995 581.459,697.347 689.416,716.995 	"/>
	
		<polyline style="fill:none;stroke:#B7BEBC;stroke-width:11.799;stroke-linecap:round;stroke-linejoin:round;stroke-miterlimit:10;" points="
		541.557,716.995 581.459,697.347 622.912,716.995 	"/>
	<path style="fill:#56698F;" d="M487.201,739.971c0,6.66-5.399,12.059-12.059,12.059c-6.66,0-12.059-5.399-12.059-12.059"/>
	<g>
		<g>
			<path style="fill:#B7BEBC;" d="M463.083,740.56c-0.978,0-1.77-0.792-1.77-1.77c0-7.625,6.203-13.829,13.828-13.829
				c7.626,0,13.829,6.204,13.829,13.829c0,0.977-0.792,1.77-1.77,1.77H463.083z"/>
			<path style="fill:#B7BEBC;" d="M475.142,726.731c6.66,0,12.059,5.399,12.059,12.059h-24.119
				C463.082,732.13,468.482,726.731,475.142,726.731 M475.142,723.192c-8.602,0-15.599,6.997-15.599,15.599
				c0,1.955,1.585,3.54,3.54,3.54h24.119c1.955,0,3.54-1.584,3.54-3.54C490.741,730.189,483.743,723.192,475.142,723.192
				L475.142,723.192z"/>
		</g>
	</g>
	<g>
		<g>
			<path style="fill:#B7BEBC;" d="M529.498,740.56c-0.978,0-1.77-0.792-1.77-1.77c0-7.625,6.203-13.829,13.829-13.829
				c7.625,0,13.828,6.204,13.828,13.829c0,0.977-0.792,1.77-1.769,1.77H529.498z"/>
			<path style="fill:#B7BEBC;" d="M541.557,726.731c6.66,0,12.059,5.399,12.059,12.059h-24.118
				C529.498,732.13,534.897,726.731,541.557,726.731 M541.557,723.192c-8.601,0-15.599,6.997-15.599,15.599
				c0,1.955,1.585,3.54,3.54,3.54h24.118c1.955,0,3.54-1.584,3.54-3.54C557.156,730.189,550.159,723.192,541.557,723.192
				L541.557,723.192z"/>
		</g>
	</g>
	<g>
		<g>
			<path style="fill:#B7BEBC;" d="M611.636,740.56c-0.977,0-1.769-0.792-1.769-1.77c0-7.625,6.203-13.829,13.829-13.829
				c7.626,0,13.829,6.204,13.829,13.829c0,0.977-0.792,1.77-1.77,1.77H611.636z"/>
			<path style="fill:#B7BEBC;" d="M623.695,726.731c6.66,0,12.059,5.399,12.059,12.059h-24.118
				C611.636,732.13,617.035,726.731,623.695,726.731 M623.695,723.192c-8.601,0-15.599,6.997-15.599,15.599
				c0,1.955,1.585,3.54,3.54,3.54h24.118c1.955,0,3.54-1.584,3.54-3.54C639.294,730.189,632.297,723.192,623.695,723.192
				L623.695,723.192z"/>
		</g>
	</g>
	<g>
		<g>
			<path style="fill:#B7BEBC;" d="M677.357,740.56c-0.978,0-1.77-0.792-1.77-1.77c0-7.625,6.203-13.829,13.828-13.829
				c7.626,0,13.829,6.204,13.829,13.829c0,0.977-0.792,1.77-1.77,1.77H677.357z"/>
			<path style="fill:#B7BEBC;" d="M689.416,726.731c6.66,0,12.059,5.399,12.059,12.059h-24.118
				C677.357,732.13,682.756,726.731,689.416,726.731 M689.416,723.192c-8.601,0-15.599,6.997-15.599,15.599
				c0,1.955,1.585,3.54,3.54,3.54h24.118c1.955,0,3.54-1.584,3.54-3.54C705.015,730.189,698.018,723.192,689.416,723.192
				L689.416,723.192z"/>
		</g>
	</g>
	<g>
		<path style="fill:#3E4C60;" d="M596.311,694.327v-27.722c0-3.245-2.655-5.9-5.899-5.9h-17.904c-3.245,0-5.899,2.655-5.899,5.9
			v27.722"/>
	</g>
	
		<line style="fill:none;stroke:#B7BEBC;stroke-width:11.799;stroke-linecap:round;stroke-linejoin:round;stroke-miterlimit:10;" x1="475.142" y1="730.571" x2="475.142" y2="717.801"/>
	
		<line style="fill:none;stroke:#B7BEBC;stroke-width:11.799;stroke-linecap:round;stroke-linejoin:round;stroke-miterlimit:10;" x1="541.557" y1="730.571" x2="541.557" y2="717.801"/>
	
		<line style="fill:none;stroke:#B7BEBC;stroke-width:11.799;stroke-linecap:round;stroke-linejoin:round;stroke-miterlimit:10;" x1="623.695" y1="730.571" x2="623.695" y2="717.801"/>
	
		<line style="fill:none;stroke:#B7BEBC;stroke-width:11.799;stroke-linecap:round;stroke-linejoin:round;stroke-miterlimit:10;" x1="689.416" y1="730.571" x2="689.416" y2="717.801"/>
	<path style="fill:#2E5389;" d="M613.785,376.748c5.734,0.558,11.681,1.116,16.796,4.118c2.219,1.302,4.281,3.064,6.101,5.486
		c4.927,6.557,8.08,17.948,7.761,38.134c-0.708,44.828-2.594,85.58,7.763,103.337c5.005,8.58-7.246-8.84-20.746-9.227
		c-14.439-0.415-30.402,15.831-31.278,14.176c-1.696-3.202-5.421-48.903-5.421-48.903s-3.246-62.584,0.981-72.19
		c4.227-9.606,15.447-22.996,15.447-22.996L613.785,376.748z"/>
	<g>
		<path style="fill:#2E5389;" d="M523.448,474.477c-6.463-0.589-10.641-6.264-9.286-12.61l34.973-163.754
			c1.355-6.346,7.774-11.539,14.263-11.539h35.975c6.489,0,11.447,5.298,11.018,11.773l-11.362,171.178
			c-0.43,6.475-6.069,11.291-12.532,10.702L523.448,474.477z"/>
	</g>
	<g>
		<path style="fill:#24774B;" d="M463.132,689.123c-2.006,6.241-7.578,19.168-6.687,26.078c0.891,6.909,4.235,9.138,8.915,9.807
			c4.681,0.669,14.265-1.337,20.506-13.596c6.241-12.259,10.699-21.323,12.705-26.969c1.677-4.72-2.675-19.614-8.247-22.957
			c0,0-0.987,8.635-6.464,19.168c-5.795,11.144-12.036,12.036-14.488,12.036c-4.904,0-3.232-4.458-3.232-8.247
			C466.141,680.653,463.132,689.123,463.132,689.123z"/>
		<path style="fill:#3F2F36;" d="M469.417,697.219c-5.589-0.658-7.4-4.195-5.951-8.987c1.449-4.792,1.449-25.409,1.449-25.409
			l25.632-8.024l2.537,12.42C493.083,667.219,486.417,699.219,469.417,697.219z"/>
		<path style="fill:#3F2F36;" d="M535.926,689.666c0.892-3.12,2.675-10.104,4.012-14.116c1.337-4.012,1.337-13.225,1.337-13.225
			l25.558-9.956v8.916l-7.578,31.799l-16.048,16.345c0,0-8.47-4.755-8.321-5.201C535.035,703.782,535.926,689.666,535.926,689.666z"
			/>
		<path style="fill:#268E5A;" d="M571.592,682.982c-1.489,3.709-5.055,15.299-9.513,25.998
			c-4.458,10.699-9.519,13.385-20.369,14.428c-10.841,1.034-15.587-5.21-14.25-12.199c1.337-6.972,10.075-29.501,12.473-35.635
			c-0.196,0.589-3.994,12.223-0.178,17.136c1.016,1.32,2.594,2.158,4.939,2.158c11.296,0,15.005-10.85,17.385-16.94
			c2.381-6.089,4.609-18.125,4.609-18.125s1.186,1.632,3.566,6.829c0.365,0.794,0.677,1.641,0.954,2.514
			C572.716,674.013,572.849,679.834,571.592,682.982z"/>
		<path style="fill:#24774B;" d="M571.592,682.982c-1.489,3.709-5.055,15.299-9.513,25.998
			c-4.458,10.699-9.807,15.754-20.657,16.797c-10.841,1.034-15.299-7.578-13.962-14.568c1.337-6.972,10.075-29.501,12.473-35.635
			c-0.196,0.589-3.994,12.223-0.178,17.136c-4.19,12.633-6.428,18.155-2.354,22.229c4.458,4.458,16.048,2.672,23.18-16.051
			c4.609-12.09,8.47-23.314,10.627-29.742C572.716,674.013,572.849,679.834,571.592,682.982z"/>
		<path style="fill:#FFB287;" d="M400.404,455.778c6-10.667,9-15,17-13s21,8.333,33.667,8.333c12.667,0,4,8.667,4,8.667
			L400.404,455.778z"/>
		<path style="fill:#268E5A;" d="M509.773,428.562c1.456-6.404-2.827-6.088,2.807-12.941c5.634-6.853,27.964-34.716,42.706-38.25
			c14.742-3.534,2.225,34.599,2.225,34.599l-22.705,25.907L509.773,428.562z"/>
		<path style="fill:#24774B;" d="M533.462,426.023c-1.783,7.727,2.972,19.02,3.566,9.807c0.594-9.213,4.161-29.421,6.538-34.771
			c0,0-14.562,5.349-24.072,18.128L533.462,426.023z"/>
		<path style="fill:#1E5435;" d="M518.503,422.408c-2.51-0.502-6.764-3.85-5.979-6.36c0.785-2.51,8.202-6.244,22.136,10.472
			c10.207,12.244-10.849,24.172-18.07,1.744C515.082,423.582,518.503,422.408,518.503,422.408z"/>
		<g>
			<path style="fill:#FFB287;" d="M417.988,465.887c35.742,6.535,67.348-0.285,84.742-11.055
				c10.36-6.419,18.214-13.721,24.099-20.693c2.024-2.398,3.816-4.752,5.394-7.025c1.159-1.667-1.765-6.179-7.382-10.164
				c-3.718-2.63-6.517-3.361-8.523-3.209c-1.926,0.134-3.138,1.07-3.736,1.881c-4.806,6.508-11.84,13.792-21.977,20.078
				c-18.847,11.67-43.214,16.609-72.421,14.684L417.988,465.887z"/>
			<path style="fill:#F58D6C;" d="M516.317,413.74c6.009,4.743,9.201,12.954,10.511,20.399c2.024-2.398,3.816-4.752,5.394-7.025
				c1.159-1.667-1.765-6.179-7.382-10.164C521.123,414.32,518.323,413.589,516.317,413.74z"/>
		</g>
		<g>
			<g>
				<path style="fill:#5B2727;" d="M461.561,662.844l0.122-6.946c0.497-28.921,1.117-57.913,8.403-87.823
					c3.423-14.054,10.894-24.063,22.202-29.751c8.851-4.451,18.101-5.186,25.533-5.777c3.474-0.276,7.796-0.62,9.521-1.313
					c2.388-0.96,5.289-1.808,8.961-2.882c20.918-6.115,26.903-10.256,28.545-12.375c0.476-9.571,8.386-43.185,18.076-43.185
					c9.995,0,18.098,8.103,18.098,18.098c0,30.255-36.852,67.027-54.563,72.204c-2.143,0.627-4.81,1.406-5.62,1.725
					c-6.846,2.752-13.914,3.314-20.15,3.81c-13.751,1.093-13.943,1.881-15.437,8.012c-6.332,25.995-6.888,51.341-7.379,79.879
					l-0.125,7.001C497.565,673.401,461.373,672.838,461.561,662.844z"/>
			</g>
			<g>
				<path style="fill:#6D3232;" d="M570.043,655.162c0.201-10.728-0.383-18.361-0.949-28.178
					c-1.039-18.043-2.021-35.085,2.246-52.604c1.811-7.435,12.076-16.662,30.576-16.662c4.771,0,15.833,4.333,21.667-2.667
					c8.714-10.457,10.381-33.09,10.381-64.161c0-9.995-8.103-18.098-18.098-18.098c-9.995,0-18.098,34.103-18.098,44.098
					c0,7.526-1.271,10.326-1.596,10.917c-1.704,0.84-7.316,1.196-10.714,1.411c-14.331,0.909-41.006,2.6-49.286,36.595
					c-5.547,22.77-4.361,43.35-3.215,63.252c0.551,9.559,1.071,18.588,0.895,27.934c-0.149,7.948,17.603,9.173,27.819,6.877
					C567.975,662.459,570.005,657.184,570.043,655.162z"/>
			</g>
			<g>
				<path style="fill:#268E5A;" d="M545.323,445.552c-0.64,13.71-2.82,38.37-5.03,58.27c-1.55,13.89-3.12,25.46-4.21,29.4
					c-0.06,0.23-0.14,0.45-0.23,0.67c0,0.01,0,0.02-0.01,0.02c-0.05-0.01-0.1-0.03-0.14-0.06c-5.61-1.28-11.26-2.01-18.9-1.32
					c0.81-2.7,1.57-5.58,2.28-8.65c1.12-4.85,2.29-11.05,3.42-17.95c4.23-25.69,8.06-60.92,7.98-70.71c0,0,0.2-0.06,0.57-0.15
					c1.09-0.28,3.61-0.88,6.23-1.2c3.39-0.42,6.96-0.4,7.92,1.35C545.594,435.932,545.594,439.762,545.323,445.552z"/>
				<g>
					<g>
						<path style="fill:#A54134;" d="M532.625,299.845c-2.238,29.56,24.086,56.108,53.56,58.59
							c29.473,2.482,55.84-9.163,59.632-38.564l3.244-28.931c3.792-29.401-17.279-55.434-46.824-57.852l-10.326-0.846
							c-29.546-2.418-55.551,19.789-57.789,49.349L532.625,299.845z"/>
						<path style="fill:#3CAF78;" d="M642.083,451.552c-0.19,3.99-0.48,7.99-0.86,11.98c-0.67,6.93-1.61,17.44-2.78,28.65
							c-1.97,18.83-4.57,39.63-7.59,48.74c-2.09,6.33-9.38,4.25-18.17,0.48c-6.77-2.91-14.43-6.83-21.3-8.7
							c-5.71-1.56-10.37-1.7-14.43-1.14h-0.01c-0.47,0.05-0.92,0.13-1.37,0.21c-7.63,1.36-13.26,5.08-20.27,6
							c-0.13,0.02-0.25,0.03-0.37,0.05c-0.23,0.02-0.43,0.05-0.62,0.07c-5,0.54,4.8-1.91-11.31-5.19
							c-2.73-0.55,0.13-12.3,3.31-29.59c3.66-19.98,7.73-47.38,4.07-73.47c-0.57-4.05-1.54-8.39-2.55-12.8
							c-3.45-15.04-7.41-30.79,2.26-37.89v-0.01c2.59-1.9,6.15-3.19,10.95-3.68c0.19-0.02,0.39-0.04,0.59-0.05
							c0.34-0.03,0.68-0.06,1.02-0.08l10.42-0.64l33.42-2.05c15.3,0,24.89,10.7,30.28,26.78c2.78,8.32,4.42,18.07,5.15,28.52
							C642.443,435.392,642.484,443.432,642.083,451.552z"/>
						<path style="fill:#268E5A;" d="M617.854,478.762l-13.53,17.47l-27.37,35.33h-0.01c-0.47,0.05-0.92,0.13-1.37,0.21
							c-7.63,1.36-13.26,5.08-20.27,6c-0.13,0.02-0.25,0.03-0.37,0.05c-0.22,0.03-0.42,0.05-0.62,0.07
							c-0.91,0.11-1.58,0.16-2.13,0.17c-1.44,0.02-2.09-0.29-3.92-0.94c-1.83-0.63-4.84-1.6-11-2.89c-0.01-0.01-0.02-0.01-0.03-0.01
							c-0.39-0.08-0.8-0.17-1.22-0.25c-0.06-0.01-0.12-0.03-0.17-0.06c-0.05-0.01-0.1-0.03-0.14-0.06
							c-2.45-1.29,1.39-11.55,3.88-29.94c1.97-14.52,3.11-34.11-0.34-58.36c-0.54-3.78-1.19-7.67-1.96-11.68
							c-0.26-1.34-0.53-2.69-0.82-4.06c-2.87-13.62-3.72-30.93,3.51-42.4c4.08-6.49,10.74-11.12,21.07-12.15
							c0.19-0.02,0.39-0.04,0.59-0.05c0.34-0.03,0.68-0.06,1.02-0.08l10.42-0.64c1.74,5.3,2.21,19.63,8.64,19.16
							c13.21-0.97,18.99,1.02,20.51,15.94c2.23,21.8,2.65,38.16,2.65,38.16l10.74,0.04L617.854,478.762z"/>
						<path style="fill:#FFB287;" d="M629.687,324.501c-0.665,5.469,3.231,10.439,8.699,11.103l0,0
							c5.469,0.664,10.44-3.23,11.104-8.699l1.021-8.4c0.664-5.47-3.231-10.44-8.7-11.104l0,0c-5.469-0.664-10.44,3.232-11.106,8.7
							L629.687,324.501z"/>
						<path style="fill:#FFFFFF;" d="M606.501,372.436c0.663,10.756-14.028,20.554-24.784,21.217l-2.872,0.177
							c-10.756,0.663-15.526-7.936-16.188-18.692L606.501,372.436z"/>
						<path style="fill:#FFB287;" d="M567.678,373.706c0.496,8.05,2.269,13.762,10.73,13.241l2.897-0.178
							c8.461-0.521,20.533-7.087,20.036-15.137l-0.693-11.243c-0.496-8.05-7.824-14.209-16.285-13.688l-2.897,0.178
							c-8.461,0.521-14.978,7.534-14.482,15.584L567.678,373.706z"/>
						<path style="fill:#F58D6C;" d="M600.867,363.927c0.298,4.832-11.548,11.446-17.719,12.268
							c-6.171,0.821-15.215,1.638-15.555-3.875l-1.719-27.896l33.516-4.459L600.867,363.927z"/>
						<path style="fill:#FFB287;" d="M537.878,319.863c-1.107,26.851,13.266,43.746,39.952,45.935
							c26.686,2.188,58.403-18.835,61.685-45.508l2.291-15.995c3.282-26.672-15.612-44.729-42.396-46.926l-24.147-1.98
							c-26.784-2.197-35.287,13.614-36.395,40.465L537.878,319.863z"/>
					</g>
					<path style="opacity:0;fill:#FFFFFF;stroke:#FFFFFF;stroke-width:0.81;stroke-miterlimit:10;" d="M604.677,306.204
						c-0.323,3.935-3.774,6.863-7.709,6.54c-3.935-0.323-6.863-3.774-6.541-7.709s3.774-6.863,7.709-6.54
						C602.071,298.818,605,302.269,604.677,306.204z"/>
					<g>
						<path style="fill:#422B27;" d="M599.665,309.758c-0.095,0-0.19-0.004-0.286-0.012c-0.919-0.076-1.753-0.504-2.35-1.207
							c-0.596-0.703-0.883-1.596-0.807-2.514c0.145-1.777,1.654-3.168,3.435-3.168c0.095,0,0.19,0.004,0.286,0.012
							c1.895,0.155,3.312,1.824,3.156,3.721C602.953,308.367,601.444,309.758,599.665,309.758L599.665,309.758z"/>
						<path style="fill:#422B27;" d="M599.656,303.169c0.086,0,0.173,0.003,0.26,0.01c1.728,0.142,3.013,1.657,2.871,3.385
							c-0.134,1.64-1.507,2.882-3.124,2.882c-0.086,0-0.173-0.003-0.26-0.01c-1.727-0.142-3.013-1.657-2.871-3.384
							C596.667,304.411,598.04,303.169,599.656,303.169L599.656,303.169z M599.656,302.546c-1.941,0-3.586,1.518-3.746,3.455
							c-0.169,2.067,1.375,3.887,3.442,4.057c0.105,0.008,0.209,0.013,0.312,0.013c1.942,0,3.587-1.518,3.746-3.455
							c0.082-1.001-0.23-1.974-0.88-2.741c-0.651-0.766-1.56-1.234-2.561-1.316C599.863,302.55,599.759,302.546,599.656,302.546
							L599.656,302.546z"/>
					</g>
					<g style="opacity:0;">
						<path style="fill:#FFFFFF;" d="M594.93,304.807c-0.063,0.763,0.505,1.432,1.268,1.494c0.763,0.063,1.432-0.505,1.494-1.268
							c0.063-0.763-0.505-1.432-1.268-1.494C595.661,303.476,594.992,304.044,594.93,304.807z"/>
					</g>
					<path style="fill:#A54134;" d="M619.273,266.771c-8.063-0.661-42.586-3.492-57.807-4.74c-6.323-0.518-11.86-1.081-15.253-4.765
						c-10.946-11.889-6.963-33.281-6.963-33.281s4.664,4.323,30.851,6.471c27.377,2.245,49.209,0.094,67.007,22.038
						C641.55,257.969,619.273,266.771,619.273,266.771z"/>
					<path style="fill:#A54134;" d="M598.507,259.818c-0.337,4.108-5.013,4.703,3.867,5.432c9.124,0.748,23.122,6.297,21.494,26.143
						c-0.677,8.253-1.346,16.411-1.646,20.07c-0.297,3.622,6.863,5.976,9.173,0.832c3.066-6.826,9.905-4.944,10.417-4.896
						c3.794,0.363,3.717-30.091,1.949-32.797c-1.768-2.706-10.054-14.716-12.721-16.738c-2.667-2.021-23.157-10.708-23.157-10.708
						s-6.922-2.832-9.722,0.544C595.361,251.077,598.507,259.818,598.507,259.818z"/>
					<g>
						<path style="fill:#8E3925;" d="M607.109,296.629c-0.511,0-1.017-0.222-1.363-0.65c-2.427-3.002-5.263-3.998-9.778-3.434
							c-0.957,0.12-1.834-0.561-1.956-1.521c-0.119-0.96,0.562-1.835,1.521-1.955c5.732-0.716,9.725,0.735,12.937,4.707
							c0.608,0.752,0.491,1.855-0.261,2.463C607.885,296.501,607.495,296.629,607.109,296.629z"/>
					</g>
					<g>
						<path style="fill:#8E3925;" d="M546.867,292.687c-0.324,0-0.651-0.09-0.944-0.277c-0.815-0.521-1.052-1.605-0.53-2.419
							c2.9-4.529,9.231-4.802,13.882-3.136c0.911,0.326,1.386,1.328,1.06,2.239c-0.328,0.911-1.329,1.384-2.239,1.059
							c-3.498-1.252-7.969-1.059-9.753,1.727C548.009,292.401,547.443,292.687,546.867,292.687z"/>
					</g>
					<g>
						<path style="fill:#FFB287;" d="M551.261,317.397c-0.009,5.509-4.485,9.965-9.993,9.954l0,0
							c-5.51-0.011-9.966-4.483-9.956-9.992l0.014-8.462c0.01-5.51,4.484-9.966,9.994-9.956l0,0
							c5.509,0.011,9.966,4.485,9.957,9.994L551.261,317.397z"/>
					</g>
				</g>
				<path style="fill:#268E5A;" d="M575.576,531.769c4.391-0.782,9.446-0.806,15.81,0.934c6.866,1.868,14.526,5.791,21.297,8.698
					c18.752-19.931,21.484-91.386,21.484-91.386l-3.316,8.757c0,0-26.393,11.984-26.172,13.28
					C604.855,473.115,585.945,525.148,575.576,531.769z"/>
				<path style="fill:#24774B;" d="M638.443,492.182c-1.97,18.83-4.57,39.63-7.59,48.74c-2.09,6.33-9.38,4.25-18.17,0.48
					c-6.77-2.91-14.43-6.83-21.3-8.7c-5.71-1.56-10.37-1.7-14.43-1.14h-0.01c-0.47,0.05-0.92,0.13-1.37,0.21
					c-7.63,1.36-13.26,5.08-20.27,6c-0.13,0.02-0.25,0.03-0.37,0.05c-0.22,0.03-0.42,0.05-0.62,0.07c-0.91,0.11-1.58,0.16-2.13,0.17
					c-1.44,0.02-2.09-0.29-3.92-0.94c-1.83-0.63-4.84-1.6-11-2.89c-0.01-0.01-0.02-0.01-0.03-0.01c-0.39-0.08-0.8-0.17-1.22-0.25
					c-0.06-0.01-0.12-0.03-0.17-0.06c-0.05-0.01-0.1-0.03-0.14-0.06c-5.61-1.28-11.26-2.01-18.9-1.32c0.81-2.7,1.57-5.58,2.28-8.65
					c1.12-4.85,2.29-11.05,3.42-17.95l17.08-2.02l0.71-0.09l6.02-0.71l58.01-6.88L638.443,492.182z"/>
			</g>
			<path style="fill:#A54134;" d="M636.568,248.158c1.814-5.59-7.219-18.252-7.219-18.252s-6.131,8.292-3.999,13.173
				C627.482,247.961,634.754,253.748,636.568,248.158z"/>
			<path style="fill:#A54134;" d="M635.26,246.64c6.727-2.699,19.547,9.472,19.547,9.472s-9.664,4.366-16.453,0.871
				C633.342,254.402,629.487,248.957,635.26,246.64z"/>
			<path style="fill:#422B27;" d="M556.265,306.199c-0.095,0-0.19-0.004-0.286-0.012c-0.919-0.075-1.753-0.504-2.349-1.207
				c-0.596-0.703-0.883-1.596-0.807-2.514c0.145-1.777,1.654-3.168,3.435-3.168c0.095,0,0.19,0.004,0.286,0.012
				c1.895,0.155,3.312,1.824,3.156,3.721C559.554,304.808,558.045,306.199,556.265,306.199L556.265,306.199z"/>
			<path style="fill:#8E2B30;" d="M596.735,332.047c0,0-7.376,17.712-25.268,16.383c-19.788-1.47-18.084-19.603-18.084-19.603
				L596.735,332.047L596.735,332.047z"/>
			<g>
				<path style="fill:#F58D6C;" d="M569.843,321.849c-4.844-0.39-8.739-3.464-8.296-6.237c0.161-1.01,1.275-2.151,3.1-1.102
					c0.838,0.482,3.152,1.154,5.656,1.344c2.503,0.19,3.901-0.202,5.349-0.511c3.156-0.672,4.028,0.62,4.023,1.641
					C579.66,319.789,574.69,322.192,569.843,321.849z"/>
			</g>
			<path style="fill:#D85365;" d="M561.269,345.249c5.486-5.721,18.164-4.491,28.033-3.049c-4.071,3.681-9.923,6.818-17.835,6.23
				c-4.411-0.328-7.749-1.486-10.281-3.084C561.216,345.314,561.239,345.281,561.269,345.249z"/>
			<path style="fill:#FFFFFF;" d="M596.632,332.28c-0.29,0.629-1.197,2.47-2.797,4.59c0,0,1.33-1.591,0.616-1.435
				c0,0-33.882,1.442-38.198-3.732l-1.036-2.738l41.519,3.084L596.632,332.28z"/>
			<path style="fill:#F58D6C;" d="M636.439,318.938c0.252-2.156,2.201-3.699,4.355-3.449c0.134,0.016,0.258,0.057,0.387,0.085
				c0.385-0.074,0.781-0.109,1.191-0.061c2.154,0.251,3.701,2.201,3.449,4.358l-0.609,5.089c-0.252,2.156-2.203,3.698-4.358,3.447
				c-0.134-0.016-0.258-0.056-0.386-0.085c-0.385,0.074-0.781,0.109-1.192,0.061c-2.151-0.25-3.697-2.2-3.445-4.357L636.439,318.938
				z"/>
			<path style="fill:#268E5A;" d="M550.094,378.941c-15.232,8.039-19.996,24.914-19.437,53.21l1.834,13.404h13.635L550.094,378.941z
				"/>
		</g>
		<path style="fill:#268E5A;" d="M617.41,445.209c5.627-12.348,6.48-20.215,7.508-25.611l-8.562,16.939l-15.043-12.443l-1.489,0.976
			l-1.436,1.415c-0.296,6.473-0.763,17.358-1.065,25.874c-0.053,1.502,3.869,2.116,6.762,2.15
			C609.214,454.571,614.908,450.698,617.41,445.209z"/>
		<path style="fill:#3CAF78;" d="M617.733,388.427c-6.641-3.892-7.592,0.989-25.108,26.623c0,0,3.568,6.253,3.927,6.441
			c0.359,0.188,10.429,4.777,10.429,4.777l14.036-23.939L617.733,388.427z"/>
		<path style="fill:#1E5435;" d="M598.261,422.408c-2.51-0.502-6.764-3.85-5.979-6.36c0.785-2.51,8.202-6.244,22.136,10.472
			c10.207,12.244-10.849,24.172-18.07,1.744C594.841,423.582,598.261,422.408,598.261,422.408z"/>
		<g>
			<path style="fill:#FFB287;" d="M497.933,465.887c35.751,6.535,67.357-0.285,84.751-11.055
				c10.244-6.348,18.036-13.552,23.903-20.461c2.095-2.478,3.95-4.912,5.581-7.257c1.168-1.667-1.756-6.179-7.373-10.164
				c-1.667-1.177-3.147-1.979-4.458-2.478c-4.395-1.712-6.856-0.143-7.801,1.15c-4.805,6.508-11.84,13.792-21.977,20.078
				c-18.856,11.67-43.214,16.609-72.421,14.684L497.933,465.887z"/>
			<path style="fill:#F58D6C;" d="M604.795,416.95c-1.667-1.177-3.147-1.979-4.458-2.478c0.544,0.49,1.132,1.07,1.774,1.747
				c4.734,4.975,5.421,12.963,4.476,18.152c2.095-2.478,3.95-4.912,5.581-7.257C613.336,425.446,610.412,420.935,604.795,416.95z"/>
		</g>
		<path style="fill:#6D3232;" d="M546.917,580.385c-3.167-14.667-4.667-34.5,6.167-42.167c10.833-7.667,25-11.5,47.667-2
			c22.667,9.5-34.167,14.333-34.833,14.833C565.25,551.552,546.917,580.385,546.917,580.385z"/>
	</g>
</g>
<g style="display:inline;">
	<polygon style="fill:#6D4739;" points="591.402,549.522 591.404,549.52 591.4,549.524 	"/>
</g>
<g style="display:inline;">
	<path style="fill:#FF9676;" d="M563.462,472.311c23.791,0.893,45.185,8.486,47.792,10.733c0.967,0.664,1.244,0.955,1.242,1.845
		c0.037-1.566,0.083-3.199,0.145-4.92c-5.718-3.678-25.708-9.641-46.568-10.852c-1.57,1.387-2.479,2.144-2.479,2.144
		C563.541,471.651,563.499,472.001,563.462,472.311z"/>
</g>
<path style="display:inline;opacity:0.5;fill:#A2A2C9;" d="M520.486,476.507c1.682-0.417,3.585-0.833,5.736-1.229
	c6.48-1.202,15.212-2.277,26.849-2.899c3.479-0.186,6.961-0.199,10.39-0.068c0.037-0.309,0.078-0.659,0.131-1.05
	c0,0,0.909-0.757,2.479-2.144c-4.399-0.26-8.833-0.303-13.178-0.071c-8.651,0.463-17.854,1.362-25.822,2.731
	c-2.278,0.396-4.448,0.826-6.481,1.296C520.558,474.09,520.519,475.249,520.486,476.507z"/>
<g style="display:inline;">
	<path style="fill:#CC2B33;" d="M612.28,490.876c-0.079-1.388-0.122-2.768-0.148-4.141l0.079-0.026
		c-0.004,1.634,0.047,3.29,0.124,4.953C612.318,491.4,612.295,491.137,612.28,490.876z"/>
	<path style="fill:#CC2B33;" d="M574.039,497.372c-0.002-0.031,0-0.058-0.002-0.089c0.201-0.211,0.363-0.429,0.47-0.658
		c-0.023,0.057-0.112,0.288-0.197,0.657L574.039,497.372z"/>
</g>
<path style="display:inline;fill:#4977A5;" d="M609.035,557.514c-18.048,0-29.4,5.24-34.931,19.503
	c-5.531,14.263,2.038,14.555,2.038,14.555s23.287-3.202,26.198-3.493c2.911-0.291,12.808-5.24,12.808-5.24L609.035,557.514z"/>
<g style="display:inline;">
	<path style="fill:#7AAEED;" d="M594.439,582.757c0,9.734,7.964,17.698,17.698,17.698h63.621c9.734,0,18.121-7.953,18.637-17.674
		l0.408-7.683c0.516-9.72-7.026-17.673-16.76-17.673h-65.907c-9.734,0-17.698,7.964-17.698,17.698V582.757z"/>
</g>
<g style="display:inline;">
	<g>
		
			<path style="fill:none;stroke:#2E5389;stroke-width:9.8071;stroke-linecap:round;stroke-linejoin:round;stroke-miterlimit:10;" d="
			M608.096,523.796v39.71c0,11.278,9.228,20.506,20.506,20.506h35.691c11.278,0,19.018-9.107,17.199-20.237l-3.657-22.385
			c-1.819-11.13-5.919-20.237-9.111-20.237c-3.193,0-5.805,0-5.805,0"/>
	</g>
	<path style="fill:none;stroke:#CCDDD8;stroke-width:9.8071;stroke-linecap:round;stroke-linejoin:round;stroke-miterlimit:10;" d="
		M688.989,562.011c1.618,10.466-5.723,19.029-16.313,19.029h-39.083c-10.59,0-19.255-7.709-19.255-17.131v-8.983"/>
	<path style="fill:none;stroke:#E1EFEA;stroke-width:9.8071;stroke-linecap:round;stroke-linejoin:round;stroke-miterlimit:10;" d="
		M688.989,562.011l-4.386-28.368c-0.223-1.44-0.489-2.844-0.792-4.195"/>
	<path style="fill:none;stroke:#7F8A99;stroke-width:9.8071;stroke-linecap:round;stroke-linejoin:round;stroke-miterlimit:10;" d="
		M683.811,529.449c-1.896-8.466-5.202-14.834-7.955-14.834c-3.193,0-5.805,0-5.805,0"/>
	<path style="fill:none;stroke:#7F8A99;stroke-width:9.8071;stroke-linecap:round;stroke-linejoin:round;stroke-miterlimit:10;" d="
		M614.337,546.779c0,0,0-1.274,0,8.148"/>
	<g>
		
			<path style="fill:none;stroke:#7AAEED;stroke-width:19.6141;stroke-linecap:round;stroke-linejoin:round;stroke-miterlimit:10;" d="
			M681.326,514.614h-47.733c-10.59,0-19.255,6.836-19.255,15.19c0,8.355,0,15.191,0,15.191"/>
	</g>
	<g>
		
			<path style="fill:none;stroke:#2E5389;stroke-width:19.6141;stroke-linecap:round;stroke-linejoin:round;stroke-miterlimit:10;" d="
			M674.449,502.133h-47.733c-10.591,0-19.255,8.665-19.255,19.255l0,23.607"/>
	</g>
</g>
<g style="display:inline;">
	<path style="fill:#404963;" d="M273.706,741.154c0,6.007-4.869,10.876-10.876,10.876c-6.007,0-10.876-4.869-10.876-10.876"/>
</g>
<g style="display:inline;">
	<path style="fill:#404963;" d="M189.548,741.154c0,6.007-4.869,10.876-10.876,10.876c-6.007,0-10.876-4.869-10.876-10.876"/>
</g>
<g style="display:inline;">
	<path style="fill:#56698F;" d="M361.179,741.154c0,6.007-4.869,10.876-10.876,10.876c-6.007,0-10.876-4.869-10.876-10.876"/>
</g>
<g style="display:inline;">
	<path style="fill:#56698F;" d="M291.857,741.154c0,6.007-4.869,10.876-10.876,10.876c-6.007,0-10.876-4.869-10.876-10.876"/>
</g>
<rect x="725.008" y="473.179" style="display:inline;fill:#934631;" width="20.433" height="279.99"/>
<rect x="651.734" y="473.18" style="display:inline;fill:#934631;" width="20.426" height="279.992"/>
<rect x="662.434" y="473.182" style="display:inline;fill:#D36F54;" width="9.73" height="279.99"/>
<polygon style="display:inline;fill:#7A392A;" points="672.164,606.932 672.164,753.172 651.583,753.172 651.583,616.052 "/>
<rect x="203.002" y="473.179" style="display:inline;fill:#934631;" width="20.433" height="279.99"/>
<rect x="130.788" y="473.179" style="display:inline;fill:#934631;" width="20.433" height="279.99"/>
<rect x="161.634" y="528.355" style="display:inline;fill:#E0B196;" width="206.222" height="208.852"/>
<rect x="281.985" y="528.355" style="display:inline;fill:#EFCBAB;" width="85.871" height="208.852"/>
<g style="display:inline;">
	<path style="fill:#43535B;" d="M527.99,465.336c1.651,0.596,1.566,1.084-0.19,1.084H382.664c-1.756,0-3.192-1.436-3.192-3.192
		v-4.273c0-1.756,1.437-3.192,3.192-3.192h115.617c1.756,0,4.544,0.488,6.195,1.084L527.99,465.336z"/>
</g>
<g style="display:inline;">
	<path style="fill:#61778C;" d="M535.25,463.228c0,1.756-1.437,3.192-3.192,3.192h-30.424c-1.756,0-3.192-1.436-3.192-3.192v-4.273
		c0-1.756,1.434-3.109,3.187-3.008l30.435,1.76c1.753,0.101,3.187,1.621,3.187,3.377V463.228z"/>
</g>
<polygon style="display:inline;fill:#EFCBAB;" points="281.99,677.865 281.99,737.211 367.853,737.211 367.853,654.902 "/>
<rect x="129.708" y="473.271" style="display:inline;fill:#E0B196;" width="616.216" height="39.031"/>
<rect x="670.726" y="491.837" style="display:inline;fill:#FFE9CF;" width="75.229" height="20.593"/>
<rect x="129.708" y="472.261" style="display:inline;fill:#96725E;" width="541.916" height="19.576"/>
<g style="display:inline;">
	<g>
		
			<line style="fill:none;stroke:#5B2727;stroke-width:5.9037;stroke-linecap:round;stroke-linejoin:round;stroke-miterlimit:10;" x1="542.982" y1="396.795" x2="534.021" y2="438.042"/>
		
			<line style="fill:none;stroke:#37BCF7;stroke-width:5.9037;stroke-linecap:round;stroke-linejoin:round;stroke-miterlimit:10;" x1="505.083" y1="395.885" x2="513.417" y2="443.219"/>
		<g>
			<path style="fill:#FF506E;" d="M522.895,440.497c0.146,0.018,0.287,0.03,0.427,0.03c1.831,0,3.418-1.379,3.632-3.247l2.85-24.609
				l0.378-3.277l0.732-6.299c0.232-2.008-1.208-3.827-3.216-4.059c-2.008-0.232-3.827,1.208-4.059,3.216l-0.769,6.628l-0.372,3.21
				l-2.82,24.346C519.447,438.452,520.887,440.265,522.895,440.497z"/>
		</g>
		<path style="fill:#CFF8FF;" d="M527.259,410.628c-1.562-0.326-3.242-0.281-4.644,0.376l0.271-2.334
			c1.389-0.68,3.07-0.728,4.629-0.402c1.145,0.241,1.986,0.595,2.668,1.128l-0.27,2.337
			C529.228,411.216,528.391,410.866,527.259,410.628z"/>
		<path style="fill:#CFF8FF;" d="M519.96,422.714c-0.357,0.246,0.455-2.876,0.583-3.441c0.475-2.097,0.697-4.226,0.934-6.36
			c0.269-2.42,0.01-6.089,1.3-8.274c0.799-1.354,2.91-0.127,2.108,1.232c-0.69,1.169-0.56,3.382-0.705,4.688
			c-0.229,2.064-0.372,4.16-0.698,6.21c-0.338,2.127-0.822,4.213-1.322,6.307c-0.194,0.811-0.262,1.26-0.968,1.747
			C519.892,425.718,518.673,423.601,519.96,422.714z"/>
	</g>
	<rect x="501.833" y="420.802" style="fill:#FFE32A;" width="39.51" height="49.71"/>
	<rect x="501.833" y="420.802" style="fill:#FFAE2C;" width="19.51" height="49.71"/>
	<rect x="498.173" y="420.802" style="fill:#FFE32A;" width="46.32" height="10.454"/>
	<rect x="501.833" y="431.302" style="fill:#E58741;" width="39.51" height="5.23"/>
	<rect x="498.173" y="420.802" style="fill:#FFAE2C;" width="25.91" height="10.454"/>
	<rect x="534.173" y="420.802" style="fill:#FFFFFF;" width="5.91" height="10.454"/>
</g>
<rect x="103.865" y="463.232" style="display:inline;fill:#E0B196;" width="580.638" height="20.591"/>
<rect x="681.644" y="463.228" style="display:inline;fill:#FFE9CF;" width="96.513" height="20.593"/>
<rect x="161.636" y="729.762" style="display:inline;fill:#D36F54;" width="206.218" height="11.705"/>
<rect x="161.634" y="729.757" style="display:inline;opacity:0.68;fill:#8E7262;" width="120.351" height="11.706"/>
<path style="display:inline;fill:none;stroke:#43535B;stroke-width:5.3206;stroke-miterlimit:10;" d="M267.551,434.432
	c-0.233,15.839-1.924,26.204-13.693,26.204c-7.052,0-14.874,0-20.568,0c-2.188,0-2.702,0.897-2.805,2.592
	c-1.751,28.912,0.349,270.747,0.349,270.747c0,11.754-0.625,27.708-21.895,27.708c-21.27,0-208.939,0-208.939,0"/>
<path style="display:inline;fill:none;stroke:#303E44;stroke-width:5.3206;stroke-miterlimit:10;" d="M267.585,423.791
	c0,3.758,0.015,7.319-0.033,10.641"/>
<polygon style="display:inline;fill:#934631;" points="672.323,512.206 651.52,512.206 651.52,525.877 661.921,519.041 
	672.323,519.041 "/>
<g style="display:inline;">
	<g>
		<path style="fill:#61778C;" d="M243.905,417.459c0.08,3.498,11.891,6.332,15.391,6.332H469c3.489,0,6.266-2.833,6.185-6.332
			l-3.457-150.191c-0.08-3.493-2.988-6.331-6.477-6.331H246.633c-3.5,0-6.264,2.839-6.184,6.331L243.905,417.459z"/>
		<path style="fill:#43535B;" d="M463.697,417.458c0.089,3.504-2.693,6.33-6.178,6.33H238.9c-3.504,0-6.401-2.826-6.482-6.33
			l-3.45-150.191c-0.089-3.495,2.684-6.33,6.178-6.33h218.617c3.495,0,6.401,2.835,6.482,6.33L463.697,417.458z"/>
		<path style="opacity:0.7;fill:#A0A6BA;" d="M384.5,423.645c0,0-0.348,0.045-0.981,0.143h-69.436
			c8.782-19.676,45.863-63.986,47.236-64.334c1.783-0.446,11.929-0.446,11.929-0.446L384.5,423.645z"/>
	</g>
	<g>
		<path style="fill:#61778C;" d="M368.514,352.674h-31.35c-3.5,0-7.06,2.84-7.94,6.33l-9.12,36.72l-14.23,58.58
			c-0.34,1.36-0.23,2.63,0.25,3.66c0.73,1.62,2.35,2.67,4.48,2.67h31.37c3.48,0,7.05-2.83,7.93-6.33l5.68-23.4l1.73-7.12
			l15.93-64.78C374.134,355.514,372.014,352.674,368.514,352.674z M311.934,434.574l3.8-14.63c0.58-2.31,2.93-4.2,5.25-4.2h20.78
			c2.32,0,3.72,1.89,3.14,4.2l-3.8,14.63c-0.59,2.32-2.94,4.19-5.26,4.19h-20.78C312.744,438.764,311.344,436.894,311.934,434.574z"
			/>
		<polygon style="fill:#61778C;" points="369.404,360.611 372.071,354.111 368.738,346.778 349.904,345.444 361.238,360.111 		"/>
		<path style="fill:#506175;" d="M364.224,344.144h-31.36c-3.5,0-7.05,2.84-7.93,6.33l-24.57,101.15c-0.89,3.5,1.23,6.34,4.73,6.34
			h31.36c3.49,0,7.05-2.84,7.93-6.34l24.04-98.95l0.53-2.2C369.844,346.984,367.714,344.144,364.224,344.144z M344.904,419.944
			l-3.8,14.63c-0.59,2.32-2.94,4.19-5.26,4.19h-20.78c-2.32,0-3.72-1.87-3.13-4.19l3.8-14.63c0.58-2.31,2.93-4.2,5.25-4.2h20.78
			C344.084,415.744,345.484,417.634,344.904,419.944z"/>
	</g>
	<g>
		<path style="fill:#506175;" d="M392.161,460.035c0,1.756-1.437,3.192-3.192,3.192h-99.282c-1.756,0-3.192-1.437-3.192-3.192
			v-4.273c0-1.756,1.437-3.192,3.192-3.192h99.282c1.756,0,3.192,1.436,3.192,3.192V460.035z"/>
	</g>
	<g>
		<path style="fill:#61778C;" d="M396.418,460.035c0,1.756-1.437,3.192-3.192,3.192h-30.424c-1.756,0-3.192-1.437-3.192-3.192
			v-4.273c0-1.756,1.436-3.192,3.192-3.192h30.424c1.756,0,3.192,1.436,3.192,3.192V460.035z"/>
	</g>
</g>
<path style="display:inline;fill:#BFCBD1;" d="M319.158,432.819c-0.107,0.178-0.169,0.241-0.187,0.187
	C318.953,432.953,319.015,432.9,319.158,432.819z"/>
<polygon style="display:inline;fill:#FF4A42;" points="757.734,435.735 757.734,463.616 623.393,463.616 623.393,457.322 
	627.013,457.322 627.013,442.028 623.393,442.028 623.393,435.735 "/>
<polygon style="display:inline;fill:#E63C3D;" points="687.377,435.735 687.377,463.616 623.393,463.616 623.393,457.322 
	627.013,457.322 627.013,442.028 623.393,442.028 623.393,435.735 "/>
<rect x="625.959" y="442.03" style="display:inline;fill:#D1E0E5;" width="54.536" height="15.29"/>
<path style="display:inline;fill:#334251;" d="M317.93,437.571l3.8-14.627c0.585-2.315,2.935-4.196,5.254-4.196h18.027
	c-0.082-1.729-1.349-3-3.243-3h-20.784c-2.319,0-4.67,1.881-5.254,4.196l-3.8,14.627c-0.585,2.318,0.816,4.196,3.135,4.196h2.756
	C317.804,438.386,317.824,437.99,317.93,437.571z"/>
<path style="display:inline;fill:#492323;" d="M552.184,538.062c-1.44,0.02-2.09-0.29-3.92-0.94
	C549.513,537.442,550.813,537.752,552.184,538.062z"/>
<g style="display:inline;">
	<g>
		<g>
			<g>
				<path style="fill:#F18930;" d="M798.31,622.108"/>
				<g>
					<path style="fill:#E83434;" d="M689.041,753.52h92.154c9.997,0,13.821-6.546,13.821-16.457v-99.755
						c0-3.105-2.866-5.616-6.393-5.616h-77.375c-3.527,0-6.383,2.511-6.383,5.616l-1.936,27.076l-5.703,79.714
						C697.226,747.194,685.514,753.52,689.041,753.52z"/>
					<path style="fill:#912626;" d="M708.339,657.675h80.954c3.161,0,5.723-2.562,5.723-5.723v-21.353
						c0-3.105-2.866-5.616-6.393-5.616h-77.375c-3.527,0-6.383,2.511-6.383,5.616v23.602
						C704.865,656.12,706.42,657.675,708.339,657.675z"/>
					<g>
						<path style="fill:#912626;" d="M741.634,652.244c0,0,0,3.738,0,8.307s3.738,8.307,8.307,8.307s8.307-3.738,8.307-8.307
							s0-8.307,0-8.307"/>
					</g>
					<polygon style="fill:#912626;" points="713.182,692.765 700.83,708.473 689.044,753.52 714.68,753.52 721.225,722.69 					"/>
					<path style="fill:#B8CC27;" d="M669.134,612.494v34.456c0,3.096,2.866,3.616,6.393,3.616h119.269
						c3.527,0,6.393-0.521,6.393-3.616v-15.258c0-0.729-0.029-1.438-0.086-2.128c-1.974-24.498-38.098-22.686-38.098-22.686h-87.477
						C672,606.878,669.134,609.389,669.134,612.494z"/>
					<path style="fill:#85A520;" d="M711.216,649.691h83.58c3.527,0,6.393-2.521,6.393-5.616v2.875c0,3.096-2.866,5.616-6.393,5.616
						h-83.58c-3.527,0-6.393-2.521-6.393-5.616v-2.875C704.823,647.171,707.689,649.691,711.216,649.691z"/>
					<path style="fill:#D5E22B;" d="M669.134,612.628v16.936h131.968c-0.671-8.31-5.262-13.591-11.041-16.936H669.134z"/>
					<path style="fill:#912626;" d="M713.849,652.563c-5.511,0-8.945-2.316-8.945-9.265c0-6.949-13.658,10.543-13.658,10.543
						l13.179,1.917l8.626-0.719L713.849,652.563z"/>
					<path style="fill:#B23232;" d="M704.864,645.135v91.779c0,7.66-2,16.61-14.37,16.61h-11.27c-0.52,0-1.01-0.02-1.49-0.07
						c-9.73-0.79-11.06-9.51-11.06-15.91v-122.88c0-3.08,2.8-5.57,6.23-5.61c0.23-0.01,0.46,0,0.7,0.02
						c10.37,0.83,27.599,4.851,29.729,21.561C703.464,631.665,704.864,644.005,704.864,645.135z"/>
					<path style="fill:#912626;" d="M689.634,753.454h-11.9c-9.73-0.79-11.06-9.51-11.06-15.91v-31.47
						c6.74-1.15,15.24-0.09,15.54-0.09c0.68,0,16.88,16.8,16.88,16.8C699.094,736.354,700.214,753.454,689.634,753.454z"/>
				</g>
				<g>
					<path style="fill:#E83434;" d="M805.774,709.724v32.35c0,1.21-0.07,2.48-0.29,3.7c-0.72,4.09-3.04,7.75-9.61,7.75h-76.83
						l-0.67-7.75l-2.82-32.51l-1.79-20.5h70.48C791.824,693.374,805.774,696.324,805.774,709.724z"/>
					<path style="fill:#242D38;" d="M805.484,745.774c-0.72,4.09-3.04,7.75-9.61,7.75h-76.83l-0.67-7.75H805.484z"/>
					<path style="fill:#B8CC27;" d="M713.965,695.547l12.066,20.093c0.096,1.362,1.229,2.417,2.594,2.417h79.337
						c1.436,0,2.6-1.164,2.6-2.6v-5.729c0-13.342-13.807-16.322-21.413-16.955c-0.077-0.006-0.152-0.009-0.23-0.009h-75.15
						C712.261,692.764,713.859,694.042,713.965,695.547z"/>
					<path style="fill:#B23232;" d="M734.709,709.728v32.348c0,5.281-1.371,11.444-9.891,11.444h-21.047
						c8.549,0,9.268-9.948,9.412-14.856c0.086-3.182,0.057-21.517,0.029-34.025c-0.01-6.795-0.029-11.875-0.029-11.875
						c6.508,0.527,17.703,2.77,20.75,11.875C734.431,706.144,734.709,707.831,734.709,709.728z"/>
				</g>
				<path style="fill:#76E2FF;" d="M695.984,678.762v37.08c0,0.18,0,0.36-0.02,0.54c-0.13,3.56-1.63,6.76-3.98,9.11
					c-2.47,2.47-5.88,4-9.65,4c-7.36,0-13.35-5.82-13.63-13.11c-0.02-0.18-0.02-0.36-0.02-0.54v-37.08
					c0-7.54,6.11-13.65,13.65-13.65S695.984,671.222,695.984,678.762z"/>
				<rect x="676.083" y="663.552" style="fill:#76E2FF;" width="12.5" height="12.5"/>
				<rect x="675.089" y="663.385" style="fill:#76E2FF;" width="14.489" height="2.494"/>
				<path style="fill:#EF8935;" d="M686.449,651.719h-8.231c-1.728,0-3.129,1.401-3.129,3.129v8.699h14.489v-8.699
					C689.578,653.12,688.177,651.719,686.449,651.719z"/>
				<path style="fill:#EF8935;" d="M695.984,685.382v30.46c0,0.18,0,0.36-0.02,0.54h-27.26c-0.02-0.18-0.02-0.36-0.02-0.54v-30.46
					H695.984z"/>
				<polygon style="fill:#F7AE1E;" points="695.984,685.382 695.984,709.622 679.083,706.302 689.013,685.382 				"/>
				<path style="opacity:0.4;fill:#766EB7;" d="M677.467,716.382c-0.014-0.18-0.014-0.36-0.014-0.54v-37.08
					c0-5.285,2.177-9.858,5.357-12.127v-0.756h-0.72v-2.333v-0.161v-8.538c0-1.728,1.014-3.129,2.265-3.129h-6.136
					c-1.728,0-3.129,1.401-3.129,3.129v8.538v0.161v2.333h0.994v0.756c-4.392,2.268-7.4,6.841-7.4,12.127v37.08
					c0,0.18,0,0.36,0.02,0.54c0.28,7.29,6.27,13.11,13.63,13.11c0.997,0,1.967-0.113,2.903-0.317
					C680.911,727.883,677.643,722.686,677.467,716.382z"/>
			</g>
			<path style="fill:#E83434;" d="M743.84,717.997c-6.549,0-9.105-1.438-9.105-6.709v20.031L743.84,717.997z"/>
			<path style="fill:#B23232;" d="M699.329,705.157v29.306c0,5.496-1.436,11.906-10.299,11.906h-13.505
				c-7.949,0-8.993-6.644-8.993-11.453v-29.759H699.329z"/>
			<path style="fill:#E83434;" d="M699.321,704.861v23.244c0,4.229-1.105,9.161-7.924,9.161h-2.042c-6.116,0-6.92-5.112-6.92-8.812
				v-23.593H699.321z"/>
			<polygon style="fill:#B23232;" points="666.506,704.929 699.474,704.929 699.474,714.573 666.506,720.903 			"/>
			
				<rect x="666.506" y="702.819" transform="matrix(-1 -1.224647e-16 1.224647e-16 -1 1365.9802 1415.2822)" style="fill:#D1DAF2;" width="32.968" height="9.645"/>
			
				<rect x="682.541" y="702.819" transform="matrix(-1 5.905663e-05 -5.905663e-05 -1 1382.0573 1415.292)" style="fill:#E9F0FF;" width="16.933" height="9.695"/>
			<path style="fill:#F18930;" d="M744.353,652.519c0,0,0,3.029,0,7.073c0,3.834,3.355,7.006,7.591,7.323
				c0.23,0.019,0.47,0.029,0.709,0.029c0.345,0,0.69-0.019,1.026-0.057c4.092-0.45,7.284-3.556,7.284-7.294v-5.396
				c0-1.054,0-1.677,0-1.677H744.353z"/>
			<path style="fill:#DFDDDE;" d="M751.954,666.534c-3.27-0.98-5.63-3.73-5.63-6.94c0-4.05,0-7.08,0-7.08h14.64c0,0,0,0.63,0,1.68
				v5.4c0,0.23-0.01,0.47-0.04,0.69c-0.02,0.23-0.06,0.46-0.11,0.68c-0.04,0.2-0.09,0.4-0.15,0.59s-0.13,0.38-0.21,0.57
				c-0.04,0.1-0.09,0.2-0.14,0.29c0,0.01,0,0.02-0.01,0.03c-0.06,0.14-0.13,0.28-0.21,0.41c-0.1,0.18-0.22,0.37-0.34,0.54
				c-0.14,0.21-0.3,0.41-0.47,0.61c-0.11,0.14-0.24,0.27-0.37,0.4c-0.14,0.15-0.29,0.29-0.44,0.42c-0.16,0.14-0.32,0.27-0.49,0.39
				c-0.03,0.03-0.05,0.05-0.08,0.06c-0.17,0.13-0.35,0.25-0.54,0.36c-0.03,0.02-0.05,0.04-0.08,0.06c-0.2,0.12-0.41,0.23-0.63,0.34
				c-0.11,0.05-0.22,0.1-0.33,0.14c-0.15,0.07-0.3,0.14-0.46,0.19c-0.39,0.15-0.79,0.27-1.21,0.36c-0.32,0.07-0.65,0.13-0.99,0.16
				L751.954,666.534z"/>
			<path style="fill:#E9F0FF;" d="M751.954,666.534c0.2-9.04,5.14-11.57,9.01-12.34v5.4c0,0.23-0.01,0.46-0.04,0.69
				c0,0.07-0.01,0.14-0.03,0.22c-0.02,0.15-0.04,0.3-0.08,0.46c-0.04,0.18-0.08,0.36-0.14,0.54c-0.1,0.32-0.22,0.64-0.37,0.94
				c-0.06,0.14-0.13,0.28-0.21,0.41c-0.23,0.4-0.5,0.79-0.81,1.15c-0.11,0.14-0.24,0.28-0.37,0.4c-0.78,0.8-1.74,1.44-2.83,1.87
				c-0.07,0.04-0.15,0.07-0.22,0.09c-0.19,0.08-0.39,0.14-0.59,0.2c-0.16,0.05-0.32,0.09-0.49,0.13c-0.16,0.04-0.33,0.08-0.5,0.11
				c-0.2,0.03-0.41,0.06-0.62,0.08L751.954,666.534z"/>
		</g>
		<path style="fill:#85A520;" d="M704.662,628.513h-37.983v-15.776c0-3.086,2.799-5.569,6.22-5.617c0.23-0.01,0.47,0,0.709,0.019
			C683.969,607.974,702.534,611.807,704.662,628.513z"/>
		<path style="fill:#242D38;" d="M733.933,704.639h-20.721c-0.01-6.795-0.029-11.875-0.029-11.875
			C719.69,693.291,730.885,695.534,733.933,704.639z"/>
	</g>
	<path style="fill:#242D38;" d="M700.296,628.513h-29.685v-12.33c0-2.412,2.187-4.352,4.861-4.39c0.18-0.008,0.367,0,0.554,0.015
		C684.124,612.461,698.633,615.457,700.296,628.513z"/>
	<g>
		<g>
			<path style="fill:#912626;" d="M740.235,718.078c0,0,0,2.659,0,5.91c0,3.25,2.659,5.91,5.91,5.91c3.25,0,5.91-2.659,5.91-5.91
				c0-3.251,0-5.91,0-5.91"/>
		</g>
		<path style="fill:#F18930;" d="M742.169,718.078c0,0,0,2.35,0,5.228c0,2.728,2.387,4.985,5.401,5.21
			c0.164,0.014,0.334,0.02,0.505,0.02c0.245,0,0.491-0.014,0.73-0.041c2.912-0.32,5.182-2.53,5.182-5.189l0-3.839
			c0-0.75,0-1.389,0-1.389H742.169z"/>
		<path style="fill:#DFDDDE;" d="M747.578,728.245c-2.326-0.697-4.006-2.654-4.006-4.938c0-2.882,0-5.229,0-5.229h10.416
			c0,0,0,0.641,0,1.388l0,3.842c0,0.164-0.007,0.334-0.029,0.491c-0.014,0.164-0.043,0.327-0.078,0.484
			c-0.028,0.142-0.064,0.285-0.107,0.42c-0.043,0.135-0.092,0.27-0.149,0.406c-0.028,0.071-0.064,0.142-0.1,0.206
			c0,0.007,0,0.014-0.007,0.021c-0.043,0.1-0.092,0.199-0.149,0.292c-0.071,0.128-0.156,0.263-0.242,0.384
			c-0.1,0.149-0.213,0.292-0.334,0.434c-0.078,0.1-0.171,0.192-0.263,0.285c-0.1,0.107-0.206,0.206-0.313,0.299
			c-0.114,0.1-0.228,0.192-0.349,0.277c-0.021,0.021-0.036,0.036-0.057,0.043c-0.121,0.093-0.249,0.178-0.384,0.256
			c-0.021,0.014-0.036,0.029-0.057,0.043c-0.142,0.085-0.292,0.164-0.448,0.242c-0.078,0.036-0.156,0.071-0.235,0.1
			c-0.107,0.05-0.214,0.1-0.327,0.135c-0.278,0.107-0.562,0.192-0.861,0.256c-0.228,0.05-0.463,0.093-0.704,0.114L747.578,728.245z"
			/>
		<path style="fill:#E9F0FF;" d="M747.578,728.245c0.142-6.432,3.657-8.232,6.41-8.78l0,3.842c0,0.164-0.007,0.327-0.029,0.491
			c0,0.05-0.007,0.1-0.021,0.157c-0.014,0.107-0.028,0.213-0.057,0.327c-0.028,0.128-0.057,0.256-0.1,0.384
			c-0.071,0.228-0.156,0.455-0.263,0.669c-0.043,0.1-0.092,0.199-0.149,0.292c-0.164,0.285-0.356,0.562-0.576,0.818
			c-0.078,0.1-0.171,0.199-0.263,0.285c-0.555,0.569-1.238,1.025-2.013,1.331c-0.05,0.029-0.107,0.05-0.156,0.064
			c-0.135,0.057-0.278,0.1-0.42,0.142c-0.114,0.036-0.228,0.064-0.349,0.093c-0.114,0.029-0.235,0.057-0.356,0.078
			c-0.142,0.021-0.292,0.043-0.441,0.057L747.578,728.245z"/>
	</g>
	<g>
		<g>
			<path style="fill:#912626;" d="M792.235,718.078c0,0,0,2.659,0,5.91c0,3.25,2.659,5.91,5.91,5.91c3.25,0,5.91-2.659,5.91-5.91
				c0-3.251,0-5.91,0-5.91"/>
		</g>
		<path style="fill:#F18930;" d="M794.169,718.078c0,0,0,2.35,0,5.228c0,2.728,2.387,4.985,5.401,5.21
			c0.164,0.014,0.334,0.02,0.505,0.02c0.245,0,0.491-0.014,0.73-0.041c2.912-0.32,5.182-2.53,5.182-5.189l0-3.839
			c0-0.75,0-1.389,0-1.389H794.169z"/>
		<path style="fill:#DFDDDE;" d="M799.578,728.245c-2.326-0.697-4.006-2.654-4.006-4.938c0-2.882,0-5.229,0-5.229h10.416
			c0,0,0,0.641,0,1.388l0,3.842c0,0.164-0.007,0.334-0.029,0.491c-0.014,0.164-0.043,0.327-0.078,0.484
			c-0.028,0.142-0.064,0.285-0.107,0.42c-0.043,0.135-0.092,0.27-0.149,0.406c-0.028,0.071-0.064,0.142-0.1,0.206
			c0,0.007,0,0.014-0.007,0.021c-0.043,0.1-0.092,0.199-0.149,0.292c-0.071,0.128-0.156,0.263-0.242,0.384
			c-0.1,0.149-0.213,0.292-0.334,0.434c-0.078,0.1-0.171,0.192-0.263,0.285c-0.1,0.107-0.206,0.206-0.313,0.299
			c-0.114,0.1-0.228,0.192-0.349,0.277c-0.021,0.021-0.036,0.036-0.057,0.043c-0.121,0.093-0.249,0.178-0.384,0.256
			c-0.021,0.014-0.036,0.029-0.057,0.043c-0.142,0.085-0.292,0.164-0.448,0.242c-0.078,0.036-0.156,0.071-0.235,0.1
			c-0.107,0.05-0.214,0.1-0.327,0.135c-0.278,0.107-0.562,0.192-0.861,0.256c-0.228,0.05-0.463,0.093-0.704,0.114L799.578,728.245z"
			/>
		<path style="fill:#E9F0FF;" d="M799.578,728.245c0.142-6.432,3.657-8.232,6.41-8.78l0,3.842c0,0.164-0.007,0.327-0.029,0.491
			c0,0.05-0.007,0.1-0.021,0.157c-0.014,0.107-0.028,0.213-0.057,0.327c-0.028,0.128-0.057,0.256-0.1,0.384
			c-0.071,0.228-0.156,0.455-0.263,0.669c-0.043,0.1-0.092,0.199-0.149,0.292c-0.164,0.285-0.356,0.562-0.576,0.818
			c-0.078,0.1-0.171,0.199-0.263,0.285c-0.555,0.569-1.238,1.025-2.013,1.331c-0.05,0.029-0.107,0.05-0.156,0.064
			c-0.135,0.057-0.278,0.1-0.42,0.142c-0.114,0.036-0.228,0.064-0.349,0.093c-0.114,0.029-0.235,0.057-0.356,0.078
			c-0.142,0.021-0.292,0.043-0.441,0.057L799.578,728.245z"/>
	</g>
	<path style="fill:#912626;" d="M713.039,731.819c0,10.5-0.875,21.625,12.75,21.625h-23.25l7.625-11.125L713.039,731.819z"/>
</g>
<path style="display:inline;fill:#FFFFFF;" d="M688.511,670.284c-0.986-0.438-2.149-0.287-2.736,0.718
	c-0.498,0.852-0.275,2.296,0.717,2.736c1.179,0.523,2.095,1.503,2.182,2.817c0.071,1.078,0.868,2,2,2c1.027,0,2.072-0.917,2-2
	C692.499,673.897,691,671.388,688.511,670.284z"/>
<path style="display:inline;fill:#85A520;" d="M704.904,643.533c0-0.217-0.013-0.411-0.039-0.581v-11.023c0-1.13-0.07-2.22-0.2-3.25
	c-1.546-12.123-11.739-17.464-21.179-19.802h-3.334c-0.285,0-0.564,0.022-0.839,0.054c9.383,2.363,19.442,7.71,20.977,19.748
	c0.13,1.03,0.2,2.12,0.2,3.25v11.023c0.026,0.171,0.039,0.364,0.039,0.581c0,5.729,2.338,8.304,6.246,9.033h8.184
	C709.958,652.052,704.904,649.262,704.904,643.533z"/>
</svg>
