<?xml version="1.0" encoding="utf-8"?>
<!-- Generator: Adobe Illustrator 27.5.0, SVG Export Plug-In . SVG Version: 6.00 Build 0)  -->
<svg version="1.1" xmlns="http://www.w3.org/2000/svg" xmlns:xlink="http://www.w3.org/1999/xlink" x="0px" y="0px"
	 viewBox="0 0 500 500" style="enable-background:new 0 0 500 500;" xml:space="preserve">
<g id="BACKGROUND">
	<rect y="0.001" style="fill-rule:evenodd;clip-rule:evenodd;fill:#FCFCFC;" width="500" height="500"/>
</g>
<g id="OBJECTS">
	<g>
		<path style="fill-rule:evenodd;clip-rule:evenodd;fill:#D3D0E7;" d="M88.044,420.902c-42.35,0-76.998-34.65-76.998-76.999l0,0
			c0-42.35,34.649-76.999,76.998-76.999h0.001c17.906,0,32.556-14.65,32.556-32.557l0,0c0-17.906-14.65-32.557-32.557-32.557h-3.874
			c-18.617,0-33.848-15.232-33.848-33.848l0,0c0-18.617,15.231-33.849,33.848-33.849h11.886c7.248,0,13.178-5.93,13.178-13.178l0,0
			c0-7.248-5.93-13.178-13.178-13.178h-8.733c-5.002,0-9.095-4.092-9.095-9.094v-0.001c0-5.002,4.093-9.094,9.095-9.094h58.713
			c7.86,0,14.29-6.431,14.29-14.291l0,0c0-7.86-6.43-14.29-14.29-14.29h-17.555c-5.002,0-9.095-4.093-9.095-9.095l0,0
			c0-5.002,4.093-9.095,9.095-9.095h257.119c6.526,0,11.867,5.341,11.867,11.868v0c0,6.526-5.342,11.867-11.867,11.867h-4.913
			c-10.256,0-18.647,8.392-18.647,18.647v0c0,10.255,8.392,18.647,18.647,18.647h56.559c6.526,0,11.866,5.341,11.866,11.867v0.001
			c0,6.527-5.341,11.867-11.866,11.867h-11.398c-9.456,0-17.194,7.738-17.194,17.195l0,0c0,9.457,7.738,17.195,17.194,17.195h15.511
			c24.292,0,44.168,19.875,44.168,44.168l0,0c0,24.293-19.876,44.168-44.168,44.168h-5.057c-23.365,0-42.482,19.117-42.482,42.482
			l0,0c0,23.365,19.117,42.483,42.482,42.483h10.949c23.559,0,42.834,19.274,42.834,42.833l0,0
			c0,23.559-19.275,42.834-42.834,42.834C325.364,420.902,209.928,420.902,88.044,420.902L88.044,420.902z M415.965,66.514
			c6.554,0,11.867-5.314,11.867-11.868c0-6.555-5.314-11.868-11.867-11.868c-6.556,0-11.868,5.313-11.868,11.868
			C404.097,61.2,409.409,66.514,415.965,66.514L415.965,66.514z M61.799,107.738c5.023,0,9.095-4.072,9.095-9.095
			c0-5.023-4.072-9.095-9.095-9.095c-5.023,0-9.095,4.071-9.095,9.095C52.704,103.666,56.776,107.738,61.799,107.738z"/>
		<path style="fill-rule:evenodd;clip-rule:evenodd;fill:#383260;" d="M453.638,420.399H65.645c-3.987,0-7.249,3.262-7.249,7.25l0,0
			c0,3.986,3.262,7.249,7.249,7.249h22.795c4.09,0,7.437,3.346,7.437,7.435l0,0c0,4.09-3.347,7.436-7.437,7.436h-2.461
			c-2.54,0-4.619,2.08-4.619,4.62l0,0c0,2.541,2.079,4.619,4.619,4.619c98.702,0,214.552,0,313.254,0
			c4.152,0,7.549-3.397,7.549-7.549l0,0c0-4.151-3.397-7.549-7.549-7.549h-2.066c-2.479,0-4.507-2.027-4.507-4.506v-0.001
			c0-2.478,2.028-4.506,4.507-4.506h56.472c3.986,0,7.248-3.263,7.248-7.249l0,0C460.886,423.661,457.624,420.399,453.638,420.399
			L453.638,420.399z M420.471,459.008c-4.12,0-7.492-3.372-7.492-7.492v-0.112c0-4.121,3.372-7.493,7.492-7.493l0,0
			c4.122,0,7.493,3.371,7.493,7.493v0.112C427.964,455.637,424.593,459.008,420.471,459.008L420.471,459.008z"/>
		<g>
			<g>
				<path style="fill-rule:evenodd;clip-rule:evenodd;fill:#87A8A6;" d="M401.817,213.601c0.115-0.298,0.45-0.446,0.748-0.331
					c0.298,0.114,0.446,0.45,0.331,0.748c-0.007,0.019-2.54,6.672-5.528,8.001c-0.292,0.129-0.634-0.003-0.762-0.295
					c-0.13-0.292,0.002-0.633,0.294-0.762C399.441,219.833,401.811,213.618,401.817,213.601z"/>
				<path style="fill-rule:evenodd;clip-rule:evenodd;fill:#87A8A6;" d="M360.118,179.32c-0.126-0.294,0.012-0.634,0.307-0.76
					c0.294-0.125,0.634,0.012,0.76,0.306c0.003,0.009,1.378,3.316,3.251,5.152c0.23,0.224,0.231,0.59,0.008,0.818
					c-0.225,0.228-0.592,0.232-0.818,0.007C361.581,182.84,360.122,179.33,360.118,179.32z"/>
				<path style="fill-rule:evenodd;clip-rule:evenodd;fill:#87A8A6;" d="M356.467,268.447c-0.121-0.297,0.02-0.634,0.315-0.756
					c0.296-0.121,0.634,0.02,0.756,0.316c0.006,0.018,2.67,6.581,5.738,9.021c0.251,0.199,0.292,0.564,0.093,0.814
					c-0.199,0.25-0.564,0.292-0.814,0.093C359.249,275.306,356.475,268.465,356.467,268.447z"/>
			</g>
			<path style="fill-rule:evenodd;clip-rule:evenodd;fill:#FFFFFF;" d="M388.204,324.226c0,4.488-3.639,8.128-8.128,8.128
				c-4.489,0-8.128-3.64-8.128-8.128V200.421c0-32.818-13.432-62.659-35.071-84.299c-21.639-21.639-51.48-35.07-84.298-35.07
				c-32.818,0-62.659,13.431-84.298,35.07c-21.639,21.64-35.071,51.481-35.071,84.299v123.805c0,4.488-3.639,8.128-8.128,8.128
				c-4.489,0-8.128-3.64-8.128-8.128V200.421c0-37.306,15.255-71.214,39.834-95.792c24.578-24.578,58.486-39.834,95.792-39.834
				c37.305,0,71.214,15.255,95.792,39.834c24.577,24.578,39.833,58.486,39.833,95.792V324.226z"/>
			<path style="fill-rule:evenodd;clip-rule:evenodd;fill:#E3E1F1;" d="M375.432,312.396V200.421
				c0-16.568-3.322-32.394-9.333-46.844c-6.249-15.021-15.406-28.564-26.759-39.917c-11.353-11.353-24.896-20.509-39.917-26.757
				c-14.45-6.011-30.277-9.333-46.844-9.333c-16.567,0-32.394,3.322-46.845,9.333c-15.021,6.249-28.564,15.405-39.917,26.757
				c-22.269,22.269-36.091,52.981-36.091,86.762v111.975h-2.322V200.421c0-34.421,14.083-65.715,36.771-88.403
				c11.56-11.56,25.359-20.888,40.671-27.257c14.732-6.128,30.859-9.515,47.733-9.515c16.874,0,33.001,3.388,47.732,9.515
				c15.311,6.369,29.11,15.697,40.67,27.257c11.561,11.56,20.888,25.359,27.257,40.67c6.128,14.732,9.516,30.858,9.516,47.733
				v111.975H375.432L375.432,312.396z M120.437,312.396h2.322V200.421c0-17.51,3.51-34.236,9.861-49.508
				c6.602-15.874,16.277-30.185,28.271-42.179c11.995-11.995,26.306-21.669,42.18-28.271c15.271-6.352,31.998-9.862,49.507-9.862
				c17.509,0,34.235,3.51,49.507,9.862c15.874,6.602,30.185,16.276,42.18,28.271c11.994,11.994,21.67,26.305,28.272,42.179
				c6.35,15.271,9.861,31.998,9.861,49.508v111.975h2.322V200.421c0-17.817-3.575-34.844-10.043-50.396
				c-6.724-16.164-16.568-30.73-28.77-42.933c-12.202-12.202-26.769-22.047-42.933-28.77c-15.554-6.468-32.58-10.044-50.396-10.044
				c-17.817,0-34.844,3.575-50.396,10.044c-16.164,6.722-30.73,16.567-42.933,28.77c-12.202,12.202-22.047,26.769-28.77,42.933
				c-6.468,15.553-10.043,32.579-10.043,50.396V312.396z"/>
			<path style="fill-rule:evenodd;clip-rule:evenodd;fill:#FFFFFF;" d="M112.29,429.001h25.582c2.346,0,4.264-1.919,4.264-4.264
				V313.135c0-2.346-1.919-4.265-4.264-4.265H112.29c-2.345,0-4.264,1.919-4.264,4.265v111.602
				C108.026,427.082,109.945,429.001,112.29,429.001z"/>
			<path style="fill-rule:evenodd;clip-rule:evenodd;fill:#FFFFFF;" d="M367.285,429.001h25.582c2.346,0,4.264-1.919,4.264-4.264
				V313.135c0-2.346-1.918-4.265-4.264-4.265h-25.582c-2.345,0-4.264,1.919-4.264,4.265v111.602
				C363.021,427.082,364.94,429.001,367.285,429.001z"/>
			<polygon style="fill-rule:evenodd;clip-rule:evenodd;fill:#E3E1F1;" points="133.209,295.542 116.954,300.391 116.954,308.871 
				133.209,308.871 			"/>
			<polygon style="fill-rule:evenodd;clip-rule:evenodd;fill:#E3E1F1;" points="388.204,295.542 371.948,300.391 371.948,308.871 
				388.204,308.871 			"/>
			<g>
				<path style="fill-rule:evenodd;clip-rule:evenodd;fill:#E3E1F1;" d="M135.527,315.642L135.527,315.642
					c0.639,0,1.161,0.523,1.161,1.161v97.354c0,0.639-0.522,1.161-1.161,1.161l0,0c-0.639,0-1.161-0.522-1.161-1.161v-97.354
					C134.366,316.165,134.889,315.642,135.527,315.642z"/>
				<path style="fill-rule:evenodd;clip-rule:evenodd;fill:#E3E1F1;" d="M125.082,315.642L125.082,315.642
					c0.639,0,1.161,0.523,1.161,1.161v97.354c0,0.639-0.522,1.161-1.161,1.161l0,0c-0.639,0-1.161-0.522-1.161-1.161v-97.354
					C123.92,316.165,124.443,315.642,125.082,315.642z"/>
				<path style="fill-rule:evenodd;clip-rule:evenodd;fill:#E3E1F1;" d="M114.636,315.642L114.636,315.642
					c0.639,0,1.162,0.523,1.162,1.161v97.354c0,0.639-0.523,1.161-1.162,1.161l0,0c-0.638,0-1.161-0.522-1.161-1.161v-97.354
					C113.475,316.165,113.998,315.642,114.636,315.642z"/>
			</g>
			<g>
				<path style="fill-rule:evenodd;clip-rule:evenodd;fill:#E3E1F1;" d="M390.521,315.642L390.521,315.642
					c0.64,0,1.161,0.523,1.161,1.161v97.354c0,0.639-0.521,1.161-1.161,1.161l0,0c-0.638,0-1.16-0.522-1.16-1.161v-97.354
					C389.361,316.165,389.884,315.642,390.521,315.642z"/>
				<path style="fill-rule:evenodd;clip-rule:evenodd;fill:#E3E1F1;" d="M380.076,315.642L380.076,315.642
					c0.639,0,1.161,0.523,1.161,1.161v97.354c0,0.639-0.523,1.161-1.161,1.161l0,0c-0.639,0-1.161-0.522-1.161-1.161v-97.354
					C378.915,316.165,379.438,315.642,380.076,315.642z"/>
				<path style="fill-rule:evenodd;clip-rule:evenodd;fill:#E3E1F1;" d="M369.63,315.642L369.63,315.642
					c0.64,0,1.162,0.523,1.162,1.161v97.354c0,0.639-0.522,1.161-1.162,1.161l0,0c-0.639,0-1.16-0.522-1.16-1.161v-97.354
					C368.47,316.165,368.991,315.642,369.63,315.642z"/>
			</g>
			<path style="fill-rule:evenodd;clip-rule:evenodd;fill:#6F8C8A;" d="M368.849,175.944c0.164-0.097,0.337-0.163,0.513-0.201
				c0.257,1.206,0.494,2.419,0.714,3.639c-1.036,0.698-1.786,1.499-2.292,2.362c-6.186,10.578,13.429,18.379,19.529,22.1
				c14.757,9.002,14.051,31.861,0.892,41.824v-4.691c9.175-9.193,9.106-26.863-2.66-34.04c-7.462-4.552-28.506-13.771-20.74-27.048
				C365.686,178.381,367.007,177.035,368.849,175.944L368.849,175.944z M371.948,260.19c-1.634,1.955-3.103,3.999-4.292,6.104
				c-4.272,7.558-4.791,16.001,4.292,23.876v4.097c-0.371,0-0.745-0.122-1.062-0.374c-12.028-9.6-11.524-20.06-6.238-29.412
				c1.917-3.392,4.485-6.617,7.3-9.579V260.19z"/>
			<path style="fill-rule:evenodd;clip-rule:evenodd;fill:#9FBBC1;" d="M369.081,195.295c-0.441-0.299-0.962-0.573-1.441-0.803
				c-1.083-0.52-2.252-0.92-3.439-1.115c-3.731-0.613-6.624,0.961-8.479,4.23c-0.145,0.256-0.092,0.571,0.13,0.766
				c2.824,2.479,6.073,3.016,9.397,1.212c1.057-0.574,2.029-1.335,2.883-2.182c0.376-0.374,0.778-0.804,1.097-1.231
				c0.104-0.14,0.143-0.298,0.113-0.47C369.313,195.531,369.225,195.393,369.081,195.295z"/>
			<path style="fill-rule:evenodd;clip-rule:evenodd;fill:#9FBBC1;" d="M387.314,205.966c-0.401-0.352-0.796-0.788-1.139-1.193
				c-0.773-0.919-1.454-1.951-1.94-3.051c-1.527-3.46-0.728-6.655,1.972-9.268c0.213-0.205,0.53-0.233,0.774-0.067
				c3.107,2.114,4.44,5.126,3.526,8.795c-0.291,1.167-0.785,2.3-1.39,3.337c-0.27,0.458-0.585,0.955-0.918,1.371
				c-0.109,0.136-0.254,0.213-0.427,0.228C387.6,206.132,387.444,206.081,387.314,205.966z"/>
			<path style="fill-rule:evenodd;clip-rule:evenodd;fill:#9FBBC1;" d="M395.485,224.256c-0.015-0.533-0.096-1.115-0.189-1.638
				c-0.211-1.183-0.568-2.366-1.102-3.443c-1.68-3.388-4.648-4.819-8.383-4.417c-0.294,0.032-0.519,0.258-0.547,0.552
				c-0.365,3.74,1.096,6.692,4.501,8.338c1.083,0.523,2.27,0.869,3.454,1.067c0.523,0.087,1.106,0.164,1.64,0.172
				c0.175,0.003,0.326-0.059,0.448-0.183C395.431,224.582,395.491,224.43,395.485,224.256z"/>
			<path style="fill-rule:evenodd;clip-rule:evenodd;fill:#9FBBC1;" d="M393.718,237.475c0.131-0.517,0.336-1.068,0.541-1.559
				c0.461-1.108,1.067-2.186,1.822-3.122c2.374-2.943,5.582-3.696,9.141-2.494c0.279,0.094,0.45,0.365,0.414,0.658
				c-0.454,3.73-2.522,6.295-6.201,7.164c-1.171,0.276-2.404,0.356-3.605,0.293c-0.529-0.028-1.115-0.081-1.638-0.188
				c-0.17-0.034-0.305-0.128-0.397-0.275C393.702,237.806,393.677,237.644,393.718,237.475z"/>
			<path style="fill-rule:evenodd;clip-rule:evenodd;fill:#9FBBC1;" d="M366.301,262.863c-0.345-0.406-0.673-0.895-0.953-1.346
				c-0.632-1.021-1.155-2.141-1.477-3.3c-1.011-3.643,0.244-6.689,3.295-8.884c0.239-0.172,0.558-0.153,0.775,0.046
				c2.767,2.542,3.65,5.716,2.213,9.214c-0.456,1.111-1.109,2.161-1.859,3.1c-0.332,0.415-0.715,0.86-1.107,1.223
				c-0.128,0.119-0.28,0.174-0.455,0.163C366.56,263.069,366.414,262.996,366.301,262.863z"/>
			<path style="fill-rule:evenodd;clip-rule:evenodd;fill:#9FBBC1;" d="M364.474,279.826c0.532,0.026,1.119-0.01,1.648-0.063
				c1.195-0.119,2.402-0.384,3.518-0.834c3.507-1.414,5.162-4.263,5.047-8.018c-0.008-0.295-0.218-0.537-0.508-0.588
				c-3.701-0.65-6.757,0.578-8.659,3.847c-0.605,1.039-1.041,2.196-1.33,3.361c-0.128,0.517-0.248,1.092-0.298,1.622
				c-0.017,0.174,0.033,0.329,0.147,0.461C364.152,279.746,364.3,279.817,364.474,279.826z"/>
			<path style="fill-rule:evenodd;clip-rule:evenodd;fill:#9FBBC1;" d="M365.982,287.392c-0.495,0.195-1.064,0.351-1.58,0.47
				c-1.171,0.272-2.398,0.408-3.6,0.341c-3.775-0.213-6.257-2.378-7.357-5.972c-0.086-0.282,0.033-0.577,0.293-0.72
				c3.295-1.805,6.584-1.623,9.436,0.86c0.907,0.789,1.691,1.745,2.34,2.756c0.286,0.447,0.585,0.954,0.803,1.44
				c0.071,0.159,0.074,0.322,0.009,0.483C366.26,287.212,366.145,287.328,365.982,287.392z"/>
			<g>
				<path style="fill-rule:evenodd;clip-rule:evenodd;fill:#A75268;" d="M357.067,175.261c0,0,0.4-2.789,1.997-3.528
					c1.595-0.739,5.381,6.393,2.364,8.825c-3.018,2.432-8.059-1.952-8.729-3.01C352.03,176.49,355.122,174.774,357.067,175.261z"/>
				<path style="fill-rule:evenodd;clip-rule:evenodd;fill:#C37584;" d="M360.057,174.229c0,0,2.059-1.924,3.766-1.501
					c1.707,0.423,0.194,8.355-3.681,8.362c-3.875,0.008-5.062-6.566-4.923-7.811C355.359,172.034,358.845,172.631,360.057,174.229z"
					/>
				<path style="fill-rule:evenodd;clip-rule:evenodd;fill:#D48F9E;" d="M358.226,174.783c0,0,1.053-2.613,2.779-2.952
					c1.726-0.337,3.705,7.49,0.196,9.134c-3.508,1.645-7.361-3.813-7.762-5C353.041,174.778,356.452,173.847,358.226,174.783z"/>
			</g>
			<g>
				<path style="fill-rule:evenodd;clip-rule:evenodd;fill:#A75268;" d="M403.461,209.479c0,0,2.418-1.446,3.997-0.671
					c1.579,0.775-1.575,8.207-5.365,7.395c-3.789-0.812-3.559-7.488-3.158-8.675C399.335,206.34,402.614,207.661,403.461,209.479z"
					/>
				<path style="fill-rule:evenodd;clip-rule:evenodd;fill:#C37584;" d="M406.146,211.151c0,0,2.79,0.387,3.537,1.98
					c0.746,1.592-6.366,5.413-8.813,2.408c-2.446-3.005,1.912-8.068,2.967-8.743C404.892,206.12,406.623,209.204,406.146,211.151z"
					/>
				<path style="fill-rule:evenodd;clip-rule:evenodd;fill:#D48F9E;" d="M404.562,210.077c0,0,2.693-0.829,4.043,0.299
					c1.35,1.128-3.482,7.597-6.97,5.907c-3.487-1.689-1.676-8.121-1.005-9.178C401.3,206.047,404.172,208.111,404.562,210.077z"/>
			</g>
			<g>
				<path style="fill-rule:evenodd;clip-rule:evenodd;fill:#A75268;" d="M355.416,263.831c0,0-2.419-1.445-3.999-0.67
					c-1.578,0.774,1.576,8.206,5.366,7.393c3.789-0.81,3.559-7.487,3.159-8.675C359.543,260.693,356.263,262.013,355.416,263.831z"
					/>
				<path style="fill-rule:evenodd;clip-rule:evenodd;fill:#C37584;" d="M352.731,265.503c0,0-2.791,0.387-3.538,1.979
					c-0.747,1.593,6.366,5.413,8.814,2.408c2.446-3.005-1.912-8.067-2.967-8.743C353.984,260.472,352.253,263.555,352.731,265.503z"
					/>
				<path style="fill-rule:evenodd;clip-rule:evenodd;fill:#D48F9E;" d="M354.314,264.429c0,0-2.692-0.828-4.043,0.299
					c-1.349,1.129,3.483,7.597,6.971,5.907c3.487-1.69,1.675-8.12,1.005-9.178C357.576,260.399,354.705,262.462,354.314,264.429z"/>
			</g>
			<g>
				<path style="fill-rule:evenodd;clip-rule:evenodd;fill:#87A8A6;" d="M103.341,213.601c-0.115-0.298-0.451-0.446-0.749-0.331
					c-0.298,0.114-0.446,0.45-0.331,0.748c0.007,0.019,2.54,6.672,5.529,8.001c0.292,0.129,0.633-0.003,0.762-0.295
					c0.129-0.292-0.003-0.633-0.295-0.762C105.717,219.833,103.348,213.618,103.341,213.601z"/>
				<path style="fill-rule:evenodd;clip-rule:evenodd;fill:#87A8A6;" d="M145.04,179.32c0.126-0.294-0.011-0.634-0.306-0.76
					c-0.294-0.125-0.635,0.012-0.76,0.306c-0.003,0.009-1.379,3.316-3.253,5.152c-0.227,0.224-0.23,0.59-0.007,0.818
					c0.225,0.228,0.591,0.232,0.819,0.007C143.577,182.84,145.036,179.33,145.04,179.32z"/>
				<path style="fill-rule:evenodd;clip-rule:evenodd;fill:#87A8A6;" d="M148.691,268.447c0.121-0.297-0.02-0.634-0.316-0.756
					c-0.296-0.121-0.634,0.02-0.755,0.316c-0.007,0.018-2.671,6.581-5.74,9.021c-0.25,0.199-0.291,0.564-0.093,0.814
					c0.199,0.25,0.564,0.292,0.814,0.093C145.909,275.306,148.683,268.465,148.691,268.447z"/>
			</g>
			<path style="fill-rule:evenodd;clip-rule:evenodd;fill:#6F8C8A;" d="M136.309,175.944c-0.164-0.097-0.337-0.163-0.513-0.201
				c-0.256,1.206-0.494,2.419-0.713,3.639c1.036,0.698,1.786,1.499,2.291,2.362c6.186,10.578-13.428,18.379-19.53,22.1
				c-14.756,9.002-14.05,31.861-0.891,41.824v-4.691c-9.175-9.193-9.106-26.863,2.66-34.04c7.462-4.552,28.506-13.771,20.74-27.048
				C139.473,178.381,138.15,177.035,136.309,175.944L136.309,175.944z M133.209,260.19c1.634,1.955,3.103,3.999,4.293,6.104
				c4.272,7.558,4.79,16.001-4.293,23.876v4.097c0.372,0,0.745-0.122,1.062-0.374c12.028-9.6,11.525-20.06,6.238-29.412
				c-1.917-3.392-4.485-6.617-7.3-9.579V260.19z"/>
			<path style="fill-rule:evenodd;clip-rule:evenodd;fill:#9FBBC1;" d="M136.078,195.295c0.441-0.299,0.961-0.573,1.44-0.803
				c1.083-0.52,2.253-0.92,3.439-1.115c3.731-0.613,6.625,0.961,8.479,4.23c0.145,0.256,0.092,0.571-0.129,0.766
				c-2.824,2.479-6.074,3.016-9.398,1.212c-1.057-0.574-2.03-1.335-2.883-2.182c-0.377-0.374-0.778-0.804-1.097-1.231
				c-0.104-0.14-0.143-0.298-0.113-0.47C135.845,195.531,135.933,195.393,136.078,195.295z"/>
			<path style="fill-rule:evenodd;clip-rule:evenodd;fill:#9FBBC1;" d="M117.844,205.966c0.4-0.352,0.795-0.788,1.138-1.193
				c0.774-0.919,1.454-1.951,1.94-3.051c1.528-3.46,0.728-6.655-1.972-9.268c-0.211-0.205-0.53-0.233-0.773-0.067
				c-3.107,2.114-4.441,5.126-3.527,8.795c0.291,1.167,0.785,2.3,1.391,3.337c0.268,0.458,0.583,0.955,0.918,1.371
				c0.109,0.136,0.253,0.213,0.426,0.228C117.558,206.132,117.713,206.081,117.844,205.966z"/>
			<path style="fill-rule:evenodd;clip-rule:evenodd;fill:#9FBBC1;" d="M109.672,224.256c0.015-0.533,0.096-1.115,0.189-1.638
				c0.21-1.183,0.568-2.366,1.102-3.443c1.68-3.388,4.647-4.819,8.384-4.417c0.292,0.032,0.518,0.258,0.546,0.552
				c0.364,3.74-1.097,6.692-4.501,8.338c-1.083,0.523-2.269,0.869-3.454,1.067c-0.523,0.087-1.107,0.164-1.64,0.172
				c-0.174,0.003-0.325-0.059-0.448-0.183C109.728,224.582,109.667,224.43,109.672,224.256z"/>
			<path style="fill-rule:evenodd;clip-rule:evenodd;fill:#9FBBC1;" d="M111.439,237.475c-0.13-0.517-0.336-1.068-0.54-1.559
				c-0.462-1.108-1.067-2.186-1.822-3.122c-2.374-2.943-5.581-3.696-9.142-2.494c-0.279,0.094-0.449,0.365-0.414,0.658
				c0.455,3.73,2.521,6.295,6.202,7.164c1.17,0.276,2.404,0.356,3.604,0.293c0.53-0.028,1.116-0.081,1.639-0.188
				c0.17-0.034,0.305-0.128,0.397-0.275C111.456,237.806,111.481,237.644,111.439,237.475z"/>
			<path style="fill-rule:evenodd;clip-rule:evenodd;fill:#9FBBC1;" d="M244.349,77.27c0.163-0.553,0.275-1.18,0.355-1.748
				c0.181-1.288,0.21-2.625,0.022-3.913c-0.59-4.049-3.163-6.517-7.142-7.357c-0.312-0.066-0.62,0.092-0.747,0.384
				c-1.631,3.726-1.12,7.253,1.831,10.089c0.938,0.902,2.043,1.655,3.196,2.257c0.509,0.266,1.084,0.54,1.629,0.728
				c0.178,0.062,0.354,0.049,0.522-0.037C244.183,77.587,244.295,77.451,244.349,77.27z"/>
			<path style="fill-rule:evenodd;clip-rule:evenodd;fill:#9FBBC1;" d="M138.857,262.863c0.344-0.406,0.673-0.895,0.952-1.346
				c0.633-1.021,1.156-2.141,1.478-3.3c1.01-3.643-0.245-6.689-3.295-8.884c-0.239-0.172-0.558-0.153-0.775,0.046
				c-2.768,2.542-3.651,5.716-2.214,9.214c0.457,1.111,1.111,2.161,1.86,3.1c0.332,0.415,0.715,0.86,1.107,1.223
				c0.127,0.119,0.281,0.174,0.455,0.163C138.598,263.069,138.744,262.996,138.857,262.863z"/>
			<path style="fill-rule:evenodd;clip-rule:evenodd;fill:#87A8A6;" d="M239.705,77.305c-0.529-0.23-1.137-0.418-1.692-0.567
				c-1.256-0.337-2.579-0.529-3.88-0.5c-4.091,0.091-6.855,2.343-8.175,6.189c-0.104,0.301,0.016,0.626,0.29,0.788
				c3.498,2.074,7.063,1.998,10.237-0.584c1.01-0.821,1.893-1.826,2.631-2.896c0.327-0.473,0.668-1.01,0.922-1.528
				c0.083-0.17,0.092-0.346,0.027-0.523C239.999,77.508,239.878,77.38,239.705,77.305z"/>
			<path style="fill-rule:evenodd;clip-rule:evenodd;fill:#9FBBC1;" d="M140.684,279.826c-0.532,0.026-1.119-0.01-1.647-0.063
				c-1.196-0.119-2.403-0.384-3.518-0.834c-3.507-1.414-5.162-4.263-5.047-8.018c0.009-0.295,0.218-0.537,0.508-0.588
				c3.701-0.65,6.757,0.578,8.659,3.847c0.605,1.039,1.041,2.196,1.33,3.361c0.127,0.517,0.248,1.092,0.298,1.622
				c0.016,0.174-0.034,0.329-0.147,0.461C141.005,279.746,140.858,279.817,140.684,279.826z"/>
			<path style="fill-rule:evenodd;clip-rule:evenodd;fill:#9FBBC1;" d="M139.175,287.392c0.496,0.195,1.064,0.351,1.581,0.47
				c1.17,0.272,2.398,0.408,3.6,0.341c3.775-0.213,6.257-2.378,7.356-5.972c0.086-0.282-0.034-0.577-0.293-0.72
				c-3.295-1.805-6.585-1.623-9.436,0.86c-0.907,0.789-1.691,1.745-2.34,2.756c-0.286,0.447-0.585,0.954-0.803,1.44
				c-0.071,0.159-0.074,0.322-0.008,0.483C138.897,287.212,139.013,287.328,139.175,287.392z"/>
			<g>
				<path style="fill-rule:evenodd;clip-rule:evenodd;fill:#A75268;" d="M148.091,175.261c0,0-0.4-2.789-1.997-3.528
					c-1.597-0.739-5.382,6.393-2.365,8.825c3.017,2.432,8.058-1.952,8.729-3.01C153.128,176.49,150.036,174.774,148.091,175.261z"/>
				<path style="fill-rule:evenodd;clip-rule:evenodd;fill:#C37584;" d="M145.101,174.229c0,0-2.058-1.924-3.765-1.501
					c-1.708,0.423-0.195,8.355,3.68,8.362c3.875,0.008,5.062-6.566,4.922-7.811C149.798,172.034,146.313,172.631,145.101,174.229z"
					/>
				<path style="fill-rule:evenodd;clip-rule:evenodd;fill:#D48F9E;" d="M146.933,174.783c0,0-1.052-2.613-2.779-2.952
					c-1.726-0.337-3.707,7.49-0.197,9.134c3.508,1.645,7.362-3.813,7.761-5C152.117,174.778,148.706,173.847,146.933,174.783z"/>
			</g>
			<path style="fill-rule:evenodd;clip-rule:evenodd;fill:#9FBBC1;" d="M260.384,77.27c-0.164-0.553-0.275-1.18-0.355-1.748
				c-0.181-1.288-0.21-2.625-0.023-3.913c0.591-4.049,3.163-6.517,7.142-7.357c0.313-0.066,0.62,0.092,0.748,0.384
				c1.63,3.726,1.119,7.253-1.832,10.089c-0.938,0.902-2.042,1.655-3.195,2.257c-0.509,0.266-1.083,0.54-1.629,0.728
				c-0.178,0.062-0.354,0.049-0.521-0.037C260.55,77.587,260.437,77.451,260.384,77.27z"/>
			<path style="fill-rule:evenodd;clip-rule:evenodd;fill:#87A8A6;" d="M265.027,77.305c0.529-0.23,1.138-0.418,1.692-0.567
				c1.256-0.337,2.579-0.529,3.881-0.5c4.091,0.091,6.854,2.343,8.175,6.189c0.104,0.301-0.017,0.626-0.29,0.788
				c-3.498,2.074-7.063,1.998-10.237-0.584c-1.01-0.821-1.893-1.826-2.631-2.896c-0.326-0.473-0.669-1.01-0.922-1.528
				c-0.083-0.17-0.093-0.346-0.026-0.523C264.733,77.508,264.854,77.38,265.027,77.305z"/>
			<path style="fill-rule:evenodd;clip-rule:evenodd;fill:#9FBBC1;" d="M259.389,76.044c0.57,0.092,1.183,0.263,1.729,0.438
				c1.239,0.396,2.456,0.95,3.535,1.678c3.392,2.29,4.499,5.678,3.53,9.627c-0.076,0.31-0.352,0.518-0.672,0.506
				c-4.063-0.147-7.02-2.139-8.295-6.027c-0.404-1.237-0.604-2.559-0.647-3.858c-0.018-0.575-0.015-1.211,0.052-1.784
				c0.021-0.188,0.109-0.341,0.26-0.455C259.031,76.055,259.202,76.013,259.389,76.044z"/>
			<g>
				<path style="fill-rule:evenodd;clip-rule:evenodd;fill:#A75268;" d="M101.696,209.479c0,0-2.418-1.446-3.997-0.671
					c-1.58,0.775,1.576,8.207,5.365,7.395c3.789-0.812,3.559-7.488,3.159-8.675C105.824,206.34,102.543,207.661,101.696,209.479z"/>
				<path style="fill-rule:evenodd;clip-rule:evenodd;fill:#C37584;" d="M99.012,211.151c0,0-2.791,0.387-3.537,1.98
					c-0.747,1.592,6.366,5.413,8.813,2.408c2.446-3.005-1.913-8.068-2.967-8.743C100.266,206.12,98.535,209.204,99.012,211.151z"/>
				<path style="fill-rule:evenodd;clip-rule:evenodd;fill:#D48F9E;" d="M100.595,210.077c0,0-2.692-0.829-4.043,0.299
					c-1.349,1.128,3.483,7.597,6.97,5.907c3.488-1.689,1.676-8.121,1.005-9.178C103.857,206.047,100.986,208.111,100.595,210.077z"
					/>
			</g>
			<g>
				<path style="fill-rule:evenodd;clip-rule:evenodd;fill:#A75268;" d="M149.742,263.831c0,0,2.419-1.445,3.998-0.67
					c1.579,0.774-1.576,8.206-5.365,7.393c-3.789-0.81-3.559-7.487-3.159-8.675C145.615,260.693,148.895,262.013,149.742,263.831z"
					/>
				<path style="fill-rule:evenodd;clip-rule:evenodd;fill:#C37584;" d="M152.427,265.503c0,0,2.79,0.387,3.537,1.979
					c0.747,1.593-6.366,5.413-8.813,2.408c-2.446-3.005,1.913-8.067,2.967-8.743C151.173,260.472,152.904,263.555,152.427,265.503z"
					/>
				<path style="fill-rule:evenodd;clip-rule:evenodd;fill:#D48F9E;" d="M150.843,264.429c0,0,2.693-0.828,4.043,0.299
					c1.349,1.129-3.483,7.597-6.97,5.907c-3.488-1.69-1.676-8.12-1.005-9.178C147.582,260.399,150.453,262.462,150.843,264.429z"/>
			</g>
			<path style="fill-rule:evenodd;clip-rule:evenodd;fill:#9FBBC1;" d="M245.344,76.044c-0.57,0.092-1.182,0.263-1.73,0.438
				c-1.238,0.396-2.456,0.95-3.535,1.678c-3.392,2.29-4.499,5.678-3.53,9.627c0.076,0.31,0.352,0.518,0.671,0.506
				c4.064-0.147,7.021-2.139,8.295-6.027c0.405-1.237,0.605-2.559,0.647-3.858c0.019-0.575,0.015-1.211-0.052-1.784
				c-0.022-0.188-0.109-0.341-0.26-0.455C245.702,76.055,245.53,76.013,245.344,76.044z"/>
			<g>
				<path style="fill-rule:evenodd;clip-rule:evenodd;fill:#D48F9E;" d="M259.052,61.946L259.052,61.946
					c-1.373-1.371-3.617-1.371-4.989,0l-1.466,1.467l-1.467-1.467c-1.372-1.371-3.617-1.371-4.988,0l0,0
					c-1.372,1.372-1.372,3.616,0,4.988c-1.372-1.372-3.616-1.372-4.988,0l0,0c-1.372,1.372-1.372,3.617,0,4.989l1.467,1.467
					l-1.467,1.467c-1.372,1.372-1.372,3.617,0,4.988l0,0c1.372,1.371,3.616,1.371,4.988,0c-1.372,1.371-1.372,3.616,0,4.988l0,0
					c1.372,1.372,3.616,1.372,4.988,0l1.467-1.467l1.466,1.467c1.372,1.372,3.616,1.372,4.989,0l0,0
					c1.372-1.372,1.372-3.617,0-4.988c1.372,1.371,3.616,1.371,4.988,0l0,0c1.371-1.372,1.371-3.617,0-4.988l-1.468-1.467
					l1.468-1.467c1.371-1.372,1.371-3.617,0-4.989l0,0c-1.372-1.372-3.616-1.372-4.988,0
					C260.424,65.562,260.424,63.318,259.052,61.946z"/>
				<path style="fill-rule:evenodd;clip-rule:evenodd;fill:#FFFFFF;" d="M252.597,75.81c1.333,0,2.42-1.087,2.42-2.42
					s-1.087-2.42-2.42-2.42c-1.333,0-2.42,1.087-2.42,2.42S251.264,75.81,252.597,75.81z"/>
				<path style="fill-rule:evenodd;clip-rule:evenodd;fill:#E8BFC5;" d="M248.709,76.496c0.215-0.216,0.566-0.216,0.781,0
					c0.215,0.215,0.215,0.565,0,0.781l-1.702,1.702c-0.216,0.215-0.566,0.215-0.782,0c-0.215-0.216-0.215-0.566,0-0.781
					L248.709,76.496L248.709,76.496z M253.149,80.741c0,0.305-0.248,0.553-0.553,0.553s-0.553-0.248-0.553-0.553v-2.406
					c0-0.305,0.248-0.553,0.553-0.553s0.553,0.247,0.553,0.553V80.741L253.149,80.741z M253.149,68.444
					c0,0.305-0.248,0.553-0.553,0.553s-0.553-0.248-0.553-0.553v-2.407c0-0.305,0.248-0.552,0.553-0.552s0.553,0.248,0.553,0.552
					V68.444L253.149,68.444z M258.186,78.198c0.216,0.215,0.216,0.565,0,0.781c-0.215,0.215-0.565,0.215-0.781,0l-1.703-1.702
					c-0.214-0.216-0.214-0.566,0-0.781c0.216-0.216,0.566-0.216,0.783,0L258.186,78.198L258.186,78.198z M249.491,69.503
					c0.215,0.216,0.215,0.566,0,0.781c-0.216,0.216-0.566,0.216-0.781,0l-1.703-1.702c-0.215-0.215-0.215-0.565,0-0.781
					c0.216-0.215,0.566-0.215,0.782,0L249.491,69.503L249.491,69.503z M259.948,72.837c0.305,0,0.552,0.248,0.552,0.553
					c0,0.305-0.247,0.553-0.552,0.553h-2.406c-0.306,0-0.554-0.248-0.554-0.553c0-0.305,0.248-0.553,0.554-0.553H259.948
					L259.948,72.837z M247.652,72.837c0.305,0,0.552,0.248,0.552,0.553c0,0.305-0.248,0.553-0.552,0.553h-2.407
					c-0.305,0-0.552-0.248-0.552-0.553c0-0.305,0.247-0.553,0.552-0.553H247.652L247.652,72.837z M257.404,67.8
					c0.216-0.215,0.566-0.215,0.781,0c0.216,0.216,0.216,0.566,0,0.781l-1.701,1.702c-0.217,0.216-0.567,0.216-0.783,0
					c-0.214-0.215-0.214-0.565,0-0.781L257.404,67.8z"/>
			</g>
			<g>
				<path style="fill-rule:evenodd;clip-rule:evenodd;fill:#E8BFC5;" d="M238.775,67.906L238.775,67.906
					c-0.922-0.537-2.116-0.221-2.652,0.702l-0.574,0.986l-0.986-0.574c-0.922-0.537-2.116-0.221-2.653,0.701l0,0
					c-0.536,0.922-0.221,2.116,0.701,2.652c-0.922-0.537-2.116-0.221-2.652,0.702l0,0c-0.537,0.922-0.221,2.116,0.701,2.653
					l0.986,0.574l-0.574,0.986c-0.537,0.922-0.221,2.116,0.701,2.652l0,0c0.922,0.537,2.116,0.221,2.652-0.701
					c-0.537,0.922-0.221,2.116,0.702,2.653l0,0c0.922,0.537,2.116,0.221,2.652-0.701l0.574-0.986l0.987,0.574
					c0.922,0.536,2.116,0.221,2.652-0.702l0,0c0.537-0.922,0.221-2.116-0.701-2.653c0.922,0.537,2.116,0.221,2.653-0.701l0,0
					c0.537-0.922,0.221-2.116-0.701-2.653l-0.987-0.574l0.574-0.987c0.537-0.922,0.221-2.116-0.701-2.652l0,0
					c-0.922-0.537-2.116-0.221-2.653,0.701C240.013,69.636,239.697,68.442,238.775,67.906z"/>
				<path style="fill-rule:evenodd;clip-rule:evenodd;fill:#FFFFFF;" d="M236.61,73.612c-0.71,0.188-1.135,0.916-0.947,1.627
					s0.917,1.135,1.628,0.947c0.711-0.188,1.135-0.916,0.947-1.627C238.05,73.848,237.321,73.423,236.61,73.612z"/>
				<path style="fill-rule:evenodd;clip-rule:evenodd;fill:#D48F9E;" d="M235.32,77.097c0.084-0.145,0.27-0.194,0.415-0.11
					c0.145,0.084,0.194,0.271,0.11,0.416l-0.666,1.144c-0.084,0.145-0.27,0.194-0.415,0.11c-0.145-0.084-0.194-0.271-0.11-0.416
					L235.32,77.097L235.32,77.097z M238.278,78.731c0.042,0.162-0.054,0.328-0.217,0.371c-0.162,0.043-0.328-0.054-0.372-0.216
					l-0.338-1.279c-0.043-0.163,0.054-0.329,0.216-0.372c0.162-0.044,0.329,0.053,0.372,0.216L238.278,78.731L238.278,78.731z
					 M236.55,72.191c0.042,0.162-0.054,0.329-0.217,0.372c-0.162,0.043-0.329-0.054-0.371-0.216l-0.338-1.28
					c-0.043-0.162,0.054-0.329,0.216-0.372c0.162-0.043,0.329,0.054,0.372,0.216L236.55,72.191L236.55,72.191z M240.599,76.67
					c0.145,0.085,0.194,0.271,0.11,0.416c-0.084,0.145-0.271,0.194-0.416,0.109l-1.145-0.666c-0.145-0.084-0.194-0.271-0.109-0.415
					c0.084-0.145,0.271-0.194,0.415-0.109L240.599,76.67L240.599,76.67z M234.753,73.269c0.145,0.084,0.194,0.27,0.11,0.415
					c-0.084,0.145-0.271,0.194-0.415,0.11l-1.145-0.666c-0.145-0.084-0.194-0.271-0.11-0.416c0.084-0.146,0.271-0.194,0.416-0.11
					L234.753,73.269L234.753,73.269z M240.782,73.571c0.163-0.042,0.329,0.054,0.372,0.216c0.043,0.163-0.054,0.329-0.216,0.372
					l-1.28,0.338c-0.162,0.043-0.328-0.054-0.371-0.216c-0.043-0.162,0.054-0.329,0.216-0.372L240.782,73.571L240.782,73.571z
					 M234.244,75.3c0.162-0.043,0.329,0.053,0.372,0.216c0.042,0.163-0.054,0.329-0.216,0.372l-1.28,0.338
					c-0.163,0.043-0.329-0.054-0.372-0.216c-0.043-0.162,0.054-0.329,0.216-0.372L234.244,75.3L234.244,75.3z M238.722,71.251
					c0.085-0.145,0.271-0.194,0.416-0.11c0.145,0.084,0.194,0.271,0.109,0.416l-0.665,1.145c-0.085,0.145-0.271,0.194-0.415,0.11
					c-0.145-0.085-0.194-0.271-0.11-0.416L238.722,71.251z"/>
			</g>
			<g>
				<path style="fill-rule:evenodd;clip-rule:evenodd;fill:#E8BFC5;" d="M266.675,67.906L266.675,67.906
					c0.922-0.537,2.115-0.221,2.652,0.702l0.574,0.986l0.986-0.574c0.922-0.537,2.116-0.221,2.652,0.701l0,0
					c0.537,0.922,0.222,2.116-0.701,2.652c0.923-0.537,2.117-0.221,2.652,0.702l0,0c0.536,0.922,0.222,2.116-0.7,2.653l-0.987,0.574
					l0.574,0.986c0.536,0.922,0.221,2.116-0.701,2.652l0,0c-0.923,0.537-2.116,0.221-2.652-0.701
					c0.536,0.922,0.221,2.116-0.701,2.653l0,0c-0.923,0.537-2.117,0.221-2.653-0.701l-0.574-0.986l-0.985,0.574
					c-0.923,0.536-2.116,0.221-2.653-0.702l0,0c-0.536-0.922-0.221-2.116,0.701-2.653c-0.922,0.537-2.115,0.221-2.652-0.701l0,0
					c-0.537-0.922-0.222-2.116,0.702-2.653l0.985-0.574l-0.574-0.987c-0.536-0.922-0.222-2.116,0.702-2.652l0,0
					c0.922-0.537,2.115-0.221,2.652,0.701C265.437,69.636,265.752,68.442,266.675,67.906z"/>
				<path style="fill-rule:evenodd;clip-rule:evenodd;fill:#FFFFFF;" d="M268.839,73.612c0.712,0.188,1.135,0.916,0.947,1.627
					s-0.916,1.135-1.628,0.947c-0.71-0.188-1.135-0.916-0.946-1.627C267.4,73.848,268.128,73.423,268.839,73.612z"/>
				<path style="fill-rule:evenodd;clip-rule:evenodd;fill:#D48F9E;" d="M270.13,77.097c-0.085-0.145-0.27-0.194-0.416-0.11
					c-0.145,0.084-0.193,0.271-0.109,0.416l0.665,1.144c0.084,0.145,0.272,0.194,0.415,0.11c0.146-0.084,0.195-0.271,0.11-0.416
					L270.13,77.097L270.13,77.097z M267.171,78.731c-0.042,0.162,0.055,0.328,0.216,0.371c0.164,0.043,0.33-0.054,0.372-0.216
					l0.339-1.279c0.043-0.163-0.055-0.329-0.216-0.372c-0.163-0.044-0.329,0.053-0.371,0.216L267.171,78.731L267.171,78.731z
					 M268.9,72.191c-0.043,0.162,0.054,0.329,0.217,0.372c0.161,0.043,0.328-0.054,0.371-0.216l0.337-1.28
					c0.044-0.162-0.053-0.329-0.216-0.372c-0.161-0.043-0.328,0.054-0.371,0.216L268.9,72.191L268.9,72.191z M264.851,76.67
					c-0.146,0.085-0.194,0.271-0.11,0.416c0.085,0.145,0.271,0.194,0.416,0.109l1.145-0.666c0.146-0.084,0.193-0.271,0.11-0.415
					c-0.085-0.145-0.271-0.194-0.416-0.109L264.851,76.67L264.851,76.67z M270.697,73.269c-0.146,0.084-0.194,0.27-0.11,0.415
					c0.084,0.145,0.27,0.194,0.416,0.11l1.145-0.666c0.145-0.084,0.193-0.271,0.108-0.416c-0.083-0.146-0.27-0.194-0.414-0.11
					L270.697,73.269L270.697,73.269z M264.667,73.571c-0.162-0.042-0.328,0.054-0.371,0.216c-0.043,0.163,0.054,0.329,0.216,0.372
					l1.28,0.338c0.161,0.043,0.328-0.054,0.371-0.216c0.043-0.162-0.055-0.329-0.216-0.372L264.667,73.571L264.667,73.571z
					 M271.207,75.3c-0.164-0.043-0.33,0.053-0.372,0.216c-0.043,0.163,0.053,0.329,0.217,0.372l1.279,0.338
					c0.162,0.043,0.328-0.054,0.372-0.216c0.041-0.162-0.055-0.329-0.217-0.372L271.207,75.3L271.207,75.3z M266.728,71.251
					c-0.084-0.145-0.271-0.194-0.416-0.11c-0.144,0.084-0.193,0.271-0.109,0.416l0.666,1.145c0.085,0.145,0.271,0.194,0.416,0.11
					c0.145-0.085,0.194-0.271,0.109-0.416L266.728,71.251z"/>
			</g>
		</g>
		<g>
			<path style="fill-rule:evenodd;clip-rule:evenodd;fill:#E3E1F1;" d="M282.232,134.503c24.246-1.681,13.915,17.446,19.239,41.209
				c10.435,46.579,63.877,115.422,8.121,169.981c-55.758,54.558-64.949-61.349-64.949-61.349l-2.016-11.233
				c0,0,10.368-34.562,8.927-72.581c-1.44-38.018-2.016-56.163,12.097-59.332C277.764,138.032,282.232,134.503,282.232,134.503z"/>
			<path style="fill-rule:evenodd;clip-rule:evenodd;fill:#E6B5A3;" d="M252.969,185.927l-5.852,13.426l1.328,24.708l8.451-14.125
				l5.249-9.855C262.145,200.081,258.445,187.853,252.969,185.927z"/>
			<polygon style="fill-rule:evenodd;clip-rule:evenodd;fill:#D2887A;" points="247.924,197.501 247.117,199.353 248.445,224.061 
				253.743,215.205 			"/>
			<path style="fill-rule:evenodd;clip-rule:evenodd;fill:#D2887A;" d="M227.238,408.842c0,0,1.261,4.806,1.332,5.177
				c0.071,0.369-5.473,3.295-5.473,3.295l-3.421-1.368l0.547-6.154L227.238,408.842z"/>
			<path style="fill-rule:evenodd;clip-rule:evenodd;fill:#D2887A;" d="M187.877,410.058c0,0-1.261,4.807-1.332,5.177
				c-0.071,0.369,5.472,3.295,5.472,3.295l2.909-2.431l-0.035-5.091L187.877,410.058z"/>
			<path style="fill-rule:evenodd;clip-rule:evenodd;fill:#F4F4F9;" d="M192.878,172.48c0,0-2.175,0.903-3.17,3.087
				c-0.996,2.183-15.544,22.381-15.544,22.381l6.855,10.71l12.528-11.05C193.547,197.607,198.949,181.581,192.878,172.48z"/>
			<polygon style="fill-rule:evenodd;clip-rule:evenodd;fill:#E4B5A1;" points="237.719,240.392 236.167,243.297 233.659,236.671 
				237.088,238.006 			"/>
			<path style="fill-rule:evenodd;clip-rule:evenodd;fill:#F4F4F9;" d="M233.311,233.889c0,0,0.609,2.669,2.145,3.592
				c1.536,0.923,2.146,3.628,2.146,3.628l0.987-1.137c0,0,3.109,1.23,3.856-0.901c0.747-2.134,4.117-9.39,5.902-12.951
				c1.786-3.561,2.119-10.502,1.546-14.508c-0.572-4.005-7.152-31.466-9.071-33.665c-1.918-2.199-5.552-4.424-5.552-4.424
				s-1.186,7.688-0.879,11.564c0.307,3.876,1.153,19.547,1.153,19.547s-1.212,4.755-0.178,6.067
				c1.034,1.311,1.426-0.406,1.426-0.406l1.436,2.641c0,0-0.827,0.75-0.809,1.128c0.018,0.377,0.37,0.989,0.37,0.989l-3.836,5.949
				L233.311,233.889z"/>
			<path style="fill-rule:evenodd;clip-rule:evenodd;fill:#443E71;" d="M232.182,232.707c0,0,5.756,8.825,6.689,29.239
				c0.932,20.414-4.287,65.975-4.189,73.434c0.097,7.458-1.15,36.063-2.278,43.349c-1.127,7.287-3.152,29.553-3.571,31.021
				c-0.42,1.469-1.148,1.51-2.234,1.692c-1.087,0.181-6.267-0.009-7.515-0.721c-1.25-0.713-1.021-60.979-1.58-73.227
				c-0.56-12.249-2.219-59.228-2.957-62.075c-0.739-2.848-4.193-35.88-3.982-41.912
				C210.774,227.475,232.182,232.707,232.182,232.707z"/>
			<g>
				
					<path style="fill-rule:evenodd;clip-rule:evenodd;fill:none;stroke:#C8C4E1;stroke-width:0.7087;stroke-linecap:round;stroke-linejoin:round;stroke-miterlimit:2.6131;" d="
					M238.229,212.936c0,0,3.378-1.292,5.738-0.158"/>
				
					<path style="fill-rule:evenodd;clip-rule:evenodd;fill:none;stroke:#C8C4E1;stroke-width:0.7087;stroke-linecap:round;stroke-linejoin:round;stroke-miterlimit:2.6131;" d="
					M237.79,215.053c0,0,4.329,0.084,5.194,1.569"/>
				
					<path style="fill-rule:evenodd;clip-rule:evenodd;fill:none;stroke:#C8C4E1;stroke-width:0.7087;stroke-linecap:round;stroke-linejoin:round;stroke-miterlimit:2.6131;" d="
					M244.847,233.482c0,0,2.738-7.343,2.502-12.669"/>
				
					<line style="fill-rule:evenodd;clip-rule:evenodd;fill:none;stroke:#C8C4E1;stroke-width:0.7087;stroke-linecap:round;stroke-linejoin:round;stroke-miterlimit:2.6131;" x1="248.476" y1="204.847" x2="243.258" y2="193.131"/>
			</g>
			<path style="fill-rule:evenodd;clip-rule:evenodd;fill:#383260;" d="M232.182,232.707c0,0,1.976,3.031,3.8,9.647
				c-7.643,3.887-16.547,4.556-24.66,3.891c-0.499-5.816-0.829-10.747-0.759-12.738
				C210.774,227.475,232.182,232.707,232.182,232.707z"/>
			<path style="fill-rule:evenodd;clip-rule:evenodd;fill:#443E71;" d="M222.29,236.008c0,0-5.84,31.449-11.143,67.531
				c-5.302,36.083-4.668,38.444-6.192,49.168c-1.525,10.723-9.199,58.558-9.442,59.541c-0.243,0.982-7.612,1.971-9.614,0.136
				c0,0-0.636-0.434-0.676-3.022c-0.04-2.589,3.252-61.175,3.686-63.979c0.434-2.806-8.314-69.404,6.914-110.058
				C195.823,235.325,217.214,228.807,222.29,236.008z"/>
			<path style="fill-rule:evenodd;clip-rule:evenodd;fill:#383260;" d="M222.29,236.008c0,0-0.711,3.828-1.861,10.339
				c-10.35,0.69-20.633-1.677-27.043-3.613c0.735-2.545,1.543-5.023,2.437-7.409C195.823,235.325,217.214,228.807,222.29,236.008z"
				/>
			<path style="fill-rule:evenodd;clip-rule:evenodd;fill:#E6B5A3;" d="M236.885,215.245c0,0,3.487,0.062,4.446,1.319
				c0,0,0.41,0.713-0.076,1.254l-0.236,0.176c0,0,0.866,1.482,1.053,1.943c0.188,0.462,0.496,1.899,0.456,2.37
				c-0.04,0.472-0.554,0.052-0.554,0.052l0.212,1.111c0,0-0.051,0.422-0.335,0.543c-0.283,0.121-0.86-0.381-1.059-0.653
				c-0.2-0.272-0.662-1.352-0.662-1.352s-0.46,0.282-0.782,0.062c-0.321-0.22-1.488-1.249-2.034-1.363
				c-0.546-0.114-1.994,0.165-2.249,0.365c0,0-0.588-0.403-0.325-2.224C235.004,217.025,236.885,215.245,236.885,215.245z"/>
			<path style="fill-rule:evenodd;clip-rule:evenodd;fill:#D2887A;" d="M236.885,215.245c0,0,0.997,0.018,2.071,0.227
				c-0.382,0.536-0.744,1.111-0.823,1.458c-0.122,0.536-0.376,2.605-0.527,3.886c-0.108-0.054-0.208-0.093-0.292-0.111
				c-0.357-0.075-1.1,0.019-1.643,0.148c-0.395-0.314-0.765-0.703-0.999-1.166c0.001-0.239,0.021-0.518,0.068-0.841
				C235.004,217.026,236.885,215.245,236.885,215.245z"/>
			<path style="fill-rule:evenodd;clip-rule:evenodd;fill:#FFFFFF;" d="M209.484,166.595c0,0-14.475,4.582-16.606,5.884
				c1.374,1.612,3.424,16.524,0.668,25.128c0,0,2.014,15.61,1.977,17.809c-0.037,2.199-2.77,15.785-2.693,17.47
				c0.077,1.685,1.407,5.328,1.407,5.328s9.391,4.792,22.441,5.746c13.049,0.954,19.04-2.762,20.692-5.558
				c1.652-2.796-1.436-19.517-0.642-23.11c0.794-3.593,3.404-15.397,3.289-17.925c-0.116-2.528-3.197-22.038-3.789-23.018
				c-0.593-0.98-13.057-6.67-13.057-6.67L209.484,166.595z"/>
			<path style="fill-rule:evenodd;clip-rule:evenodd;fill:#FFFFFF;" d="M188.629,155.981l-8.721-1.193c0,0-0.42-0.165-0.46-0.123
				c-6.074,6.55-2.012,16.449-4.475,25.073c-2.988,10.464-6.415,18.517-0.666,27.021c1.84,2.723,5.49,2.983,7.231,1.842
				c7.649-5.015,4.796-13.79,5.916-26.098c0.739-8.115,6.343-16.964,1.257-26.274C188.68,156.169,188.68,155.988,188.629,155.981z"
				/>
			<path style="fill-rule:evenodd;clip-rule:evenodd;fill:#714360;" d="M217.58,426.223c0,0,21.031,0.257,21.839,0
				c0.807-0.255,1.158-0.743,1.158-1.839s0-1.526,0-2.349c0-0.822-0.264-1.664-2.646-2.485c-2.383-0.822-1.629-0.899-3.416-1.33
				c-1.787-0.43-3.136-5.639-3.566-5.951c-0.431-0.314-1.688-0.314-2.978-0.314c-1.291,0-3.375,0.079-4.003,1.723
				c-0.629,1.644-3.3,1.873-4.314,1.368c0,0-0.981-0.076-1.212,0.668c-0.231,0.743-0.695,5.91-0.761,6.459
				c-0.066,0.548,0.148,0.802,0.148,0.802s-0.447,0.372-0.529,0.548c-0.083,0.177-0.116,0.666-0.116,1.175
				C217.183,425.207,217.125,426.185,217.58,426.223z"/>
			<path style="fill-rule:evenodd;clip-rule:evenodd;fill:#855169;" d="M239.716,420.407c-0.394-0.287-0.965-0.574-1.786-0.857
				c-0.767-0.264-3.413-1.739-4.113-2.357l-6.53-0.218l-0.116,1.251c0,0-1.076,0.217-0.663,1.02
				c0.414,0.803,1.358,1.898,4.302,1.898c2.945,0,7.067,0,7.942,0S239.677,420.878,239.716,420.407z"/>
			<path style="fill-rule:evenodd;clip-rule:evenodd;fill:#855169;" d="M217.58,426.224c0,0,1.991,0.019,4.903,0.042
				c2.449-0.729,4.607-1.54,4.607-1.54s-4.103-6.342-3.871-6.929c0.232-0.587,3.144-3.445,3.144-3.445s-0.423-0.857-1.019-2.02
				c-0.602,0.249-1.116,0.662-1.377,1.346c-0.629,1.644-3.3,1.873-4.314,1.367c0,0-0.981-0.075-1.212,0.669
				c-0.231,0.743-0.695,5.91-0.761,6.459c-0.066,0.548,0.149,0.802,0.149,0.802s-0.447,0.372-0.529,0.548
				c-0.083,0.177-0.116,0.666-0.116,1.175C217.183,425.207,217.125,426.185,217.58,426.224z"/>
			<path style="fill-rule:evenodd;clip-rule:evenodd;fill:#643954;" d="M235.212,418.778c-0.126-0.026-0.228-0.783-0.228-0.783
				s-3.606-5.413-4.037-5.726c-0.431-0.314-1.688-0.314-2.978-0.314c-0.968,0-2.381,0.044-3.293,0.759l-0.001,0.001l0,0
				c-1.925,1.618,1.066,3.796,2.318,5.395C227.562,418.836,232.551,418.891,235.212,418.778z"/>
			<path style="fill-rule:evenodd;clip-rule:evenodd;fill:#FFFFFF;" d="M239.418,422.973c-0.718,0.227-20.236,0.015-21.59,0.002
				c-1.354-0.013-0.447,0.372-0.529,0.548c-0.083,0.177-0.116,0.666-0.116,1.175c0,0.509-0.058,1.487,0.396,1.525
				c0,0,21.031,0.257,21.839,0c0.807-0.255,1.158-0.743,1.158-1.839s0-1.87,0-2.349c0-0.479-0.007-0.27-0.029-0.405
				C240.448,422.385,240.136,422.746,239.418,422.973z"/>
			<path style="fill-rule:evenodd;clip-rule:evenodd;fill:#714360;" d="M196.854,426.223c0,0-21.032,0.257-21.838,0
				c-0.808-0.255-1.159-0.743-1.159-1.839s0-1.526,0-2.349c0-0.822,0.264-1.664,2.646-2.485c2.383-0.822,1.63-0.899,3.417-1.33
				c1.786-0.43,3.136-5.639,3.566-5.951c0.43-0.314,1.687-0.314,2.977-0.314c1.29,0,3.374,0.079,4.003,1.723
				c0.629,1.644,3.3,1.873,4.314,1.368c0,0,0.98-0.076,1.212,0.668c0.231,0.743,0.695,5.91,0.761,6.459
				c0.066,0.548-0.148,0.802-0.148,0.802s0.446,0.372,0.529,0.548c0.083,0.177,0.116,0.666,0.116,1.175
				C197.251,425.207,197.309,426.185,196.854,426.223z"/>
			<path style="fill-rule:evenodd;clip-rule:evenodd;fill:#855169;" d="M174.717,420.407c0.394-0.287,0.965-0.574,1.786-0.857
				c0.767-0.264,3.413-1.739,4.114-2.357l6.53-0.218l0.115,1.251c0,0,1.076,0.217,0.663,1.02c-0.414,0.803-1.357,1.898-4.302,1.898
				c-2.945,0-7.067,0-7.942,0C174.806,421.144,174.757,420.878,174.717,420.407z"/>
			<path style="fill-rule:evenodd;clip-rule:evenodd;fill:#855169;" d="M196.854,426.224c0,0-1.992,0.019-4.903,0.042
				c-2.45-0.729-4.607-1.54-4.607-1.54s4.103-6.342,3.871-6.929c-0.232-0.587-3.143-3.445-3.143-3.445s0.423-0.857,1.018-2.02
				c0.603,0.249,1.116,0.662,1.377,1.346c0.629,1.644,3.3,1.873,4.313,1.367c0,0,0.98-0.075,1.212,0.669
				c0.232,0.743,0.695,5.91,0.761,6.459c0.066,0.548-0.149,0.802-0.149,0.802s0.446,0.372,0.53,0.548
				c0.082,0.177,0.116,0.666,0.116,1.175C197.251,425.207,197.309,426.185,196.854,426.224z"/>
			<path style="fill-rule:evenodd;clip-rule:evenodd;fill:#643954;" d="M179.222,418.778c0.126-0.026,0.228-0.783,0.228-0.783
				s3.607-5.413,4.037-5.726c0.43-0.314,1.687-0.314,2.977-0.314c0.968,0,2.381,0.044,3.293,0.759l0.001,0.001h0.001
				c1.924,1.618-1.067,3.796-2.319,5.395C186.872,418.836,181.883,418.891,179.222,418.778z"/>
			<path style="fill-rule:evenodd;clip-rule:evenodd;fill:#FFFFFF;" d="M175.016,422.973c0.717,0.227,20.236,0.015,21.59,0.002
				c1.354-0.013,0.446,0.372,0.529,0.548c0.083,0.177,0.116,0.666,0.116,1.175c0,0.509,0.058,1.487-0.396,1.525
				c0,0-21.032,0.257-21.838,0c-0.808-0.255-1.159-0.743-1.159-1.839s0-1.87,0-2.349c0-0.479,0.008-0.27,0.029-0.405
				C173.986,422.385,174.298,422.746,175.016,422.973z"/>
			<g>
				
					<path style="fill-rule:evenodd;clip-rule:evenodd;fill:none;stroke:#C8C4E1;stroke-width:0.7087;stroke-linecap:round;stroke-linejoin:round;stroke-miterlimit:2.6131;" d="
					M188.276,177.882c0,0-1.784,7.611-1.143,13.12"/>
				
					<path style="fill-rule:evenodd;clip-rule:evenodd;fill:none;stroke:#C8C4E1;stroke-width:0.7087;stroke-linecap:round;stroke-linejoin:round;stroke-miterlimit:2.6131;" d="
					M187.217,184.396c0,0,1.434,2.501,2.115,3.365"/>
				
					<path style="fill-rule:evenodd;clip-rule:evenodd;fill:none;stroke:#C8C4E1;stroke-width:0.7087;stroke-linecap:round;stroke-linejoin:round;stroke-miterlimit:2.6131;" d="
					M175.699,175.77c0,0,0.109,10.587,0.206,15.988"/>
				
					<path style="fill-rule:evenodd;clip-rule:evenodd;fill:none;stroke:#C8C4E1;stroke-width:0.7087;stroke-linecap:round;stroke-linejoin:round;stroke-miterlimit:2.6131;" d="
					M184.959,205.183c0,0,2.718-5.971,5.686-10.886"/>
				
					<path style="fill-rule:evenodd;clip-rule:evenodd;fill:none;stroke:#C8C4E1;stroke-width:0.7087;stroke-linecap:round;stroke-linejoin:round;stroke-miterlimit:2.6131;" d="
					M186.218,157.52c0,0,2.773,6.75-0.535,13.501"/>
				
					<path style="fill-rule:evenodd;clip-rule:evenodd;fill:none;stroke:#C8C4E1;stroke-width:0.7087;stroke-linecap:round;stroke-linejoin:round;stroke-miterlimit:2.6131;" d="
					M182.305,155.674c0,0-1.966,3.929-2.202,7.946"/>
			</g>
			<g>
				
					<path style="fill-rule:evenodd;clip-rule:evenodd;fill:none;stroke:#383260;stroke-width:0.7087;stroke-linecap:round;stroke-linejoin:round;stroke-miterlimit:2.6131;" d="
					M199.21,240.264c0,0-1.807,8.112-7.459,8.402"/>
				
					<path style="fill-rule:evenodd;clip-rule:evenodd;fill:none;stroke:#383260;stroke-width:0.7087;stroke-linecap:round;stroke-linejoin:round;stroke-miterlimit:2.6131;" d="
					M233.528,241.646c0,0,1.485,5.765,3.822,6.671"/>
				
					<path style="fill-rule:evenodd;clip-rule:evenodd;fill:none;stroke:#383260;stroke-width:0.7087;stroke-linecap:round;stroke-linejoin:round;stroke-miterlimit:2.6131;" d="
					M214.911,279.096c0,0,3.036-24.244,3.815-35.022"/>
				
					<path style="fill-rule:evenodd;clip-rule:evenodd;fill:none;stroke:#383260;stroke-width:0.7087;stroke-linecap:round;stroke-linejoin:round;stroke-miterlimit:2.6131;" d="
					M222.183,244.09c0,0-1.812,17.76-2.206,18.982c-0.393,1.222-3.611,3.931-3.611,3.931"/>
			</g>
			<path style="fill-rule:evenodd;clip-rule:evenodd;fill:#E6B5A3;" d="M191.287,153.102c1.511-1.846,4.493-2.622,5.185-2.833
				c0.915-0.28-0.706-3.838-3.48-1.405c0,0-2.262,0.847-2.6,0.148c-0.338-0.697,3.461-10.67,3.929-11.729
				c0.468-1.059-0.521-1.819-0.953-1.72c-0.432,0.099-1.093,1.642-2.049,3.535c-0.956,1.893-2.052,4.012-2.293,4.102
				c-0.242,0.091-0.619-0.158-0.455-1.411c0.163-1.253,1.301-8.122,1.015-8.69c-0.285-0.569-1.379-0.601-1.827,0.383
				c-0.447,0.984-1.359,7.958-1.731,8.819c-0.372,0.861-1.064,0.35-1.138-0.303c-0.075-0.653-0.049-8.341-0.298-8.883
				c-0.249-0.542-1.368-0.533-1.598,0.613c-0.23,1.145-0.533,8.509-0.811,8.96c-0.278,0.451-1.016,0.444-1.521-0.885
				c-0.506-1.329-1.266-4.22-1.594-4.462c-0.328-0.242-1.42,0.625-1.132,2.092c0.288,1.467,0.887,5.136,0.914,5.693
				c0.143,2.945-0.469,5.675-0.073,7.946c0.144,0.821,0.493,1.604,0.986,2.302C183.225,160.273,188.333,156.715,191.287,153.102z"/>
			<path style="fill-rule:evenodd;clip-rule:evenodd;fill:#C8C4E1;" d="M328.707,410.823c0,0,1.957-0.332,2.765,1.209
				c0.81,1.541-1.389,2.603-1.389,2.603s0.934,0.909,0.48,1.869c-0.455,0.96-1.44,0.48-1.44,0.48s1.96,3.631-3.561,3.663
				c0,0,0.252,2.224-2.78,1.77c0,0-0.657,4.852-6.266,3.082c0,0-0.859,2.729-3.841,2.071c-2.982-0.656-4.447-5.457-4.447-5.457
				L328.707,410.823z"/>
			<path style="fill-rule:evenodd;clip-rule:evenodd;fill:#E3E1F1;" d="M328.139,395.712c0,0,1.193-0.298,2.18,0.358
				c0.984,0.657,0.277,2.249-0.178,2.805c0,0,0.809,0.708,0.809,1.566c0,0.859-0.858,1.036-0.858,1.036s2.501,5.003-2.098,7.429
				c-4.599,2.426-7.176-5.762-7.176-5.762L328.139,395.712z"/>
			<path style="fill-rule:evenodd;clip-rule:evenodd;fill:#FFFFFF;" d="M291.205,234.117c0,0,2.184,1.873,3.427,3.374
				c20.374,24.607,12.926,56.775,33.371,158.027c1.088,5.389-1.818,10.41-1.818,10.41s-35.072-80.473-44.406-129.244
				C278.753,260.879,291.193,235.205,291.205,234.117z"/>
			<path style="fill-rule:evenodd;clip-rule:evenodd;fill:#E3E1F1;" d="M289.595,231.186
				c13.355,13.716,17.18,121.806,39.112,179.637c0,0,1.515,2.427-1.618,5.155c-3.132,2.729-11.218,7.682-18.393,9.096
				C301.521,426.489,289.595,231.186,289.595,231.186z"/>
			<path style="fill-rule:evenodd;clip-rule:evenodd;fill:#383260;" d="M293.42,150.119c0,0-1.267,6.883-0.27,12.674
				c0.995,5.79,7.237,20.265-8.233,23.069c-15.471,2.805-27.413-0.995-28.317-11.399c-0.905-10.404,1.647-12.886,1.647-20.647
				L293.42,150.119z"/>
			<path style="fill-rule:evenodd;clip-rule:evenodd;fill:#C8C4E1;" d="M221.346,410.823c0,0-1.957-0.332-2.765,1.209
				c-0.809,1.541,1.39,2.603,1.39,2.603s-0.935,0.909-0.48,1.869c0.454,0.96,1.44,0.48,1.44,0.48s-1.96,3.631,3.562,3.663
				c0,0-0.252,2.224,2.78,1.77c0,0,0.657,4.852,6.266,3.082c0,0,0.859,2.729,3.84,2.071c2.981-0.656,4.447-5.457,4.447-5.457
				L221.346,410.823z"/>
			<path style="fill-rule:evenodd;clip-rule:evenodd;fill:#E3E1F1;" d="M221.914,395.712c0,0-1.193-0.298-2.179,0.358
				c-0.985,0.657-0.278,2.249,0.177,2.805c0,0-0.809,0.708-0.809,1.566c0,0.859,0.859,1.036,0.859,1.036s-2.501,5.003,2.097,7.429
				c4.599,2.426,7.176-5.762,7.176-5.762L221.914,395.712z"/>
			<path style="fill-rule:evenodd;clip-rule:evenodd;fill:#FFFFFF;" d="M258.848,234.117c0,0-2.185,1.873-3.428,3.374
				c-20.373,24.607-12.925,56.775-33.37,158.027c-1.088,5.389,1.819,10.41,1.819,10.41s35.073-80.473,44.407-129.244
				C271.3,260.879,258.86,235.205,258.848,234.117z"/>
			<path style="fill-rule:evenodd;clip-rule:evenodd;fill:#E3E1F1;" d="M260.458,231.186
				c-13.355,13.716-17.18,121.806-39.112,179.637c0,0-1.515,2.427,1.618,5.155c3.133,2.729,11.218,7.682,18.394,9.096
				C248.533,426.489,260.458,231.186,260.458,231.186z"/>
			<path style="fill-rule:evenodd;clip-rule:evenodd;fill:#E3E1F1;" d="M311.815,429.844l2.292-0.36c0,0,2.458,0.538,3.367,1.775
				c0.91,1.237,0.557,5.306-4.65,4.094c0,0-0.808,2.981-3.738,1.565c0,0-1.769,6.064-9.248,2.274c0,0-2.374,2.477-5.356,0.809
				c0,0-2.51,2.609-6.114,1.566c0,0-0.656,1.365-1.92,1.314c-1.263-0.05-1.263-0.556-1.263-0.556s-2.274,1.971-5.61-0.557
				c0,0-1.421,1.448-4.549,1.537c-3.129-0.089-4.55-1.537-4.55-1.537c-3.334,2.527-5.608,0.557-5.608,0.557s0,0.506-1.264,0.556
				c-1.264,0.051-1.92-1.314-1.92-1.314c-3.604,1.043-6.114-1.566-6.114-1.566c-2.982,1.668-5.356-0.809-5.356-0.809
				c-7.479,3.79-9.248-2.274-9.248-2.274c-2.931,1.416-3.739-1.565-3.739-1.565c-5.205,1.212-5.559-2.856-4.649-4.094
				c0.91-1.237,3.368-1.775,3.368-1.775l2.292,0.36l36.789,6.467L311.815,429.844z"/>
			<path style="fill-rule:evenodd;clip-rule:evenodd;fill:#FFFFFF;" d="M295.733,199.165c0.298,0.9,0.552,1.766,0.74,2.562
				c1.314,5.559-2.628,13.644-3.639,15.969c-0.484,1.115-1.439,4.517-2.191,7.888H259.41c-0.755-3.371-1.707-6.772-2.191-7.888
				c-1.012-2.325-4.953-10.41-3.639-15.969c0.176-0.748,0.412-1.559,0.687-2.401l0,0c0.673-6.452-0.506-10.996-1.298-13.398
				c0.501-0.484,1.16-0.792,1.864-1.042c2.379-0.848,8.24-2.956,8.24-2.956l0.157-0.03c10.216,19.815,13.28,19.863,23.39,0.321
				l8.863,2.324c0.497,0.13,1.11,0.385,1.781,0.749C296.505,187.454,295.035,192.18,295.733,199.165z"/>
			<path style="fill-rule:evenodd;clip-rule:evenodd;fill:#FFFFFF;" d="M290.644,225.583c-0.819,3.656-1.405,7.275-0.906,7.895
				c6.879,8.554,9.455,127.515,24.419,195.588c0,0-0.002,1.216-0.961,1.972c-0.957,0.756-14.217,6.721-38.169,6.77
				c-23.951-0.049-37.211-6.014-38.169-6.77c-0.959-0.756-0.96-1.972-0.96-1.972c14.964-68.073,17.539-187.034,24.419-195.588
				c0.498-0.62-0.088-4.239-0.906-7.895H290.644z"/>
			<path style="fill-rule:evenodd;clip-rule:evenodd;fill:#A75268;" d="M275.026,217.39h-1.353c-1.212,0-10.282,3.66-16.157,1.084
				c0,0-0.215,0.317-0.215,0.546c0,0.227,1.592,9.108,1.542,9.815c-0.051,0.708-3.989,7.756-4.04,8.16
				c-0.051,0.405,4.852,5.559,11.472,6.923c0,0,1.645,0.354,2.807-1.415c1.161-1.769,3.486-5.508,4.042-6.418
				c0.495-0.812,1.099-1.181,1.902-1.251c0.803,0.07,1.406,0.439,1.902,1.251c0.555,0.909,2.88,4.648,4.042,6.418
				c1.162,1.769,2.807,1.415,2.807,1.415c6.619-1.365,11.522-6.519,11.471-6.923c-0.05-0.404-3.989-7.452-4.039-8.16
				c-0.051-0.707,1.542-9.588,1.542-9.815c0-0.228-0.215-0.546-0.215-0.546c-5.875,2.575-14.945-1.084-16.158-1.084H275.026z"/>
			<path style="fill-rule:evenodd;clip-rule:evenodd;fill:#E6B5A3;" d="M270.15,179.28l-1.234,0.697c0,0-0.28,0.901-1.673,1.225
				c-1.392,0.323-4.012,0.696-4.012,0.696v4.726v1.131c0,6.488,5.308,11.795,11.796,11.795l0,0c6.488,0,11.796-5.308,11.796-11.795
				v-1.131v-4.352l-4.474-1.174l0.044-0.021c-1.033-0.384-1.256-1.1-1.256-1.1l-1.233-0.697l-4.877,0.68L270.15,179.28z"/>
			<path style="fill-rule:evenodd;clip-rule:evenodd;fill:#D2887A;" d="M282.811,181.202c-1.394-0.324-1.674-1.225-1.674-1.225
				l-1.233-0.697l-3.501,0.488L282.811,181.202z"/>
			<path style="fill-rule:evenodd;clip-rule:evenodd;fill:#E6B5A3;" d="M275.204,166.806l-0.122-0.001
				c-3.495-0.038-6.398,2.787-6.429,6.281l-0.087,10.062c-0.029,3.495,2.787,6.392,6.282,6.429l0.121,0.001
				c3.495,0.038,6.399-2.787,6.43-6.282l0.086-10.061C281.516,169.739,278.699,166.843,275.204,166.806z"/>
			<path style="fill-rule:evenodd;clip-rule:evenodd;fill:#D2887A;" d="M269.338,170.291c-0.429,0.841-0.676,1.79-0.684,2.795
				l-0.042,4.94l12.809,2.865l0.065-7.656c0.004-0.455-0.04-0.9-0.129-1.33c-3.004-1.271-7.257-3.046-7.48-3.009
				C273.663,168.932,271.198,169.651,269.338,170.291z"/>
			<g>
				<path style="fill-rule:evenodd;clip-rule:evenodd;fill:#D2887A;" d="M260.776,159.373c-1.825,0-3.305,1.48-3.305,3.305
					c0,1.825,1.48,3.305,3.305,3.305s3.305-1.48,3.305-3.305C264.081,160.853,262.602,159.373,260.776,159.373z"/>
				<path style="fill-rule:evenodd;clip-rule:evenodd;fill:#D2887A;" d="M289.369,159.399c-1.825,0-3.306,1.48-3.306,3.305
					c0,1.825,1.481,3.305,3.306,3.305c1.824,0,3.305-1.48,3.305-3.305C292.674,160.879,291.193,159.399,289.369,159.399z"/>
			</g>
			<path style="fill-rule:evenodd;clip-rule:evenodd;fill:#E6B5A3;" d="M274.816,138.594L274.816,138.594
				c-7.922,0.091-14.325,6.307-14.229,13.812l0.16,12.4c0.04,3.163,6.467,12.864,13.182,13.333
				c7.645,0.533,15.683-9.345,15.627-13.665l-0.16-12.4C289.301,144.567,282.738,138.503,274.816,138.594z"/>
			<path style="fill-rule:evenodd;clip-rule:evenodd;fill:#383260;" d="M288.973,147.088c-0.127-0.469-0.498-0.98-1.028-1.498v0v0
				c-2.139-2.085-6.862-4.279-8.697-4.279c-1.922,0-6.553,8.859-3.189,5.832c3.363-3.027,7.942,1.035,7.942,1.035
				s-1.265,7.254,3.632,8.175c0,0-0.243,5.585,1.895,5.759c0,0,0.843-2.934,2.14-1.785l-3.072-12.166
				C288.753,147.636,288.901,147.189,288.973,147.088z"/>
			<path style="fill-rule:evenodd;clip-rule:evenodd;fill:#D2887A;" d="M282.827,163.39c-1.112,0.03-1.991,0.956-1.961,2.069
				c0.029,1.113,0.955,1.992,2.069,1.962c1.112-0.03,1.991-0.957,1.962-2.07C284.867,164.239,283.94,163.36,282.827,163.39z"/>
			<path style="fill-rule:evenodd;clip-rule:evenodd;fill:#D2887A;" d="M266.675,163.854c-1.112,0.03-1.991,0.956-1.962,2.069
				c0.031,1.113,0.957,1.992,2.07,1.962c1.112-0.029,1.991-0.957,1.962-2.07C268.715,164.703,267.789,163.824,266.675,163.854z"/>
			<path style="fill-rule:evenodd;clip-rule:evenodd;fill:#383260;" d="M283.416,155.385c-1.127-0.631-2.631-0.665-3.778-0.071
				c-0.21,0.109-0.472,0.026-0.581-0.184c-0.108-0.21-0.025-0.472,0.185-0.581c1.432-0.742,3.188-0.662,4.594,0.087
				c0.205,0.116,0.279,0.377,0.165,0.583C283.885,155.426,283.624,155.501,283.416,155.385z"/>
			<path style="fill-rule:evenodd;clip-rule:evenodd;fill:#383260;" d="M284,148.179c-1.7-9.892-5.577-4.049-7.57,0.933
				c-1.628,4.07-5.83,9.476-15.762,9.476c0,0-2.422-1.243-2.422-4.771c0-3.529,0-7.329,0-9.952s3.89-12.259,11.309-14.068
				c7.419-1.809,13.661,2.081,15.018,3.257c1.357,1.176,3.257,5.88,3.257,5.88c8.246,0.797,6.243,7.78,4.842,15.018
				c-0.271,1.402-3.162,6.943-3.162,6.943C289.123,157.123,288.787,143.52,284,148.179z"/>
			<path style="fill-rule:evenodd;clip-rule:evenodd;fill:#443E71;" d="M258.246,146.584v-1.69
				c4.502-0.011,17.405-1.276,18.393-15.286c3.928,0.711,6.862,2.557,7.848,3.372c-2.415,4.134-6.988,10.335-13.72,12.8
				C265.456,147.724,261.178,147.389,258.246,146.584z"/>
			<path style="fill-rule:evenodd;clip-rule:evenodd;fill:#C8C4E1;" d="M278.574,233.811c0.267,0.153,0.357,0.494,0.206,0.76
				c-0.154,0.267-0.494,0.359-0.761,0.205l-2.993-1.728l-2.994,1.728c-0.266,0.154-0.607,0.062-0.76-0.205
				c-0.152-0.266-0.06-0.607,0.206-0.76l2.434-1.406l-2.435-1.406c-0.266-0.153-0.357-0.494-0.205-0.76
				c0.153-0.267,0.494-0.358,0.76-0.205l2.994,1.728l2.993-1.728c0.267-0.153,0.606-0.061,0.761,0.205
				c0.152,0.266,0.061,0.606-0.205,0.76l-2.436,1.406L278.574,233.811z"/>
			<path style="fill-rule:evenodd;clip-rule:evenodd;fill:#FFFFFF;" d="M278.574,230.016c0.267,0.153,0.357,0.494,0.206,0.76
				c-0.154,0.266-0.494,0.358-0.761,0.205l-2.993-1.728l-2.994,1.728c-0.266,0.153-0.607,0.061-0.76-0.205
				c-0.152-0.266-0.06-0.607,0.206-0.76l2.434-1.406l-2.435-1.406c-0.266-0.154-0.357-0.494-0.205-0.76
				c0.153-0.266,0.494-0.358,0.76-0.206l2.994,1.729l2.993-1.729c0.267-0.153,0.606-0.061,0.761,0.206
				c0.152,0.267,0.061,0.606-0.205,0.76l-2.436,1.406L278.574,230.016z"/>
			<path style="fill-rule:evenodd;clip-rule:evenodd;fill:#C8C4E1;" d="M278.574,226.22c0.267,0.153,0.357,0.494,0.206,0.759
				c-0.154,0.266-0.494,0.358-0.761,0.206l-2.993-1.729l-2.994,1.729c-0.266,0.153-0.607,0.061-0.76-0.206
				c-0.152-0.266-0.06-0.606,0.206-0.759l2.434-1.406l-2.435-1.407c-0.266-0.153-0.357-0.493-0.205-0.759
				c0.153-0.266,0.494-0.358,0.76-0.206l2.994,1.728l2.993-1.728c0.267-0.153,0.606-0.061,0.761,0.206
				c0.152,0.267,0.061,0.606-0.205,0.759l-2.436,1.407L278.574,226.22z"/>
			<path style="fill-rule:evenodd;clip-rule:evenodd;fill:#FFFFFF;" d="M278.574,222.424c0.267,0.153,0.357,0.493,0.206,0.759
				c-0.154,0.267-0.494,0.359-0.761,0.206l-2.993-1.729l-2.994,1.729c-0.266,0.153-0.607,0.061-0.76-0.206
				c-0.152-0.266-0.06-0.606,0.206-0.759l2.434-1.405l-2.435-1.407c-0.266-0.153-0.357-0.494-0.205-0.76
				c0.153-0.266,0.494-0.357,0.76-0.205l2.994,1.728l2.993-1.728c0.267-0.153,0.606-0.061,0.761,0.205
				c0.152,0.267,0.061,0.607-0.205,0.76l-2.436,1.407L278.574,222.424z"/>
			<path style="fill-rule:evenodd;clip-rule:evenodd;fill:#383260;" d="M281.562,157.568L281.562,157.568
				c0.339,0,0.649,0.121,0.893,0.322c0.103-0.026,0.279-0.097,0.377-0.287c0.058-0.109,0.191-0.152,0.301-0.096
				c0.109,0.057,0.152,0.191,0.097,0.301c-0.115,0.224-0.293,0.355-0.455,0.433l0.012,0.013c0.189-0.044,0.408-0.143,0.582-0.357
				c0.079-0.095,0.22-0.11,0.315-0.032c0.096,0.078,0.11,0.218,0.033,0.313c-0.197,0.241-0.435,0.379-0.658,0.456l0.002,0.003
				c0.211-0.012,0.444-0.07,0.671-0.215c0.104-0.066,0.243-0.035,0.309,0.069c0.065,0.104,0.034,0.242-0.069,0.308
				c-0.233,0.149-0.47,0.228-0.693,0.263l-0.311,0.044v1.694c0,0.771-0.63,1.403-1.402,1.403l0,0c-0.771,0-1.402-0.631-1.402-1.403
				v-1.83C280.159,158.199,280.79,157.568,281.562,157.568z"/>
			<path style="fill-rule:evenodd;clip-rule:evenodd;fill:#383260;" d="M268.049,157.568h-0.001c-0.338,0-0.648,0.121-0.892,0.322
				c-0.103-0.026-0.279-0.097-0.377-0.287c-0.057-0.109-0.192-0.152-0.301-0.096c-0.11,0.057-0.152,0.191-0.097,0.301
				c0.115,0.224,0.293,0.355,0.455,0.433l-0.012,0.013c-0.188-0.044-0.408-0.143-0.583-0.357c-0.077-0.095-0.219-0.11-0.313-0.032
				c-0.096,0.078-0.109,0.218-0.033,0.313c0.197,0.241,0.434,0.379,0.659,0.456l-0.003,0.003c-0.211-0.012-0.444-0.07-0.67-0.215
				c-0.104-0.066-0.244-0.035-0.31,0.069c-0.065,0.104-0.035,0.242,0.069,0.308c0.233,0.149,0.471,0.228,0.692,0.263l0.313,0.044
				v1.694c0,0.771,0.63,1.403,1.401,1.403h0.001c0.772,0,1.402-0.631,1.402-1.403v-1.83
				C269.451,158.199,268.821,157.568,268.049,157.568z"/>
			<path style="fill-rule:evenodd;clip-rule:evenodd;fill:#F0D6CA;" d="M273.1,162.694c0,0-1.002,1.515-1.055,1.993
				c-0.053,0.478,1.078,1.395,1.778,0.528C274.523,164.348,273.828,162.066,273.1,162.694z"/>
			<path style="fill-rule:evenodd;clip-rule:evenodd;fill:#D2887A;" d="M278.495,168.418c0.136-0.063,0.193-0.226,0.13-0.361
				c-0.064-0.135-0.225-0.194-0.362-0.13c-0.011,0.006-4.029,1.903-7.945,0.001c-0.135-0.065-0.297-0.008-0.362,0.127
				c-0.065,0.135-0.008,0.297,0.127,0.362C274.23,170.432,278.483,168.424,278.495,168.418z"/>
			<path style="fill-rule:evenodd;clip-rule:evenodd;fill:#E6B5A3;" d="M216.688,148.856l-0.131-0.001
				c-3.794-0.037-6.946,2.717-6.979,6.125l-0.094,9.811c-0.032,3.408,3.025,6.232,6.819,6.27l0.132,0.001
				c3.794,0.036,6.946-2.717,6.979-6.126l0.094-9.811C223.54,151.716,220.483,148.893,216.688,148.856z"/>
			<path style="fill-rule:evenodd;clip-rule:evenodd;fill:#D2887A;" d="M209.57,158.35l-0.034,3.991l13.307,7.087
				c0.359-0.82,0.563-1.722,0.571-2.671l0.073-8.464L209.57,158.35z"/>
			<path style="fill-rule:evenodd;clip-rule:evenodd;fill:#D2887A;" d="M233.325,142.833c0.117-0.003,0.232-0.001,0.348,0.004
				l0.004,0.001l-0.001-0.001c2.129,0.107,3.978,1.669,4.366,3.856c0.45,2.543-1.247,4.97-3.79,5.42
				c-2.544,0.45-4.971-1.247-5.42-3.79c-0.263-1.479,0.201-2.917,1.135-3.951c0.097,1.382,0.58,3.036,2.347,2.931l-0.469-2.656
				C231.654,143.574,232.582,142.919,233.325,142.833z"/>
			<path style="fill-rule:evenodd;clip-rule:evenodd;fill:#D2887A;" d="M201.169,140.149c-0.116,0.014-0.23,0.031-0.344,0.052
				l-0.003,0.001h0.001c-2.093,0.401-3.709,2.203-3.791,4.423c-0.093,2.581,1.924,4.749,4.504,4.843
				c2.581,0.094,4.75-1.923,4.844-4.503c0.055-1.5-0.604-2.861-1.671-3.756c0.095,1.383-0.155,3.087-1.919,3.229l0.098-2.695
				C202.928,140.652,201.918,140.132,201.169,140.149z"/>
			<path style="fill-rule:evenodd;clip-rule:evenodd;fill:#E6B5A3;" d="M219.286,117.775c-8.806-0.152-16.136,6.927-16.288,15.732
				l-0.204,11.737l-0.049,2.824c-0.021,1.208,0.096,2.389,0.332,3.526c2.832,7.938,10.359,12.432,16.56,12.66
				c6.394,0.235,11.472-4.041,14.674-12.119c0.276-1.129,0.434-2.305,0.454-3.513l0.049-2.823l0.204-11.738
				C235.171,125.256,228.091,117.928,219.286,117.775z"/>
			<path style="fill-rule:evenodd;clip-rule:evenodd;fill:#D2887A;" d="M228.431,147.816c-1.163,0.001-2.105,0.944-2.105,2.106
				c0.001,1.163,0.944,2.105,2.107,2.105c1.163-0.001,2.105-0.944,2.104-2.107C230.537,148.757,229.593,147.815,228.431,147.816z"/>
			<path style="fill-rule:evenodd;clip-rule:evenodd;fill:#D2887A;" d="M211.48,147.538c-1.163,0.001-2.105,0.944-2.105,2.107
				c0.001,1.163,0.944,2.105,2.107,2.104c1.163-0.001,2.105-0.944,2.105-2.107C213.587,148.48,212.643,147.537,211.48,147.538z"/>
			<path style="fill-rule:evenodd;clip-rule:evenodd;fill:#383260;" d="M211.869,139.392c-0.286,0.15-0.64,0.04-0.79-0.246
				c-0.15-0.286-0.04-0.64,0.245-0.789c1.497-0.809,3.517-0.939,5.016-0.078c0.279,0.161,0.377,0.52,0.217,0.799
				c-0.16,0.28-0.52,0.377-0.799,0.218C214.552,138.603,213.063,138.792,211.869,139.392z"/>
			<path style="fill-rule:evenodd;clip-rule:evenodd;fill:#383260;" d="M231.32,138.994c-1.22-0.554-2.714-0.684-3.892,0.054
				c-0.273,0.171-0.637,0.087-0.808-0.186c-0.17-0.273-0.086-0.636,0.186-0.807c1.465-0.918,3.488-0.868,5.014-0.119
				c0.292,0.138,0.416,0.488,0.277,0.779C231.959,139.007,231.609,139.131,231.32,138.994z"/>
			<path style="fill-rule:evenodd;clip-rule:evenodd;fill:#EFD4C9;" d="M222.715,146.755c0,0,1.386,1.955,1.419,2.83
				c0.033,0.875-1.562,0.501-1.854,0.024C221.989,149.133,221.79,146.408,222.715,146.755z"/>
			<path style="fill-rule:evenodd;clip-rule:evenodd;fill:#D2887A;" d="M216.775,155.063c-0.211-0.09-0.31-0.336-0.22-0.548
				s0.336-0.31,0.548-0.22c0.014,0.006,4.941,2.123,7.949-0.114c0.185-0.137,0.446-0.098,0.583,0.086
				c0.137,0.185,0.098,0.446-0.087,0.583C222.155,157.374,216.791,155.069,216.775,155.063z"/>
			<path style="fill-rule:evenodd;clip-rule:evenodd;fill:#383260;" d="M228.309,141.727L228.309,141.727
				c-0.813,0.03-1.486,0.606-1.538,1.418l-0.095,1.477c-0.053,0.811,0.605,1.567,1.418,1.538l0,0
				c0.813-0.03,1.486-0.606,1.538-1.417l0.095-1.477C229.779,142.452,229.122,141.697,228.309,141.727z"/>
			<path style="fill-rule:evenodd;clip-rule:evenodd;fill:#383260;" d="M233.275,132.4c0,0,0.785,1.869,0.905,3.014
				c0.121,1.146,0.631,10.61,0.631,10.61s2.745-8.258,3.167-10.489c0.422-2.23-2.116-6.296-3.982-7.368
				C232.132,127.096,233.275,132.4,233.275,132.4z"/>
			<path style="fill-rule:evenodd;clip-rule:evenodd;fill:#383260;" d="M202.784,145.898c0,0,2.701-0.417,2.52-5.782
				c0,0,3.135-3.135,3.677-4.521c0.542-1.387-0.482-4.943-0.482-4.943s12.72,4.4,24.776,1.748c0,0,2.773-4.34,2.291-8.199
				c-0.482-3.858-6.028-9.765-9.163-10.729c-3.135-0.965-2.773,1.326-2.773,1.326s-5.788-0.482-12.9,1.567
				c-7.114,2.05-8.44,5.064-7.958,8.56c0,0-3.376,2.17-3.617,3.978c-0.241,1.809,1.436,11.349,1.436,11.349
				S202.881,141.925,202.784,145.898z"/>
			<path style="fill-rule:evenodd;clip-rule:evenodd;fill:#855169;" d="M209.497,165.166c0,0,6.736,5.011,8.119,5.817l-2.42,4.032
				c0,0-0.892,1.238-1.929,0.259c-1.037-0.979-5.208-8.224-5.208-8.224L209.497,165.166z"/>
			<path style="fill-rule:evenodd;clip-rule:evenodd;fill:#855169;" d="M223.414,166.756l-5.798,4.227l2.305,4.004
				c0,0,0.777,0.778,1.44,0.49c0.662-0.288,3.975-6.797,3.975-6.797L223.414,166.756z"/>
			<path style="fill-rule:evenodd;clip-rule:evenodd;fill:#383260;" d="M207.038,242.544c0.762-2.681,1.237-5.513,1.603-8.274
				c0.426-3.224,0.703-6.476,0.904-9.722c0.46-7.397,0.536-14.804,0.536-22.213c0-2.531-0.359-5.217-0.741-7.718
				c-0.489-3.196-1.108-6.383-1.774-9.547c-1.168-5.542-2.499-11.063-3.918-16.547c-0.031-0.121-0.104-0.213-0.214-0.273
				c-0.11-0.06-0.227-0.07-0.346-0.031c-1.036,0.345-2.071,0.694-3.104,1.049c-0.216,0.074-0.337,0.3-0.28,0.521
				c1.35,5.223,2.621,10.48,3.744,15.756c0.66,3.107,1.276,6.235,1.765,9.373c0.372,2.394,0.733,4.993,0.733,7.417
				c0,7.325-0.067,14.655-0.521,21.969c-0.196,3.15-0.46,6.309-0.869,9.438c-0.336,2.579-0.772,5.257-1.496,7.758
				c-0.033,0.116-0.021,0.228,0.038,0.333c0.059,0.105,0.146,0.174,0.263,0.207c1.047,0.295,2.102,0.566,3.162,0.811
				C206.748,242.902,206.975,242.768,207.038,242.544z"/>
			<path style="fill-rule:evenodd;clip-rule:evenodd;fill:#383260;" d="M229.007,170.692c0.85,5.521,1.559,11.104,2.014,16.67
				c0.221,2.698,0.383,5.413,0.414,8.12c0.025,2.23-0.022,4.574-0.351,6.783c-0.424,2.844-0.605,5.804-0.741,8.676
				c-0.17,3.593-0.239,7.197-0.259,10.793c-0.022,4.033,0.021,8.07,0.132,12.101c0.08,2.946,0.178,5.929,0.41,8.868
				c0.011,0.138,0.078,0.252,0.194,0.329c0.115,0.076,0.247,0.094,0.378,0.05c1.117-0.373,2.215-0.84,3.234-1.432
				c0.146-0.085,0.227-0.236,0.216-0.405c-0.183-2.804-0.271-5.629-0.338-8.438c-0.089-3.684-0.123-7.371-0.102-11.056
				c0.019-3.503,0.086-7.011,0.251-10.509c0.131-2.771,0.304-5.632,0.713-8.377c0.344-2.314,0.406-4.749,0.388-7.086
				c-0.022-2.771-0.178-5.549-0.396-8.312c-0.398-5.055-1.01-10.114-1.737-15.132c-0.021-0.144-0.103-0.258-0.231-0.325
				c-1.18-0.61-2.374-1.197-3.569-1.776c-0.149-0.072-0.315-0.057-0.449,0.042C229.046,170.374,228.982,170.528,229.007,170.692z"/>
			
				<path style="fill-rule:evenodd;clip-rule:evenodd;fill:none;stroke:#C8C4E1;stroke-width:0.7087;stroke-linecap:round;stroke-linejoin:round;stroke-miterlimit:2.6131;" d="
				M237.221,178.906c-0.449-2.48-0.823-4.278-0.992-4.558 M192.878,172.48c1.374,1.612,3.424,16.524,0.668,25.128 M237.371,238.402
				c1.652-2.796-1.436-19.517-0.642-23.11c0.794-3.593,3.404-15.397,3.289-17.925c-0.045-0.992-0.547-4.598-1.176-8.672"/>
			<path style="fill-rule:evenodd;clip-rule:evenodd;fill:#383260;" d="M213.01,141.732L213.01,141.732
				c-0.813,0.03-1.485,0.606-1.538,1.418l-0.095,1.476c-0.052,0.811,0.605,1.568,1.418,1.538l0,0
				c0.813-0.03,1.486-0.606,1.538-1.417l0.095-1.476C214.48,142.458,213.824,141.703,213.01,141.732z"/>
			<path style="fill-rule:evenodd;clip-rule:evenodd;fill:#443E71;" d="M209.472,116.758c4.807,2.746,12.818,5.368,20.188-1.284
				c2.027,1.709,4.102,4.185,5.181,6.453c-4.705,1.788-11.981,3.624-18.72,1.485c-4.343-1.379-7.314-3.484-9.324-5.541
				C207.558,117.478,208.443,117.106,209.472,116.758z"/>
			<path style="fill-rule:evenodd;clip-rule:evenodd;fill:#E6B5A3;" d="M303.729,192.268c2.832,8.65,10.064,34.158,10.064,34.158
				s2.001,7.43-1.584,11.91c-3.586,4.48-29.842,33.364-29.842,33.364l-1.883-5.313l0.452-3.251l22.199-32.123l-8.61-21.614
				c-3.259-9.027-4.422-20.563,1.598-24.644C298.455,185.664,302.29,188.487,303.729,192.268z"/>
			<path style="fill-rule:evenodd;clip-rule:evenodd;fill:#D2887A;" d="M294.276,258.546c-2.916,3.232-5.664,6.27-7.785,8.608
				l-5.929-1.32l0.375-2.698l3.569-5.165l0.608,0.648l2.857-1.833L294.276,258.546z"/>
			
				<path style="fill-rule:evenodd;clip-rule:evenodd;fill:none;stroke:#C8C4E1;stroke-width:0.7087;stroke-linecap:round;stroke-linejoin:round;stroke-miterlimit:2.6131;" d="
				M278.542,217.909c0,0-4.404-1.328-9.156-2.335"/>
			
				<path style="fill-rule:evenodd;clip-rule:evenodd;fill:none;stroke:#C8C4E1;stroke-width:0.7087;stroke-linecap:round;stroke-linejoin:round;stroke-miterlimit:2.6131;" d="
				M254.267,199.325c0,0,1.87-5.209,2.23-6.649"/>
			
				<path style="fill-rule:evenodd;clip-rule:evenodd;fill:none;stroke:#D2887A;stroke-width:0.7087;stroke-linecap:round;stroke-linejoin:round;stroke-miterlimit:2.6131;" d="
				M276.714,196.387c0,0-3.08,4.066-3.152,8.098"/>
			
				<path style="fill-rule:evenodd;clip-rule:evenodd;fill:none;stroke:#714360;stroke-width:0.7087;stroke-linecap:round;stroke-linejoin:round;stroke-miterlimit:2.6131;" d="
				M258.844,228.835c0,0,0.27,3.227,0.005,4.523"/>
			
				<path style="fill-rule:evenodd;clip-rule:evenodd;fill:none;stroke:#714360;stroke-width:0.7087;stroke-linecap:round;stroke-linejoin:round;stroke-miterlimit:2.6131;" d="
				M291.209,228.835c0,0-0.742,5.453-0.87,6.684"/>
			
				<path style="fill-rule:evenodd;clip-rule:evenodd;fill:none;stroke:#D2887A;stroke-width:0.7087;stroke-linecap:round;stroke-linejoin:round;stroke-miterlimit:2.6131;" d="
				M303.137,231.013c0,0,1.315-0.678,2.684-0.102"/>
			<path style="fill-rule:evenodd;clip-rule:evenodd;fill:#6F8C8A;" d="M287.123,256.199c-0.606,0.125-1.255,0.336-1.834,0.549
				c-1.31,0.48-2.589,1.128-3.712,1.956c-3.532,2.606-4.566,6.287-3.351,10.476c0.095,0.329,0.399,0.539,0.74,0.513
				c4.35-0.341,7.428-2.607,8.62-6.832c0.379-1.344,0.533-2.77,0.52-4.164c-0.007-0.616-0.038-1.298-0.135-1.908
				c-0.032-0.2-0.133-0.361-0.299-0.476C287.507,256.197,287.321,256.159,287.123,256.199z"/>
			<path style="fill-rule:evenodd;clip-rule:evenodd;fill:#87A8A6;" d="M273.462,280.913c0.267,3.09,2.858,5.515,6.017,5.515
				c3.336,0,6.04-2.704,6.04-6.04c0-0.639-0.099-1.254-0.283-1.831c4.081-0.281,7.306-3.682,7.306-7.834
				c0-4.337-3.517-7.853-7.853-7.853c-0.691,0-1.362,0.09-2,0.257c0.171-0.559,0.263-1.151,0.263-1.767
				c0-3.336-2.704-6.04-6.039-6.04c-3.337,0-6.041,2.704-6.041,6.04c0,0.859,0.18,1.677,0.503,2.417
				c-4.748,0.054-8.582,3.92-8.582,8.682c0,4.796,3.888,8.684,8.684,8.684C272.159,281.142,272.824,281.063,273.462,280.913z"/>
			<path style="fill-rule:evenodd;clip-rule:evenodd;fill:#9FBBC1;" d="M274.478,267.592c-0.065-0.496-0.194-1.031-0.329-1.51
				c-0.307-1.084-0.75-2.155-1.349-3.11c-1.881-3.005-4.782-4.064-8.23-3.342c-0.271,0.057-0.459,0.29-0.458,0.565
				c0.007,3.523,1.643,6.143,4.973,7.361c1.059,0.388,2.198,0.6,3.321,0.675c0.497,0.033,1.048,0.05,1.546,0.009
				c0.163-0.014,0.299-0.085,0.401-0.212C274.455,267.902,274.497,267.755,274.478,267.592z"/>
			<path style="fill-rule:evenodd;clip-rule:evenodd;fill:#9FBBC1;" d="M292.55,283.866c-0.064-0.496-0.193-1.032-0.329-1.511
				c-0.306-1.084-0.749-2.154-1.347-3.11c-1.882-3.004-4.783-4.063-8.232-3.341c-0.27,0.057-0.459,0.289-0.458,0.565
				c0.007,3.522,1.644,6.142,4.972,7.36c1.06,0.389,2.199,0.601,3.322,0.676c0.497,0.032,1.048,0.049,1.546,0.008
				c0.163-0.013,0.298-0.084,0.401-0.211C292.528,284.174,292.569,284.028,292.55,283.866z"/>
			<path style="fill-rule:evenodd;clip-rule:evenodd;fill:#6F8C8A;" d="M275.45,276.311c-0.429,0.088-0.888,0.237-1.299,0.388
				c-0.927,0.34-1.834,0.8-2.63,1.386c-2.501,1.846-3.234,4.453-2.373,7.421c0.067,0.231,0.283,0.382,0.525,0.363
				c3.08-0.242,5.261-1.848,6.105-4.84c0.268-0.952,0.378-1.962,0.368-2.95c-0.004-0.436-0.027-0.919-0.096-1.352
				c-0.022-0.142-0.094-0.255-0.211-0.337C275.722,276.308,275.591,276.282,275.45,276.311z"/>
			<g>
				<path style="fill-rule:evenodd;clip-rule:evenodd;fill:#A75268;" d="M275.851,259.552c0,0,0.303-1.825,1.361-2.287
					c1.059-0.463,3.441,4.272,1.428,5.826c-2.016,1.555-5.264-1.396-5.688-2.1S274.58,259.205,275.851,259.552z"/>
				<path style="fill-rule:evenodd;clip-rule:evenodd;fill:#C37584;" d="M277.828,258.917c0,0,1.379-1.234,2.494-0.932
					c1.114,0.303,0.008,5.487-2.536,5.438c-2.544-0.05-3.229-4.383-3.12-5.198C274.775,257.409,277.055,257.851,277.828,258.917z"/>
				<path style="fill-rule:evenodd;clip-rule:evenodd;fill:#D48F9E;" d="M276.618,259.254c0,0,0.728-1.701,1.866-1.897
					c1.139-0.198,2.328,4.969,0,5.999c-2.327,1.03-4.78-2.607-5.024-3.394C273.215,259.177,275.468,258.616,276.618,259.254z"/>
			</g>
			<g>
				<path style="fill-rule:evenodd;clip-rule:evenodd;fill:#E3E1F1;" d="M286.947,268.505c0,0-0.378-2.275-1.698-2.852
					c-1.318-0.576-4.291,5.328-1.778,7.265c2.513,1.938,6.561-1.74,7.091-2.618S288.53,268.073,286.947,268.505z"/>
				<path style="fill-rule:evenodd;clip-rule:evenodd;fill:#EFEDF6;" d="M284.482,267.713c0,0-1.719-1.538-3.108-1.161
					c-1.39,0.376-0.012,6.841,3.16,6.778c3.172-0.063,4.026-5.464,3.891-6.48C288.287,265.835,285.444,266.384,284.482,267.713z"/>
				<path style="fill-rule:evenodd;clip-rule:evenodd;fill:#FFFFFF;" d="M285.99,268.134c0,0-0.907-2.12-2.327-2.366
					c-1.419-0.246-2.9,6.196,0,7.479c2.901,1.284,5.959-3.251,6.265-4.229C290.233,268.04,287.425,267.337,285.99,268.134z"/>
			</g>
			<g>
				<path style="fill-rule:evenodd;clip-rule:evenodd;fill:#D8D5EA;" d="M268.958,268.416c0,0,0.283-3.104,2.006-4.011
					c1.722-0.907,6.311,6.757,3.115,9.616c-3.195,2.858-9.016-1.697-9.815-2.829C263.463,270.061,266.78,267.99,268.958,268.416z"/>
				<path style="fill-rule:evenodd;clip-rule:evenodd;fill:#E3E1F1;" d="M272.203,267.106c0,0,2.164-2.244,4.074-1.873
					c1.91,0.369,0.691,9.22-3.589,9.448c-4.282,0.229-5.968-6.967-5.885-8.351C266.888,264.948,270.772,265.41,272.203,267.106z"/>
				<path style="fill-rule:evenodd;clip-rule:evenodd;fill:#F4F4F9;" d="M270.211,267.822c0,0,1.014-2.947,2.902-3.42
					c1.888-0.471,4.522,8.064,0.738,10.082c-3.783,2.017-8.353-3.794-8.861-5.083C264.482,268.112,268.198,266.889,270.211,267.822z
					"/>
			</g>
			<g>
				<path style="fill-rule:evenodd;clip-rule:evenodd;fill:#A75268;" d="M277.904,275.484c0,0,0.869-2.137,2.284-2.407
					c1.413-0.272,3.011,6.142,0.134,7.478c-2.877,1.336-6.017-3.143-6.34-4.116C273.659,275.465,276.455,274.712,277.904,275.484z"
					/>
				<path style="fill-rule:evenodd;clip-rule:evenodd;fill:#C37584;" d="M280.483,275.254c0,0,2.016-1.122,3.287-0.448
					c1.273,0.674-1.495,6.676-4.575,5.916c-3.08-0.76-2.725-6.217-2.367-7.179C277.185,272.582,279.836,273.746,280.483,275.254z"/>
				<path style="fill-rule:evenodd;clip-rule:evenodd;fill:#D48F9E;" d="M278.919,275.332c0,0,1.352-1.868,2.791-1.795
					c1.439,0.072,1.464,6.683-1.648,7.295c-3.112,0.613-5.096-4.484-5.178-5.506C274.801,274.304,277.695,274.239,278.919,275.332z"
					/>
			</g>
			<path style="fill-rule:evenodd;clip-rule:evenodd;fill:#D2887A;" d="M182.117,148.491c-0.212,0.091-0.31,0.336-0.22,0.547
				c0.09,0.212,0.336,0.311,0.548,0.22c0.014-0.006,4.941-2.122,7.949,0.115c0.185,0.137,0.446,0.098,0.583-0.086
				c0.137-0.185,0.098-0.446-0.087-0.583C187.497,146.179,182.132,148.485,182.117,148.491z"/>
		</g>
		<g>
			<path style="fill-rule:evenodd;clip-rule:evenodd;fill:#FFFFFF;" d="M105.594,163.983L105.594,163.983
				c-2.333-2.333-6.15-2.333-8.483,0l-1.018,1.018l-1.018-1.018c-2.333-2.333-6.15-2.333-8.482,0h0c-2.333,2.333-2.333,6.15,0,8.483
				l1.017,1.018l8.483,8.483l8.483-8.483l1.018-1.018C107.927,170.133,107.926,166.316,105.594,163.983z"/>
			<g>
				<path style="fill-rule:evenodd;clip-rule:evenodd;fill:#FFFFFF;" d="M333.91,145.265c0-0.522,0.425-0.947,0.947-0.947
					c0.523,0,0.947,0.424,0.947,0.947v4.26c0,0.522-0.424,0.947-0.947,0.947c-0.522,0-0.947-0.425-0.947-0.947V145.265
					L333.91,145.265z M327.456,148.724c-0.369-0.37-0.369-0.97,0-1.34c0.369-0.37,0.97-0.37,1.34,0l3.012,3.012
					c0.37,0.37,0.37,0.97,0,1.339c-0.369,0.37-0.97,0.37-1.339,0L327.456,148.724L327.456,148.724z M325.337,155.733
					c-0.523,0-0.946-0.424-0.946-0.947c0-0.523,0.424-0.947,0.946-0.947h4.26c0.523,0,0.947,0.424,0.947,0.947
					c0,0.522-0.424,0.947-0.947,0.947H325.337L325.337,155.733z M328.796,162.188c-0.37,0.37-0.971,0.37-1.34,0
					c-0.369-0.37-0.369-0.97,0-1.339l3.013-3.012c0.369-0.37,0.97-0.37,1.339,0c0.37,0.369,0.37,0.969,0,1.339L328.796,162.188
					L328.796,162.188z M335.805,164.306c0,0.523-0.424,0.947-0.947,0.947c-0.522,0-0.947-0.424-0.947-0.947v-4.259
					c0-0.523,0.425-0.947,0.947-0.947c0.523,0,0.947,0.424,0.947,0.947V164.306L335.805,164.306z M342.26,160.848
					c0.37,0.37,0.37,0.97,0,1.339c-0.369,0.37-0.97,0.37-1.339,0l-3.013-3.012c-0.369-0.37-0.369-0.97,0-1.339
					c0.37-0.37,0.97-0.37,1.34,0L342.26,160.848L342.26,160.848z M344.378,153.839c0.523,0,0.947,0.424,0.947,0.947
					c0,0.522-0.424,0.947-0.947,0.947h-4.259c-0.523,0-0.947-0.424-0.947-0.947c0-0.523,0.424-0.947,0.947-0.947H344.378
					L344.378,153.839z M340.921,147.384c0.369-0.37,0.97-0.37,1.339,0c0.37,0.37,0.37,0.97,0,1.34l-3.012,3.012
					c-0.37,0.37-0.97,0.37-1.34,0c-0.369-0.37-0.369-0.969,0-1.339L340.921,147.384z"/>
				<path style="fill-rule:evenodd;clip-rule:evenodd;fill:#FFFFFF;" d="M167.022,220.701c0-0.523,0.424-0.947,0.947-0.947
					c0.522,0,0.947,0.424,0.947,0.947v4.259c0,0.522-0.424,0.947-0.947,0.947c-0.523,0-0.947-0.425-0.947-0.947V220.701
					L167.022,220.701z M160.568,224.158c-0.37-0.37-0.37-0.97,0-1.339c0.37-0.37,0.969-0.37,1.339,0l3.012,3.012
					c0.37,0.37,0.37,0.97,0,1.339c-0.37,0.37-0.969,0.37-1.339,0L160.568,224.158L160.568,224.158z M158.449,231.167
					c-0.523,0-0.947-0.424-0.947-0.946c0-0.523,0.424-0.947,0.947-0.947h4.259c0.523,0,0.947,0.424,0.947,0.947
					c0,0.522-0.424,0.946-0.947,0.946H158.449L158.449,231.167z M161.907,237.623c-0.37,0.37-0.97,0.37-1.339,0
					c-0.37-0.37-0.37-0.97,0-1.339l3.012-3.012c0.37-0.37,0.969-0.37,1.339,0s0.37,0.97,0,1.339L161.907,237.623L161.907,237.623z
					 M168.917,239.742c0,0.523-0.424,0.947-0.947,0.947c-0.523,0-0.947-0.424-0.947-0.947v-4.26c0-0.523,0.424-0.947,0.947-0.947
					c0.522,0,0.947,0.425,0.947,0.947V239.742L168.917,239.742z M175.372,236.283c0.369,0.37,0.369,0.97,0,1.339
					c-0.37,0.37-0.97,0.37-1.34,0l-3.012-3.012c-0.37-0.37-0.37-0.97,0-1.339c0.37-0.37,0.97-0.37,1.339,0L175.372,236.283
					L175.372,236.283z M177.49,229.274c0.523,0,0.947,0.424,0.947,0.947c0,0.522-0.424,0.946-0.947,0.946h-4.26
					c-0.523,0-0.947-0.424-0.947-0.946c0-0.523,0.424-0.947,0.947-0.947H177.49L177.49,229.274z M174.032,222.819
					c0.37-0.37,0.97-0.37,1.34,0c0.369,0.37,0.369,0.97,0,1.339l-3.012,3.012c-0.37,0.37-0.97,0.37-1.339,0
					c-0.37-0.37-0.37-0.97,0-1.339L174.032,222.819z"/>
				<g>
					<path style="fill-rule:evenodd;clip-rule:evenodd;fill:#BAB6D7;" d="M454.547,409.076h-2.981c-0.718,0-1.304-0.586-1.304-1.304
						v-2.982c0-0.717,0.586-1.304,1.304-1.304h2.981c0.718,0,1.305,0.587,1.305,1.304v2.982
						C455.852,408.49,455.265,409.076,454.547,409.076z"/>
					<path style="fill-rule:evenodd;clip-rule:evenodd;fill:#FFFFFF;" d="M444.206,409.076h-2.981c-0.718,0-1.304-0.586-1.304-1.304
						v-2.982c0-0.717,0.586-1.304,1.304-1.304h2.981c0.718,0,1.305,0.587,1.305,1.304v2.982
						C445.511,408.49,444.924,409.076,444.206,409.076z"/>
					<path style="fill-rule:evenodd;clip-rule:evenodd;fill:#BAB6D7;" d="M433.865,409.076h-2.982c-0.719,0-1.304-0.586-1.304-1.304
						v-2.982c0-0.717,0.585-1.304,1.304-1.304h2.982c0.718,0,1.304,0.587,1.304,1.304v2.982
						C435.169,408.49,434.583,409.076,433.865,409.076z"/>
					<path style="fill-rule:evenodd;clip-rule:evenodd;fill:#FFFFFF;" d="M423.525,409.076h-2.983c-0.717,0-1.305-0.586-1.305-1.304
						v-2.982c0-0.717,0.588-1.304,1.305-1.304h2.983c0.716,0,1.304,0.587,1.304,1.304v2.982
						C424.829,408.49,424.241,409.076,423.525,409.076z"/>
					<path style="fill-rule:evenodd;clip-rule:evenodd;fill:#BAB6D7;" d="M413.182,409.076h-2.98c-0.719,0-1.305-0.586-1.305-1.304
						v-2.982c0-0.717,0.586-1.304,1.305-1.304h2.98c0.719,0,1.305,0.587,1.305,1.304v2.982
						C414.486,408.49,413.9,409.076,413.182,409.076z"/>
					<path style="fill-rule:evenodd;clip-rule:evenodd;fill:#FFFFFF;" d="M433.49,397.801h-2.982c-0.718,0-1.304-0.586-1.304-1.304
						v-2.982c0-0.717,0.586-1.304,1.304-1.304h2.982c0.718,0,1.305,0.587,1.305,1.304v2.982
						C434.795,397.215,434.208,397.801,433.49,397.801z"/>
					<path style="fill-rule:evenodd;clip-rule:evenodd;fill:#BAB6D7;" d="M423.149,397.801h-2.981c-0.719,0-1.304-0.586-1.304-1.304
						v-2.982c0-0.717,0.585-1.304,1.304-1.304h2.981c0.718,0,1.305,0.587,1.305,1.304v2.982
						C424.454,397.215,423.867,397.801,423.149,397.801z"/>
					<path style="fill-rule:evenodd;clip-rule:evenodd;fill:#FFFFFF;" d="M412.809,397.801h-2.982c-0.717,0-1.304-0.586-1.304-1.304
						v-2.982c0-0.717,0.587-1.304,1.304-1.304h2.982c0.718,0,1.305,0.587,1.305,1.304v2.982
						C414.113,397.215,413.526,397.801,412.809,397.801z"/>
				</g>
				<g>
					<path style="fill-rule:evenodd;clip-rule:evenodd;fill:#BAB6D7;" d="M298.306,109.565h-2.982c-0.718,0-1.304-0.587-1.304-1.304
						v-2.982c0-0.718,0.586-1.304,1.304-1.304h2.982c0.718,0,1.303,0.586,1.303,1.304v2.982
						C299.608,108.979,299.023,109.565,298.306,109.565z"/>
					<path style="fill-rule:evenodd;clip-rule:evenodd;fill:#FFFFFF;" d="M287.965,109.565h-2.982c-0.718,0-1.305-0.587-1.305-1.304
						v-2.982c0-0.718,0.587-1.304,1.305-1.304h2.982c0.717,0,1.304,0.586,1.304,1.304v2.982
						C289.269,108.979,288.682,109.565,287.965,109.565z"/>
					<path style="fill-rule:evenodd;clip-rule:evenodd;fill:#BAB6D7;" d="M277.623,109.565h-2.981c-0.718,0-1.305-0.587-1.305-1.304
						v-2.982c0-0.718,0.587-1.304,1.305-1.304h2.981c0.719,0,1.304,0.586,1.304,1.304v2.982
						C278.927,108.979,278.342,109.565,277.623,109.565z"/>
					<path style="fill-rule:evenodd;clip-rule:evenodd;fill:#FFFFFF;" d="M267.282,109.565h-2.982c-0.718,0-1.306-0.587-1.306-1.304
						v-2.982c0-0.718,0.588-1.304,1.306-1.304h2.982c0.717,0,1.305,0.586,1.305,1.304v2.982
						C268.587,108.979,267.999,109.565,267.282,109.565z"/>
					<path style="fill-rule:evenodd;clip-rule:evenodd;fill:#BAB6D7;" d="M256.94,109.565h-2.981c-0.719,0-1.304-0.587-1.304-1.304
						v-2.982c0-0.718,0.585-1.304,1.304-1.304h2.981c0.718,0,1.304,0.586,1.304,1.304v2.982
						C258.244,108.979,257.658,109.565,256.94,109.565z"/>
					<path style="fill-rule:evenodd;clip-rule:evenodd;fill:#FFFFFF;" d="M277.249,98.291h-2.982c-0.718,0-1.305-0.587-1.305-1.304
						v-2.981c0-0.718,0.587-1.304,1.305-1.304h2.982c0.717,0,1.304,0.586,1.304,1.304v2.981
						C278.553,97.704,277.966,98.291,277.249,98.291z"/>
					<path style="fill-rule:evenodd;clip-rule:evenodd;fill:#BAB6D7;" d="M266.907,98.291h-2.982c-0.718,0-1.304-0.587-1.304-1.304
						v-2.981c0-0.718,0.586-1.304,1.304-1.304h2.982c0.719,0,1.304,0.586,1.304,1.304v2.981
						C268.211,97.704,267.626,98.291,266.907,98.291z"/>
					<path style="fill-rule:evenodd;clip-rule:evenodd;fill:#FFFFFF;" d="M256.567,98.291h-2.982c-0.718,0-1.305-0.587-1.305-1.304
						v-2.981c0-0.718,0.587-1.304,1.305-1.304h2.982c0.717,0,1.303,0.586,1.303,1.304v2.981
						C257.87,97.704,257.284,98.291,256.567,98.291z"/>
				</g>
				<path style="fill-rule:evenodd;clip-rule:evenodd;fill:#FFFFFF;" d="M451.95,360.029L451.95,360.029
					c-2.333-2.333-6.15-2.333-8.482-0.001l-1.018,1.018l-1.019-1.018c-2.332-2.332-6.149-2.332-8.482,0v0.001
					c-2.333,2.332-2.333,6.15,0,8.483l1.018,1.018l8.483,8.483l8.482-8.483l1.018-1.018
					C454.283,366.179,454.282,362.361,451.95,360.029z"/>
				<path style="fill-rule:evenodd;clip-rule:evenodd;fill:#FFFFFF;" d="M88.72,361.963c1.692,0,3.072-1.381,3.072-3.072
					c0-1.692-1.38-3.072-3.072-3.072s-3.072,1.38-3.072,3.072C85.647,360.582,87.028,361.963,88.72,361.963z"/>
				<path style="fill-rule:evenodd;clip-rule:evenodd;fill:#FFFFFF;" d="M171.056,310.349c1.692,0,3.072-1.38,3.072-3.072
					c0-1.691-1.38-3.072-3.072-3.072c-1.692,0-3.072,1.381-3.072,3.072C167.984,308.969,169.364,310.349,171.056,310.349z"/>
				<path style="fill-rule:evenodd;clip-rule:evenodd;fill:#FFFFFF;" d="M343.101,214.496c1.692,0,3.072-1.38,3.072-3.072
					c0-1.692-1.38-3.072-3.072-3.072c-1.692,0-3.072,1.38-3.072,3.072C340.028,213.116,341.408,214.496,343.101,214.496z"/>
				<path style="fill-rule:evenodd;clip-rule:evenodd;fill:#FFFFFF;" d="M438.954,214.496c1.692,0,3.072-1.38,3.072-3.072
					c0-1.692-1.38-3.072-3.072-3.072c-1.692,0-3.072,1.38-3.072,3.072C435.882,213.116,437.262,214.496,438.954,214.496z"/>
				<path style="fill-rule:evenodd;clip-rule:evenodd;fill:#FFFFFF;" d="M420.521,358.276c1.692,0,3.072-1.38,3.072-3.072
					c0-1.691-1.38-3.072-3.072-3.072c-1.691,0-3.072,1.381-3.072,3.072C417.448,356.896,418.829,358.276,420.521,358.276z"/>
				<path style="fill-rule:evenodd;clip-rule:evenodd;fill:#FFFFFF;" d="M354.161,364.42c1.691,0,3.072-1.38,3.072-3.072
					c0-1.691-1.381-3.072-3.072-3.072c-1.692,0-3.072,1.381-3.072,3.072C351.089,363.041,352.469,364.42,354.161,364.42z"/>
				<path style="fill-rule:evenodd;clip-rule:evenodd;fill:#FFFFFF;" d="M193.176,112.498c1.692,0,3.072-1.38,3.072-3.072
					c0-1.692-1.38-3.072-3.072-3.072c-1.692,0-3.072,1.38-3.072,3.072C190.104,111.118,191.484,112.498,193.176,112.498z"/>
			</g>
			<path style="fill-rule:evenodd;clip-rule:evenodd;fill:#FFFFFF;" d="M356.287,71.816L356.287,71.816
				c-2.333-2.333-6.15-2.333-8.483,0l-1.018,1.018l-1.018-1.018c-2.333-2.333-6.15-2.333-8.483,0v0
				c-2.333,2.333-2.333,6.149,0,8.482l1.018,1.018l8.483,8.483l8.483-8.483l1.018-1.018C358.62,77.965,358.62,74.148,356.287,71.816
				z"/>
		</g>
	</g>
</g>
</svg>
